<!-- Generated by readme-aura https://github.com/collectioneur/readme-aura -->
<svg width="860" height="200" viewBox="0 0 860 200" xmlns="http://www.w3.org/2000/svg"><defs><clipPath id="satori_bc-id"><path x="0" y="0" width="860" height="200" d="M20,0 h820 a20,20 0 0 1 20,20 v160 a20,20 0 0 1 -20,20 h-820 a20,20 0 0 1 -20,-20 v-160 a20,20 0 0 1 20,-20"/></clipPath></defs><clipPath id="satori_cp-id"><path x="0" y="0" width="860" height="200" d="M20,0 h820 a20,20 0 0 1 20,20 v160 a20,20 0 0 1 -20,20 h-820 a20,20 0 0 1 -20,-20 v-160 a20,20 0 0 1 20,-20"/></clipPath><mask id="satori_om-id"><rect x="1" y="1" width="858" height="198" fill="#fff"/><path width="860" height="200" fill="none" stroke="#000" stroke-width="2" d="M5.8580000000000005,5.8580000000000005 A20,20 0 0 1 20,0 h820 a20,20 0 0 1 20,20 v160 a20,20 0 0 1 -20,20 h-820 a20,20 0 0 1 -20,-20 v-160 A20,20 0 0 1 5.8580000000000005,5.8580000000000005"/></mask><path x="0" y="0" width="860" height="200" fill="#06060a" d="M20,0 h820 a20,20 0 0 1 20,20 v160 a20,20 0 0 1 -20,20 h-820 a20,20 0 0 1 -20,-20 v-160 a20,20 0 0 1 20,-20"/><path width="860" height="200" clip-path="url(#satori_bc-id)" fill="none" stroke="rgba(0,229,255,0.08)" stroke-width="2" d="M5.8580000000000005,5.8580000000000005 A20,20 0 0 1 20,0 h820 a20,20 0 0 1 20,20 v160 a20,20 0 0 1 -20,20 h-820 a20,20 0 0 1 -20,-20 v-160 A20,20 0 0 1 5.8580000000000005,5.8580000000000005"/><clipPath id="satori_cp-id-0" clip-path="url(#satori_cp-id)"><rect x="1" y="1" width="860" height="200"/></clipPath><mask id="satori_om-id-0"><rect x="1" y="1" width="860" height="200" fill="#fff" mask="url(#satori_om-id)"/></mask><svg x="1" y="1" width="860" height="200" preserveAspectRatio="none" clip-path="url(#satori_cp-id-0)" mask="url(#satori_om-id-0)"><defs><radialGradient id="tcg1" cx="50%" cy="50%" r="50%"><stop offset="0%" stop-color="rgba(0,229,255,0.40)"></stop><stop offset="100%" stop-color="rgba(0,229,255,0)"></stop></radialGradient><radialGradient id="tcg2" cx="50%" cy="50%" r="50%"><stop offset="0%" stop-color="rgba(139,92,246,0.38)"></stop><stop offset="100%" stop-color="rgba(139,92,246,0)"></stop></radialGradient></defs><ellipse id="tco1" cx="180" cy="170" rx="240" ry="170" fill="url(#tcg1)"></ellipse><ellipse id="tco2" cx="700" cy="40" rx="220" ry="160" fill="url(#tcg2)"></ellipse><circle id="tcr1" cx="430" cy="100" r="120" fill="none" stroke="rgba(0,229,255,0.5)" stroke-width="0.5"></circle><circle id="tcr2" cx="430" cy="100" r="180" fill="none" stroke="rgba(139,92,246,0.4)" stroke-width="0.4"></circle><style>

    @keyframes tc-orb1 { 0%, 100% { transform: translate(0,0); opacity: 0.45; } 50% { transform: translate(30px,-20px); opacity: 0.75; } }
    @keyframes tc-orb2 { 0%, 100% { transform: translate(0,0); opacity: 0.35; } 50% { transform: translate(-25px,18px); opacity: 0.6; } }
    @keyframes tc-ring { 0%, 100% { opacity: 0.05; } 50% { opacity: 0.14; } }
    @keyframes tc-dot { 0%, 100% { opacity: 0.4; } 50% { opacity: 1; } }
    #tco1 { animation: tc-orb1 10s ease-in-out infinite; }
    #tco2 { animation: tc-orb2 13s ease-in-out infinite 1s; }
    #tcr1 { animation: tc-ring 8s ease-in-out infinite; }
    #tcr2 { animation: tc-ring 8s ease-in-out infinite 2s; }
    #tcd1 { animation: tc-dot 2.4s ease-in-out infinite; }
    #tcd2 { animation: tc-dot 2.4s ease-in-out infinite 0.8s; }
  
</style>
</svg><mask id="satori_om-id-0-0"><rect x="1" y="1" width="0" height="200" fill="#fff" mask="url(#satori_om-id)"/></mask><mask id="satori_om-id-0-0-0"><rect x="1" y="1" width="0" height="200" fill="#fff" mask="url(#satori_om-id)"/></mask><mask id="satori_om-id-0-0-0-0"><rect x="1" y="1" width="0" height="200" fill="#fff" mask="url(#satori_om-id)"/></mask><mask id="satori_om-id-0-0-0-1"><rect x="1" y="1" width="0" height="200" fill="#fff" mask="url(#satori_om-id)"/></mask><mask id="satori_om-id-0-0-1"><rect x="1" y="1" width="0" height="200" fill="#fff" mask="url(#satori_om-id)"/></mask><mask id="satori_om-id-0-0-1-0"><rect x="1" y="1" width="0" height="200" fill="#fff" mask="url(#satori_om-id)"/></mask><mask id="satori_om-id-0-0-1-1"><rect x="1" y="1" width="0" height="200" fill="#fff" mask="url(#satori_om-id)"/></mask><mask id="satori_om-id-0-1"><rect x="1" y="1" width="0" height="200" fill="#fff" mask="url(#satori_om-id)"/></mask><mask id="satori_om-id-0-2"><rect x="1" y="1" width="0" height="200" fill="#fff" mask="url(#satori_om-id)"/></mask><mask id="satori_om-id-0-3"><rect x="1" y="1" width="0" height="200" fill="#fff" mask="url(#satori_om-id)"/></mask><mask id="satori_om-id-0-4"><rect x="1" y="1" width="0" height="200" fill="#fff" mask="url(#satori_om-id)"/></mask><mask id="satori_om-id-1"><rect x="303" y="40" width="254" height="121" fill="#fff" mask="url(#satori_om-id)"/></mask><mask id="satori_om-id-1-0"><rect x="303" y="40" width="254" height="13" fill="#fff" mask="url(#satori_om-id)"/></mask><mask id="satori_ms-id-1-0-0-0" maskUnits="userSpaceOnUse"><rect x="0" y="0" width="860" height="200" fill="#fff"/><path x="303" y="44" width="6" height="6" fill="#000"  stroke-width="0" d="M306,44 h0 a3,3 0 0 1 3,3 v0 a3,3 0 0 1 -3,3 h0 a3,3 0 0 1 -3,-3 v0 a3,3 0 0 1 3,-3" clip-path="url(#satori_cp-id)" mask="url(#satori_om-id)"/></mask><defs><filter id="satori_s-id-1-0-0-0" x="-266.66666666666663%" y="-266.66666666666663%" width="633.3333333333333%" height="633.3333333333333%"><feGaussianBlur stdDeviation="4" result="b"/><feFlood flood-color="rgba(0,229,255,0.6)" in="SourceGraphic" result="f"/><feComposite in="f" in2="b" operator="in"/></filter></defs><g mask="url(#satori_ms-id-1-0-0-0)" filter="url(#satori_s-id-1-0-0-0)" opacity="1"><path x="303" y="44" width="6" height="6" fill="#fff" stroke="#fff" stroke-width="0" d="M306,44 h0 a3,3 0 0 1 3,3 v0 a3,3 0 0 1 -3,3 h0 a3,3 0 0 1 -3,-3 v0 a3,3 0 0 1 3,-3" clip-path="url(#satori_cp-id)" mask="url(#satori_om-id)"/></g><mask id="satori_om-id-1-0-0"><rect x="303" y="44" width="6" height="6" fill="#fff" mask="url(#satori_om-id)"/></mask><path x="303" y="44" width="6" height="6" fill="rgba(0,229,255,0.9)" d="M306,44 h0 a3,3 0 0 1 3,3 v0 a3,3 0 0 1 -3,3 h0 a3,3 0 0 1 -3,-3 v0 a3,3 0 0 1 3,-3" clip-path="url(#satori_cp-id)" mask="url(#satori_om-id)"/><mask id="satori_om-id-1-0-1"><rect x="317" y="40" width="226" height="13" fill="#fff" mask="url(#satori_om-id)"/></mask><g mask="url(#satori_om-id)" clip-path="url(#satori_cp-id)"><path fill="rgba(0,229,255,0.55)" d="M320.0 43.9L317.5 43.9L317.5 43.0L323.6 43.0L323.6 43.9L321.1 43.9L321.1 51L320.0 51L320.0 43.9ZM333.3 51.1L333.3 51.1Q332.3 51.1 331.5 50.6Q330.7 50.1 330.2 49.2Q329.8 48.3 329.8 47.0L329.8 47.0Q329.8 45.7 330.2 44.8Q330.7 43.9 331.5 43.4Q332.3 42.9 333.3 42.9L333.3 42.9Q334.3 42.9 335.1 43.4Q335.9 43.9 336.4 44.8Q336.9 45.7 336.9 47.0L336.9 47.0Q336.9 48.3 336.4 49.2Q335.9 50.1 335.1 50.6Q334.3 51.1 333.3 51.1ZM333.3 50.2L333.3 50.2Q334.0 50.2 334.6 49.8Q335.2 49.4 335.5 48.7Q335.9 48.0 335.9 47.0L335.9 47.0Q335.9 46.0 335.5 45.3Q335.2 44.6 334.6 44.2Q334.0 43.8 333.3 43.8L333.3 43.8Q332.6 43.8 332.0 44.2Q331.4 44.6 331.1 45.3Q330.7 46.0 330.7 47.0L330.7 47.0Q330.7 48.0 331.1 48.7Q331.4 49.4 332.0 49.8Q332.6 50.2 333.3 50.2ZM345.6 43.9L343.0 43.9L343.0 43.0L349.1 43.0L349.1 43.9L346.6 43.9L346.6 51L345.6 51L345.6 43.9ZM356.0 51L354.9 51L357.8 43.0L359.0 43.0L361.9 51L360.8 51L360.0 48.8L356.8 48.8L356.0 51ZM357.1 47.9L359.7 47.9L359.2 46.3Q359.0 45.8 358.8 45.2L358.8 45.2Q358.6 44.6 358.4 43.8L358.4 43.8Q358.2 44.6 358.0 45.2L358.0 45.2Q357.8 45.8 357.6 46.3L357.6 46.3L357.1 47.9ZM372.9 51L368.2 51L368.2 43.0L369.2 43.0L369.2 50.1L372.9 50.1L372.9 51Z M390.7 51.1L390.7 51.1Q389.7 51.1 388.9 50.6Q388.1 50.1 387.6 49.2Q387.2 48.3 387.2 47.0L387.2 47.0Q387.2 45.7 387.6 44.8Q388.1 43.9 388.9 43.4Q389.7 42.9 390.7 42.9L390.7 42.9Q391.3 42.9 391.9 43.1Q392.4 43.2 392.8 43.6Q393.3 43.9 393.6 44.4Q393.8 44.9 393.9 45.5L393.9 45.5L392.9 45.5Q392.8 45.1 392.6 44.8Q392.4 44.5 392.1 44.3Q391.8 44.0 391.5 43.9Q391.1 43.8 390.7 43.8L390.7 43.8Q390.0 43.8 389.4 44.2Q388.8 44.6 388.5 45.3Q388.2 46.0 388.2 47.0L388.2 47.0Q388.2 48.0 388.5 48.7Q388.8 49.4 389.4 49.8Q390.0 50.2 390.7 50.2L390.7 50.2Q391.1 50.2 391.5 50.1Q391.8 49.9 392.1 49.7Q392.4 49.5 392.6 49.2Q392.8 48.9 392.9 48.5L392.9 48.5L393.9 48.5Q393.8 49.1 393.6 49.6Q393.3 50.1 392.8 50.4Q392.4 50.7 391.9 50.9Q391.3 51.1 390.7 51.1ZM403.8 51.1L403.8 51.1Q402.7 51.1 401.9 50.6Q401.1 50.1 400.7 49.2Q400.2 48.3 400.2 47.0L400.2 47.0Q400.2 45.7 400.7 44.8Q401.1 43.9 401.9 43.4Q402.7 42.9 403.8 42.9L403.8 42.9Q404.8 42.9 405.6 43.4Q406.4 43.9 406.8 44.8Q407.3 45.7 407.3 47.0L407.3 47.0Q407.3 48.3 406.8 49.2Q406.4 50.1 405.6 50.6Q404.8 51.1 403.8 51.1ZM403.8 50.2L403.8 50.2Q404.5 50.2 405.1 49.8Q405.6 49.4 406.0 48.7Q406.3 48.0 406.3 47.0L406.3 47.0Q406.3 46.0 406.0 45.3Q405.6 44.6 405.1 44.2Q404.5 43.8 403.8 43.8L403.8 43.8Q403.0 43.8 402.5 44.2Q401.9 44.6 401.5 45.3Q401.2 46.0 401.2 47.0L401.2 47.0Q401.2 48.0 401.5 48.7Q401.9 49.4 402.5 49.8Q403.0 50.2 403.8 50.2ZM415.0 51L413.9 51L413.9 43.0L415.1 43.0L418.4 48.1Q418.5 48.3 418.7 48.6Q418.9 48.9 419.1 49.3L419.1 49.3Q419.2 49.5 419.3 49.8L419.3 49.8Q419.3 49.5 419.3 49.3L419.3 49.3Q419.3 48.9 419.3 48.5Q419.3 48.2 419.3 47.9L419.3 47.9L419.3 43.0L420.3 43.0L420.3 51L419.1 51L416.2 46.4Q416.0 46.1 415.8 45.8Q415.6 45.5 415.3 45.0L415.3 45.0Q415.1 44.7 414.9 44.2L414.9 44.2Q414.9 44.6 414.9 45.0L414.9 45.0Q414.9 45.5 414.9 45.8Q415.0 46.2 415.0 46.4L415.0 46.4L415.0 51ZM429.3 43.9L426.8 43.9L426.8 43.0L432.8 43.0L432.8 43.9L430.3 43.9L430.3 51L429.3 51L429.3 43.9ZM440.3 51L439.3 51L439.3 43.0L442.1 43.0Q443.0 43.0 443.6 43.3Q444.2 43.6 444.5 44.2Q444.8 44.8 444.8 45.5Q444.8 46.2 444.5 46.7Q444.2 47.3 443.6 47.6L443.6 47.6Q443.5 47.7 443.3 47.7L443.3 47.7L445.1 51L443.9 51L442.2 47.9Q442.2 47.9 442.1 47.9L442.1 47.9L440.3 47.9L440.3 51ZM440.3 43.9L440.3 47.0L442.0 47.0Q442.6 47.0 443.0 46.8Q443.4 46.6 443.6 46.3Q443.8 45.9 443.8 45.5L443.8 45.5Q443.8 45.0 443.6 44.6Q443.4 44.3 443.0 44.1Q442.6 43.9 442.0 43.9L442.0 43.9L440.3 43.9ZM451.4 43.0L452.4 43.0L452.4 51L451.4 51L451.4 43.0ZM462.3 51L459.3 51L459.3 43.0L462.2 43.0Q463.0 43.0 463.6 43.3Q464.1 43.6 464.4 44.1Q464.6 44.5 464.6 45.1L464.6 45.1Q464.6 45.6 464.5 46.0Q464.3 46.3 464.0 46.5Q463.7 46.7 463.3 46.8L463.3 46.8L463.3 46.9Q463.7 46.9 464.1 47.1Q464.5 47.4 464.7 47.8Q465.0 48.2 465.0 48.9L465.0 48.9Q465.0 49.5 464.7 50.0Q464.4 50.4 463.8 50.7Q463.2 51 462.3 51L462.3 51ZM460.4 47.4L460.4 50.1L462.3 50.1Q463.2 50.1 463.6 49.7Q464.0 49.4 464.0 48.9L464.0 48.9Q464.0 48.5 463.8 48.1Q463.6 47.8 463.2 47.6Q462.8 47.4 462.3 47.4L462.3 47.4L460.4 47.4ZM460.4 43.9L460.4 46.5L462.1 46.5Q462.6 46.5 462.9 46.3Q463.3 46.2 463.5 45.9Q463.7 45.6 463.7 45.1L463.7 45.1Q463.7 44.6 463.3 44.3Q462.9 43.9 462.2 43.9L462.2 43.9L460.4 43.9ZM474.7 51.1L474.7 51.1Q473.7 51.1 473.0 50.8Q472.3 50.4 471.9 49.7Q471.5 49.1 471.5 48.3L471.5 48.3L471.5 43.0L472.6 43.0L472.6 48.2Q472.6 48.8 472.8 49.2Q473.1 49.7 473.6 49.9Q474.0 50.2 474.7 50.2L474.7 50.2Q475.3 50.2 475.8 49.9Q476.3 49.7 476.5 49.2Q476.8 48.8 476.8 48.2L476.8 48.2L476.8 43.0L477.8 43.0L477.8 48.3Q477.8 49.1 477.4 49.7Q477.0 50.4 476.3 50.8Q475.6 51.1 474.7 51.1ZM486.8 43.9L484.3 43.9L484.3 43.0L490.3 43.0L490.3 43.9L487.8 43.9L487.8 51L486.8 51L486.8 43.9ZM496.8 43.0L497.9 43.0L497.9 51L496.8 51L496.8 43.0ZM508.0 51.1L508.0 51.1Q507.0 51.1 506.2 50.6Q505.4 50.1 504.9 49.2Q504.5 48.3 504.5 47.0L504.5 47.0Q504.5 45.7 504.9 44.8Q505.4 43.9 506.2 43.4Q507.0 42.9 508.0 42.9L508.0 42.9Q509.1 42.9 509.9 43.4Q510.7 43.9 511.1 44.8Q511.6 45.7 511.6 47.0L511.6 47.0Q511.6 48.3 511.1 49.2Q510.7 50.1 509.9 50.6Q509.1 51.1 508.0 51.1ZM508.0 50.2L508.0 50.2Q508.7 50.2 509.3 49.8Q509.9 49.4 510.2 48.7Q510.6 48.0 510.6 47.0L510.6 47.0Q510.6 46.0 510.2 45.3Q509.9 44.6 509.3 44.2Q508.7 43.8 508.0 43.8L508.0 43.8Q507.3 43.8 506.7 44.2Q506.2 44.6 505.8 45.3Q505.5 46.0 505.5 47.0L505.5 47.0Q505.5 48.0 505.8 48.7Q506.2 49.4 506.7 49.8Q507.3 50.2 508.0 50.2ZM519.2 51L518.2 51L518.2 43.0L519.4 43.0L522.7 48.1Q522.8 48.3 523.0 48.6Q523.2 48.9 523.4 49.3L523.4 49.3Q523.5 49.5 523.6 49.8L523.6 49.8Q523.6 49.5 523.6 49.3L523.6 49.3Q523.5 48.9 523.5 48.5Q523.5 48.2 523.5 47.9L523.5 47.9L523.5 43.0L524.6 43.0L524.6 51L523.3 51L520.4 46.4Q520.2 46.1 520.0 45.8Q519.8 45.5 519.6 45.0L519.6 45.0Q519.4 44.7 519.1 44.2L519.1 44.2Q519.2 44.6 519.2 45.0L519.2 45.0Q519.2 45.5 519.2 45.8Q519.2 46.2 519.2 46.4L519.2 46.4L519.2 51ZM534.0 51.1L534.0 51.1Q533.2 51.1 532.5 50.9Q531.9 50.6 531.6 50.1Q531.2 49.6 531.1 48.9L531.1 48.9L532.2 48.9Q532.2 49.4 532.5 49.6Q532.8 49.9 533.2 50.1Q533.6 50.2 534.0 50.2L534.0 50.2Q534.6 50.2 535.0 50.0Q535.5 49.9 535.7 49.5Q536.0 49.2 536.0 48.8L536.0 48.8Q536.0 48.4 535.7 48.2Q535.5 47.9 535.2 47.8Q534.8 47.6 534.4 47.5L534.4 47.5L533.4 47.2Q532.4 47.0 531.9 46.4Q531.4 45.9 531.4 45.1L531.4 45.1Q531.4 44.5 531.7 44.0Q532.1 43.4 532.7 43.2Q533.3 42.9 534.1 42.9L534.1 42.9Q534.9 42.9 535.5 43.2Q536.1 43.4 536.5 43.9Q536.8 44.4 536.8 45.0L536.8 45.0L535.8 45.0Q535.8 44.4 535.3 44.1Q534.8 43.8 534.1 43.8L534.1 43.8Q533.6 43.8 533.2 44.0Q532.8 44.1 532.6 44.4Q532.4 44.7 532.4 45.1L532.4 45.1Q532.4 45.5 532.6 45.8Q532.9 46.0 533.2 46.2Q533.6 46.3 533.9 46.4L533.9 46.4L534.7 46.6Q535.0 46.7 535.4 46.8Q535.8 47.0 536.1 47.2Q536.5 47.5 536.7 47.9Q537.0 48.3 537.0 48.8L537.0 48.8Q537.0 49.5 536.6 50.0Q536.3 50.5 535.6 50.8Q535.0 51.1 534.0 51.1Z "/></g><mask id="satori_ms-id-1-0-2-0" maskUnits="userSpaceOnUse"><rect x="0" y="0" width="860" height="200" fill="#fff"/><path x="551" y="44" width="6" height="6" fill="#000"  stroke-width="0" d="M554,44 h0 a3,3 0 0 1 3,3 v0 a3,3 0 0 1 -3,3 h0 a3,3 0 0 1 -3,-3 v0 a3,3 0 0 1 3,-3" clip-path="url(#satori_cp-id)" mask="url(#satori_om-id)"/></mask><defs><filter id="satori_s-id-1-0-2-0" x="-266.66666666666663%" y="-266.66666666666663%" width="633.3333333333333%" height="633.3333333333333%"><feGaussianBlur stdDeviation="4" result="b"/><feFlood flood-color="rgba(139,92,246,0.6)" in="SourceGraphic" result="f"/><feComposite in="f" in2="b" operator="in"/></filter></defs><g mask="url(#satori_ms-id-1-0-2-0)" filter="url(#satori_s-id-1-0-2-0)" opacity="1"><path x="551" y="44" width="6" height="6" fill="#fff" stroke="#fff" stroke-width="0" d="M554,44 h0 a3,3 0 0 1 3,3 v0 a3,3 0 0 1 -3,3 h0 a3,3 0 0 1 -3,-3 v0 a3,3 0 0 1 3,-3" clip-path="url(#satori_cp-id)" mask="url(#satori_om-id)"/></g><mask id="satori_om-id-1-0-2"><rect x="551" y="44" width="6" height="6" fill="#fff" mask="url(#satori_om-id)"/></mask><path x="551" y="44" width="6" height="6" fill="rgba(139,92,246,0.9)" d="M554,44 h0 a3,3 0 0 1 3,3 v0 a3,3 0 0 1 -3,3 h0 a3,3 0 0 1 -3,-3 v0 a3,3 0 0 1 3,-3" clip-path="url(#satori_cp-id)" mask="url(#satori_om-id)"/><mask id="satori_om-id-1-1"><rect x="349" y="65" width="162" height="66" fill="#fff" mask="url(#satori_om-id)"/></mask><defs><filter id="satori_s-id-1-1-0" x="-1697.53%" y="-4166.67%" width="3505.06%" height="8443.33%"><feDropShadow dx="0" dy="0" stdDeviation="25" flood-color="rgba(0,229,255,0.35)" flood-opacity="1" in="SourceGraphic" result="satori_s-id-1-1-0-result-0"/><feDropShadow dx="0" dy="0" stdDeviation="50" flood-color="rgba(139,92,246,0.2)" flood-opacity="1" in="SourceGraphic" result="satori_s-id-1-1-0-result-1"/><feMerge><feMergeNode in="satori_s-id-1-1-0-result-1"/><feMergeNode in="satori_s-id-1-1-0-result-0"/></feMerge></filter></defs><g filter="url(#satori_s-id-1-1-0)"><g mask="url(#satori_om-id)" clip-path="url(#satori_cp-id)"><path fill="#ffffff" d="M362.6 74.0L373.1 74.0L373.1 122L363.3 122L363.3 82.7L363.0 82.7L352.0 90.5L352.0 81.4L362.6 74.0ZM385.9 134.7L379.3 134.7L382.1 114.7L391.8 114.7L385.9 134.7ZM409.7 122L399.5 122L419.5 82.4L419.5 82.1L396.2 82.1L396.2 74.0L429.8 74.0L429.8 82.2L409.7 122ZM451.4 122.6L451.4 122.6Q445.4 122.6 441.1 119.7Q436.8 116.8 434.5 111.3Q432.2 105.8 432.2 98.0L432.2 98.0Q432.2 90.3 434.5 84.7Q436.8 79.2 441.1 76.3Q445.4 73.3 451.4 73.3L451.4 73.3Q457.5 73.3 461.8 76.3Q466.1 79.2 468.4 84.7Q470.6 90.3 470.6 98.0L470.6 98.0Q470.6 105.8 468.4 111.3Q466.1 116.8 461.8 119.7Q457.5 122.6 451.4 122.6ZM451.4 114.5L451.4 114.5Q454.4 114.5 456.4 112.6Q458.5 110.6 459.5 107.0Q460.6 103.3 460.6 98.0L460.6 98.0Q460.6 92.7 459.5 89.0Q458.5 85.3 456.4 83.4Q454.4 81.5 451.4 81.5L451.4 81.5Q448.5 81.5 446.4 83.4Q444.4 85.4 443.3 89.0Q442.2 92.7 442.2 98.0L442.2 98.0Q442.2 103.3 443.3 107.0Q444.4 110.6 446.4 112.6Q448.5 114.5 451.4 114.5ZM486.3 122L476.1 122L496.1 82.4L496.1 82.1L472.8 82.1L472.8 74.0L506.4 74.0L506.4 82.2L486.3 122Z "/></g></g><mask id="satori_om-id-1-2"><rect x="345" y="145" width="171" height="16" fill="#fff" mask="url(#satori_om-id)"/></mask><g mask="url(#satori_om-id)" clip-path="url(#satori_cp-id)"><path fill="rgba(180,190,255,0.55)" d="M352.5 153.9L352.5 154.7L346.5 157.7L346.5 156.5L351.0 154.3L351.0 154.3L346.5 152.1L346.5 150.9L352.5 153.9Z M360.6 158L359.4 158L359.4 148.5L365.1 148.5L365.1 149.6L360.6 149.6L360.6 152.8L364.7 152.8L364.7 153.9L360.6 153.9L360.6 158ZM370.4 158.2L370.4 158.2Q369.4 158.2 368.6 157.7Q367.9 157.2 367.5 156.4Q367.1 155.6 367.1 154.5Q367.1 153.4 367.5 152.6Q367.9 151.8 368.6 151.3Q369.3 150.8 370.3 150.8L370.3 150.8Q370.8 150.8 371.4 151.0Q371.9 151.2 372.4 151.6Q372.8 152.0 373.1 152.7Q373.4 153.4 373.4 154.4L373.4 154.4L373.4 154.8L368.2 154.8Q368.3 155.5 368.5 156.0L368.5 156.0Q368.8 156.6 369.3 156.9Q369.8 157.1 370.4 157.1L370.4 157.1Q370.8 157.1 371.2 157.0Q371.5 156.9 371.8 156.7Q372.0 156.4 372.2 156.0L372.2 156.0L373.3 156.3Q373.1 156.9 372.7 157.3Q372.3 157.7 371.7 157.9Q371.1 158.2 370.4 158.2ZM368.3 153.9L368.3 153.9L372.2 153.9Q372.2 153.4 372.0 153.0L372.0 153.0Q371.8 152.4 371.4 152.1Q370.9 151.8 370.3 151.8Q369.6 151.8 369.2 152.1Q368.7 152.5 368.5 153.0L368.5 153.0Q368.3 153.4 368.3 153.9ZM378.8 158.2L378.8 158.2Q378.1 158.2 377.7 157.9Q377.3 157.7 377.1 157.4Q376.9 157.1 376.7 156.9L376.7 156.9L376.6 156.9L376.6 158L375.5 158L375.5 148.5L376.7 148.5L376.7 152.0L376.7 152.0Q376.9 151.8 377.1 151.6Q377.3 151.3 377.7 151.0Q378.1 150.8 378.8 150.8L378.8 150.8Q379.7 150.8 380.4 151.3Q381.0 151.7 381.4 152.5Q381.8 153.3 381.8 154.5L381.8 154.5Q381.8 155.6 381.4 156.4Q381.0 157.3 380.4 157.7Q379.7 158.2 378.8 158.2ZM378.6 157.1L378.6 157.1Q379.3 157.1 379.8 156.8Q380.2 156.4 380.4 155.8Q380.6 155.2 380.6 154.5L380.6 154.5Q380.6 153.7 380.4 153.1Q380.2 152.5 379.8 152.2Q379.3 151.8 378.6 151.8L378.6 151.8Q378.0 151.8 377.5 152.2Q377.1 152.5 376.9 153.1Q376.6 153.7 376.6 154.5L376.6 154.5Q376.6 155.2 376.9 155.8Q377.1 156.5 377.5 156.8Q378.0 157.1 378.6 157.1Z M394.1 158L388.1 158L388.1 157.1L391.2 153.7Q391.8 153.2 392.1 152.7Q392.5 152.3 392.6 151.9Q392.8 151.5 392.8 151.1L392.8 151.1Q392.8 150.6 392.6 150.2Q392.4 149.8 392.0 149.7Q391.6 149.5 391.0 149.5L391.0 149.5Q390.5 149.5 390.1 149.7Q389.7 149.9 389.5 150.3Q389.3 150.7 389.3 151.2L389.3 151.2L388.1 151.2Q388.1 150.4 388.5 149.8Q388.9 149.1 389.6 148.8Q390.2 148.4 391.1 148.4L391.1 148.4Q391.9 148.4 392.6 148.8Q393.2 149.1 393.6 149.7Q394.0 150.3 394.0 151.1L394.0 151.1Q394.0 151.6 393.8 152.1Q393.6 152.5 393.1 153.2Q392.7 153.8 391.8 154.7L391.8 154.7L389.8 156.9L389.8 156.9L394.1 156.9L394.1 158ZM399.6 158.1L399.6 158.1Q398.7 158.1 397.9 157.8Q397.2 157.5 396.8 156.9Q396.4 156.4 396.3 155.6L396.3 155.6L397.6 155.6Q397.6 156.1 397.9 156.4Q398.1 156.7 398.6 156.9Q399.0 157.1 399.6 157.1L399.6 157.1Q400.2 157.1 400.6 156.9Q401.1 156.7 401.4 156.3Q401.6 155.9 401.6 155.4L401.6 155.4Q401.6 154.9 401.4 154.5Q401.1 154.1 400.6 153.9Q400.1 153.7 399.4 153.7L399.4 153.7L398.7 153.7L398.7 152.6L399.4 152.6Q400.0 152.6 400.4 152.4Q400.8 152.2 401.1 151.9Q401.3 151.5 401.3 151.0L401.3 151.0Q401.3 150.5 401.1 150.2Q400.9 149.8 400.5 149.7Q400.1 149.5 399.6 149.5L399.6 149.5Q399.1 149.5 398.7 149.6Q398.3 149.8 398.0 150.1Q397.7 150.5 397.7 150.9L397.7 150.9L396.6 150.9Q396.6 150.2 397.0 149.6Q397.4 149.0 398.1 148.7Q398.8 148.4 399.6 148.4L399.6 148.4Q400.5 148.4 401.1 148.8Q401.8 149.1 402.1 149.7Q402.5 150.3 402.5 151.0L402.5 151.0Q402.5 151.8 402.0 152.3Q401.6 152.9 400.9 153.1L400.9 153.1L400.9 153.2Q401.5 153.3 401.9 153.6Q402.4 153.9 402.6 154.4Q402.8 154.8 402.8 155.4L402.8 155.4Q402.8 156.2 402.4 156.8Q402.0 157.4 401.2 157.8Q400.5 158.1 399.6 158.1ZM405.5 160.3L404.6 160.3L405.2 156.7L406.5 156.7L405.5 160.3Z M419.5 158L413.5 158L413.5 157.1L416.6 153.7Q417.1 153.2 417.5 152.7Q417.8 152.3 418.0 151.9Q418.2 151.5 418.2 151.1L418.2 151.1Q418.2 150.6 418.0 150.2Q417.7 149.8 417.3 149.7Q416.9 149.5 416.4 149.5L416.4 149.5Q415.9 149.5 415.5 149.7Q415.1 149.9 414.9 150.3Q414.6 150.7 414.6 151.2L414.6 151.2L413.5 151.2Q413.5 150.4 413.9 149.8Q414.3 149.1 414.9 148.8Q415.6 148.4 416.4 148.4L416.4 148.4Q417.3 148.4 417.9 148.8Q418.6 149.1 419.0 149.7Q419.3 150.3 419.3 151.1L419.3 151.1Q419.3 151.6 419.1 152.1Q419.0 152.5 418.5 153.2Q418.0 153.8 417.2 154.7L417.2 154.7L415.1 156.9L415.1 156.9L419.5 156.9L419.5 158ZM425.0 158.1L425.0 158.1Q424.0 158.1 423.2 157.6Q422.5 157.0 422.1 155.9Q421.7 154.8 421.7 153.3L421.7 153.3Q421.7 151.7 422.1 150.7Q422.5 149.6 423.2 149.0Q424.0 148.4 425.0 148.4L425.0 148.4Q426.1 148.4 426.8 149.0Q427.6 149.6 427.9 150.7Q428.3 151.7 428.3 153.3L428.3 153.3Q428.3 154.8 428.0 155.9Q427.6 157.0 426.8 157.6Q426.1 158.1 425.0 158.1ZM425.0 157.1L425.0 157.1Q425.7 157.1 426.2 156.6Q426.7 156.2 426.9 155.3Q427.2 154.5 427.2 153.3L427.2 153.3Q427.2 152.1 426.9 151.2Q426.7 150.4 426.2 149.9Q425.7 149.5 425.0 149.5L425.0 149.5Q424.3 149.5 423.8 149.9Q423.4 150.4 423.1 151.2Q422.9 152.1 422.9 153.3L422.9 153.3Q422.9 154.5 423.1 155.3Q423.4 156.2 423.8 156.6Q424.3 157.1 425.0 157.1ZM432.3 148.5L433.8 148.5L433.8 158L432.6 158L432.6 149.7L432.5 149.7L430.2 151.4L430.2 150.1L432.3 148.5ZM439.2 158.1L439.2 158.1Q438.4 158.1 437.8 157.8Q437.2 157.5 436.8 156.9Q436.4 156.3 436.3 155.6L436.3 155.6L437.4 155.6Q437.6 156.2 438.0 156.6Q438.5 157.1 439.2 157.1L439.2 157.1Q440.0 157.1 440.5 156.6Q441.0 156.2 441.3 155.4Q441.6 154.6 441.6 153.5L441.6 153.5L441.5 153.5Q441.2 153.8 440.9 154.1Q440.5 154.4 440.1 154.6Q439.6 154.7 439.2 154.7L439.2 154.7Q438.3 154.7 437.7 154.3Q437.0 153.9 436.6 153.2Q436.2 152.5 436.2 151.6L436.2 151.6Q436.2 150.7 436.6 150.0Q437.0 149.3 437.7 148.8Q438.4 148.4 439.4 148.4L439.4 148.4Q440.0 148.4 440.6 148.6Q441.1 148.9 441.6 149.4Q442.1 149.9 442.4 150.7Q442.7 151.6 442.7 152.9L442.7 152.9Q442.7 154.2 442.5 155.1Q442.2 156.1 441.8 156.8Q441.3 157.4 440.7 157.8Q440.0 158.1 439.2 158.1ZM439.3 153.7L439.3 153.7Q439.8 153.7 440.1 153.5Q440.5 153.3 440.8 153.0Q441.1 152.7 441.2 152.4Q441.4 152.0 441.4 151.6L441.4 151.6Q441.4 151.0 441.1 150.5Q440.9 150.1 440.4 149.8Q440.0 149.5 439.4 149.5L439.4 149.5Q438.8 149.5 438.3 149.8Q437.9 150.0 437.6 150.5Q437.4 151.0 437.4 151.6L437.4 151.6Q437.4 152.2 437.6 152.6Q437.9 153.1 438.3 153.4Q438.8 153.7 439.3 153.7Z M450.5 150.9L451.9 150.9L451.9 151.9L450.5 151.9L450.5 156.2Q450.5 156.6 450.7 156.9Q450.8 157.1 451.3 157.1L451.3 157.1Q451.4 157.1 451.6 157.0Q451.7 157.0 451.9 157.0L451.9 157.0L452.1 158.0Q451.9 158.0 451.7 158.1Q451.5 158.1 451.3 158.1L451.3 158.1Q450.3 158.1 449.8 157.6Q449.3 157.1 449.3 156.2L449.3 156.2L449.3 151.9L448.2 151.9L448.2 150.9L449.3 150.9L449.3 149.2L450.5 149.2L450.5 150.9ZM456.8 158.2L456.8 158.2Q455.8 158.2 455.1 157.7Q454.3 157.2 453.9 156.4Q453.5 155.6 453.5 154.5L453.5 154.5Q453.5 153.4 453.9 152.6Q454.3 151.7 455.1 151.3Q455.8 150.8 456.8 150.8L456.8 150.8Q457.7 150.8 458.5 151.3Q459.2 151.7 459.6 152.6Q460.0 153.4 460.0 154.5L460.0 154.5Q460.0 155.6 459.6 156.4Q459.2 157.2 458.5 157.7Q457.7 158.2 456.8 158.2ZM456.8 157.1L456.8 157.1Q457.5 157.1 457.9 156.8Q458.4 156.4 458.6 155.8Q458.9 155.2 458.9 154.5L458.9 154.5Q458.9 153.8 458.6 153.2Q458.4 152.6 457.9 152.2Q457.5 151.8 456.8 151.8L456.8 151.8Q456.1 151.8 455.6 152.2Q455.1 152.6 454.9 153.2Q454.7 153.8 454.7 154.5L454.7 154.5Q454.7 155.2 454.9 155.8Q455.1 156.4 455.6 156.8Q456.1 157.1 456.8 157.1Z M467.7 158L466.5 158L466.5 148.5L469.7 148.5Q470.8 148.5 471.5 148.9Q472.2 149.3 472.6 150.0Q472.9 150.7 472.9 151.6Q472.9 152.4 472.6 153.1Q472.2 153.8 471.5 154.2Q470.8 154.6 469.7 154.6L469.7 154.6L467.7 154.6L467.7 158ZM467.7 149.6L467.7 153.5L469.7 153.5Q470.4 153.5 470.9 153.3Q471.3 153.0 471.5 152.6Q471.7 152.1 471.7 151.6Q471.7 151.0 471.5 150.6Q471.3 150.1 470.9 149.9Q470.4 149.6 469.6 149.6L469.6 149.6L467.7 149.6ZM476.3 158L475.1 158L475.1 150.9L476.2 150.9L476.2 152.0L476.3 152.0Q476.5 151.5 477.0 151.1Q477.5 150.8 478.2 150.8L478.2 150.8Q478.3 150.8 478.5 150.8Q478.6 150.8 478.7 150.8L478.7 150.8L478.7 152.0Q478.7 152.0 478.5 151.9Q478.3 151.9 478.0 151.9L478.0 151.9Q477.5 151.9 477.1 152.1Q476.7 152.3 476.5 152.7Q476.3 153.1 476.3 153.6L476.3 153.6L476.3 158ZM483.5 158.2L483.5 158.2Q482.5 158.2 481.7 157.7Q481.0 157.2 480.6 156.4Q480.2 155.6 480.2 154.5Q480.2 153.4 480.6 152.6Q481.0 151.8 481.7 151.3Q482.4 150.8 483.4 150.8L483.4 150.8Q483.9 150.8 484.5 151.0Q485.0 151.2 485.5 151.6Q485.9 152.0 486.2 152.7Q486.5 153.4 486.5 154.4L486.5 154.4L486.5 154.8L481.3 154.8Q481.4 155.5 481.6 156.0L481.6 156.0Q481.9 156.6 482.4 156.9Q482.9 157.1 483.5 157.1L483.5 157.1Q483.9 157.1 484.3 157.0Q484.6 156.9 484.9 156.7Q485.1 156.4 485.2 156.0L485.2 156.0L486.4 156.3Q486.2 156.9 485.8 157.3Q485.4 157.7 484.8 157.9Q484.2 158.2 483.5 158.2ZM481.3 153.9L481.3 153.9L485.3 153.9Q485.3 153.4 485.1 153.0L485.1 153.0Q484.9 152.4 484.4 152.1Q484.0 151.8 483.4 151.8Q482.7 151.8 482.3 152.1Q481.8 152.5 481.6 153.0L481.6 153.0Q481.4 153.4 481.3 153.9ZM491.0 158.2L491.0 158.2Q490.3 158.2 489.7 157.9Q489.1 157.7 488.8 157.3Q488.4 156.9 488.3 156.3L488.3 156.3L489.4 156.0Q489.5 156.6 489.9 156.9Q490.4 157.1 491.0 157.1L491.0 157.1Q491.7 157.1 492.2 156.8Q492.6 156.5 492.6 156.1L492.6 156.1Q492.6 155.7 492.4 155.5Q492.1 155.2 491.6 155.1L491.6 155.1L490.4 154.8Q489.4 154.6 489.0 154.1Q488.5 153.6 488.5 152.9L488.5 152.9Q488.5 152.3 488.8 151.8Q489.2 151.3 489.8 151.1Q490.4 150.8 491.1 150.8L491.1 150.8Q491.9 150.8 492.4 151.0Q492.9 151.3 493.2 151.6Q493.5 152.0 493.7 152.5L493.7 152.5L492.6 152.8Q492.5 152.4 492.2 152.1Q491.8 151.8 491.1 151.8L491.1 151.8Q490.5 151.8 490.1 152.1Q489.7 152.4 489.7 152.8L489.7 152.8Q489.7 153.2 489.9 153.4Q490.2 153.7 490.9 153.8L490.9 153.8L491.9 154.1Q492.9 154.3 493.4 154.8Q493.8 155.3 493.8 156.0L493.8 156.0Q493.8 156.6 493.5 157.1Q493.1 157.6 492.5 157.9Q491.8 158.2 491.0 158.2ZM498.9 158.2L498.9 158.2Q497.9 158.2 497.2 157.7Q496.4 157.2 496.0 156.4Q495.6 155.6 495.6 154.5Q495.6 153.4 496.0 152.6Q496.4 151.8 497.1 151.3Q497.9 150.8 498.8 150.8L498.8 150.8Q499.4 150.8 499.9 151.0Q500.5 151.2 500.9 151.6Q501.4 152.0 501.6 152.7Q501.9 153.4 501.9 154.4L501.9 154.4L501.9 154.8L496.8 154.8Q496.8 155.5 497.1 156.0L497.1 156.0Q497.3 156.6 497.8 156.9Q498.3 157.1 499.0 157.1L499.0 157.1Q499.4 157.1 499.7 157.0Q500.1 156.9 500.3 156.7Q500.6 156.4 500.7 156.0L500.7 156.0L501.8 156.3Q501.6 156.9 501.2 157.3Q500.8 157.7 500.3 157.9Q499.7 158.2 498.9 158.2ZM496.8 153.9L496.8 153.9L500.7 153.9Q500.7 153.4 500.5 153.0L500.5 153.0Q500.3 152.4 499.9 152.1Q499.5 151.8 498.8 151.8Q498.2 151.8 497.7 152.1Q497.3 152.5 497.0 153.0L497.0 153.0Q496.8 153.4 496.8 153.9ZM505.2 153.7L505.2 153.7L505.2 158L504.0 158L504.0 150.9L505.1 150.9L505.1 152.2Q505.4 151.6 505.9 151.2L505.9 151.2Q506.5 150.8 507.3 150.8L507.3 150.8Q508.0 150.8 508.6 151.1Q509.1 151.4 509.4 152.0Q509.7 152.6 509.7 153.5L509.7 153.5L509.7 158L508.6 158L508.6 153.6Q508.6 152.8 508.1 152.3Q507.7 151.8 507.0 151.8L507.0 151.8Q506.5 151.8 506.1 152.1Q505.7 152.3 505.4 152.7Q505.2 153.1 505.2 153.7ZM513.6 150.9L515.0 150.9L515.0 151.9L513.6 151.9L513.6 156.2Q513.6 156.6 513.8 156.9Q513.9 157.1 514.4 157.1L514.4 157.1Q514.5 157.1 514.7 157.0Q514.8 157.0 515.0 157.0L515.0 157.0L515.2 158.0Q515.0 158.0 514.8 158.1Q514.6 158.1 514.4 158.1L514.4 158.1Q513.4 158.1 512.9 157.6Q512.4 157.1 512.4 156.2L512.4 156.2L512.4 151.9L511.3 151.9L511.3 150.9L512.4 150.9L512.4 149.2L513.6 149.2L513.6 150.9Z "/></g></svg>