<!-- Generated by readme-aura https://github.com/collectioneur/readme-aura -->
<svg width="860" height="80" viewBox="0 0 860 80" xmlns="http://www.w3.org/2000/svg"><defs><clipPath id="satori_bc-id"><path x="0" y="0" width="860" height="80" d="M16,0 h828 a16,16 0 0 1 16,16 v48 a16,16 0 0 1 -16,16 h-828 a16,16 0 0 1 -16,-16 v-48 a16,16 0 0 1 16,-16"/></clipPath></defs><clipPath id="satori_cp-id"><path x="0" y="0" width="860" height="80" d="M16,0 h828 a16,16 0 0 1 16,16 v48 a16,16 0 0 1 -16,16 h-828 a16,16 0 0 1 -16,-16 v-48 a16,16 0 0 1 16,-16"/></clipPath><mask id="satori_om-id"><rect x="1" y="1" width="858" height="78" fill="#fff"/><path width="860" height="80" fill="none" stroke="#000" stroke-width="2" d="M4.686,4.686 A16,16 0 0 1 16,0 h828 a16,16 0 0 1 16,16 v48 a16,16 0 0 1 -16,16 h-828 a16,16 0 0 1 -16,-16 v-48 A16,16 0 0 1 4.686,4.686"/></mask><path x="0" y="0" width="860" height="80" fill="#06060a" d="M16,0 h828 a16,16 0 0 1 16,16 v48 a16,16 0 0 1 -16,16 h-828 a16,16 0 0 1 -16,-16 v-48 a16,16 0 0 1 16,-16"/><path width="860" height="80" clip-path="url(#satori_bc-id)" fill="none" stroke="rgba(0,229,255,0.05)" stroke-width="2" d="M4.686,4.686 A16,16 0 0 1 16,0 h828 a16,16 0 0 1 16,16 v48 a16,16 0 0 1 -16,16 h-828 a16,16 0 0 1 -16,-16 v-48 A16,16 0 0 1 4.686,4.686"/><clipPath id="satori_cp-id-0" clip-path="url(#satori_cp-id)"><rect x="1" y="1" width="860" height="80"/></clipPath><mask id="satori_om-id-0"><rect x="1" y="1" width="860" height="80" fill="#fff" mask="url(#satori_om-id)"/></mask><svg x="1" y="1" width="860" height="80" preserveAspectRatio="none" clip-path="url(#satori_cp-id-0)" mask="url(#satori_om-id-0)"><defs><linearGradient id="fsg" x1="0" y1="0" x2="0" y2="1"><stop offset="0%" stop-color="rgba(0,229,255,0)"></stop><stop offset="45%" stop-color="rgba(0,229,255,0.03)"></stop><stop offset="50%" stop-color="rgba(0,229,255,0.08)"></stop><stop offset="55%" stop-color="rgba(0,229,255,0.03)"></stop><stop offset="100%" stop-color="rgba(0,229,255,0)"></stop></linearGradient><radialGradient id="ftg1" cx="50%" cy="50%" r="50%"><stop offset="0%" stop-color="rgba(139,92,246,0.25)"></stop><stop offset="100%" stop-color="rgba(139,92,246,0)"></stop></radialGradient></defs><line x1="0" y1="1" x2="860" y2="1" stroke="rgba(0,229,255,0.06)" stroke-width="1"></line><ellipse id="ftorb1" cx="430" cy="40" rx="300" ry="60" fill="url(#ftg1)"></ellipse><rect id="ftscan" x="0" y="0" width="860" height="80" fill="url(#fsg)"></rect><style>

    @keyframes ft-scan { 0% { transform: translateY(-80px); } 100% { transform: translateY(80px); } }
    @keyframes ft-pulse { 0%, 100% { opacity: 0.3; } 50% { opacity: 0.7; } }
    @keyframes ft-orb { 0%, 100% { transform: translate(0,0); opacity: 0.25; } 50% { transform: translate(30px,-10px); opacity: 0.45; } }
    #ftscan { animation: ft-scan 4s linear infinite; }
    #ftd1 { animation: ft-pulse 3s ease-in-out infinite; }
    #ftd2 { animation: ft-pulse 3s ease-in-out infinite 1s; }
    #ftd3 { animation: ft-pulse 3s ease-in-out infinite 2s; }
    #ftorb1 { animation: ft-orb 8s ease-in-out infinite; }
  
</style>
</svg><mask id="satori_om-id-0-0"><rect x="1" y="1" width="0" height="80" fill="#fff" mask="url(#satori_om-id)"/></mask><mask id="satori_om-id-0-0-0"><rect x="1" y="1" width="0" height="80" fill="#fff" mask="url(#satori_om-id)"/></mask><mask id="satori_om-id-0-0-0-0"><rect x="1" y="1" width="0" height="80" fill="#fff" mask="url(#satori_om-id)"/></mask><mask id="satori_om-id-0-0-0-1"><rect x="1" y="1" width="0" height="80" fill="#fff" mask="url(#satori_om-id)"/></mask><mask id="satori_om-id-0-0-0-2"><rect x="1" y="1" width="0" height="80" fill="#fff" mask="url(#satori_om-id)"/></mask><mask id="satori_om-id-0-0-0-3"><rect x="1" y="1" width="0" height="80" fill="#fff" mask="url(#satori_om-id)"/></mask><mask id="satori_om-id-0-0-0-4"><rect x="1" y="1" width="0" height="80" fill="#fff" mask="url(#satori_om-id)"/></mask><mask id="satori_om-id-0-0-1"><rect x="1" y="1" width="0" height="80" fill="#fff" mask="url(#satori_om-id)"/></mask><mask id="satori_om-id-0-0-1-0"><rect x="1" y="1" width="0" height="80" fill="#fff" mask="url(#satori_om-id)"/></mask><mask id="satori_om-id-0-0-1-1"><rect x="1" y="1" width="0" height="80" fill="#fff" mask="url(#satori_om-id)"/></mask><mask id="satori_om-id-0-1"><rect x="1" y="1" width="0" height="80" fill="#fff" mask="url(#satori_om-id)"/></mask><mask id="satori_om-id-0-2"><rect x="1" y="1" width="0" height="80" fill="#fff" mask="url(#satori_om-id)"/></mask><mask id="satori_om-id-0-3"><rect x="1" y="1" width="0" height="80" fill="#fff" mask="url(#satori_om-id)"/></mask><mask id="satori_om-id-1"><rect x="418" y="28" width="24" height="4" fill="#fff" mask="url(#satori_om-id)"/></mask><mask id="satori_om-id-1-0"><rect x="418" y="28" width="4" height="4" fill="#fff" mask="url(#satori_om-id)"/></mask><path x="418" y="28" width="4" height="4" fill="rgba(0,229,255,0.6)" d="M420,28 h0 a2,2 0 0 1 2,2 v0 a2,2 0 0 1 -2,2 h0 a2,2 0 0 1 -2,-2 v0 a2,2 0 0 1 2,-2" clip-path="url(#satori_cp-id)" mask="url(#satori_om-id)"/><mask id="satori_om-id-1-1"><rect x="428" y="28" width="4" height="4" fill="#fff" mask="url(#satori_om-id)"/></mask><path x="428" y="28" width="4" height="4" fill="rgba(139,92,246,0.6)" d="M430,28 h0 a2,2 0 0 1 2,2 v0 a2,2 0 0 1 -2,2 h0 a2,2 0 0 1 -2,-2 v0 a2,2 0 0 1 2,-2" clip-path="url(#satori_cp-id)" mask="url(#satori_om-id)"/><mask id="satori_om-id-1-2"><rect x="438" y="28" width="4" height="4" fill="#fff" mask="url(#satori_om-id)"/></mask><path x="438" y="28" width="4" height="4" fill="rgba(236,72,153,0.6)" d="M440,28 h0 a2,2 0 0 1 2,2 v0 a2,2 0 0 1 -2,2 h0 a2,2 0 0 1 -2,-2 v0 a2,2 0 0 1 2,-2" clip-path="url(#satori_cp-id)" mask="url(#satori_om-id)"/><mask id="satori_om-id-2"><rect x="205" y="40" width="451" height="13" fill="#fff" mask="url(#satori_om-id)"/></mask><g mask="url(#satori_om-id)" clip-path="url(#satori_cp-id)"><path fill="rgba(255,255,255,0.20)" d="M208.1 51.1L208.1 51.1Q207.4 51.1 206.8 50.7Q206.2 50.4 205.9 49.7Q205.6 49.0 205.6 48.0L205.6 48.0Q205.6 47.1 205.9 46.4Q206.2 45.7 206.8 45.3Q207.4 44.9 208.1 44.9L208.1 44.9Q208.7 44.9 209.0 45.1Q209.4 45.3 209.6 45.6Q209.7 45.8 209.8 46.0L209.8 46.0L209.9 46.0L209.9 43.0L210.9 43.0L210.9 51L210.0 51L210.0 50.1L209.8 50.1Q209.7 50.2 209.6 50.5Q209.4 50.7 209.0 50.9Q208.7 51.1 208.1 51.1ZM208.2 50.3L208.2 50.3Q208.8 50.3 209.2 50.0Q209.5 49.7 209.7 49.2Q209.9 48.7 209.9 48.0L209.9 48.0Q209.9 47.3 209.7 46.8Q209.5 46.3 209.2 46.1Q208.8 45.8 208.2 45.8L208.2 45.8Q207.7 45.8 207.3 46.1Q206.9 46.4 206.7 46.9Q206.5 47.4 206.5 48.0L206.5 48.0Q206.5 48.6 206.7 49.1Q206.9 49.7 207.3 50.0Q207.7 50.3 208.2 50.3ZM217.3 51.1L217.3 51.1Q216.7 51.1 216.2 50.9Q215.8 50.7 215.5 50.3Q215.2 49.9 215.2 49.3L215.2 49.3Q215.2 48.8 215.4 48.5Q215.6 48.1 216.0 47.9Q216.3 47.8 216.7 47.7Q217.1 47.6 217.6 47.5L217.6 47.5Q218.1 47.5 218.4 47.4Q218.8 47.4 218.9 47.3Q219.1 47.2 219.1 47.0L219.1 47.0L219.1 46.9Q219.1 46.6 219.0 46.3Q218.8 46.0 218.5 45.9Q218.3 45.8 217.8 45.8L217.8 45.8Q217.4 45.8 217.1 45.9Q216.8 46.0 216.6 46.2Q216.4 46.4 216.3 46.6L216.3 46.6L215.4 46.3Q215.6 45.8 216.0 45.5Q216.4 45.2 216.9 45.0Q217.4 44.9 217.8 44.9L217.8 44.9Q218.1 44.9 218.5 45.0Q218.9 45.1 219.2 45.3Q219.6 45.5 219.8 45.9Q220.1 46.3 220.1 47.0L220.1 47.0L220.1 51L219.1 51L219.1 50.2L219.0 50.2Q218.9 50.4 218.7 50.6Q218.5 50.8 218.1 51.0Q217.8 51.1 217.3 51.1ZM217.4 50.3L217.4 50.3Q218.0 50.3 218.3 50.1Q218.7 49.9 218.9 49.5Q219.1 49.2 219.1 48.8L219.1 48.8L219.1 48.0Q219.0 48.1 218.8 48.1Q218.6 48.2 218.4 48.2Q218.1 48.3 217.9 48.3Q217.7 48.3 217.5 48.3L217.5 48.3Q217.2 48.4 216.9 48.5Q216.6 48.6 216.4 48.8Q216.2 49.0 216.2 49.3L216.2 49.3Q216.2 49.7 216.4 49.9Q216.5 50.1 216.8 50.2Q217.1 50.3 217.4 50.3ZM225.7 47.4L225.7 47.4L225.7 51L224.8 51L224.8 45.0L225.7 45.0L225.7 46.1Q225.9 45.5 226.3 45.3L226.3 45.3Q226.9 44.9 227.5 44.9L227.5 44.9Q228.1 44.9 228.6 45.2Q229.1 45.4 229.3 45.9Q229.6 46.4 229.6 47.2L229.6 47.2L229.6 51L228.6 51L228.6 47.3Q228.6 46.6 228.2 46.2Q227.9 45.8 227.2 45.8L227.2 45.8Q226.8 45.8 226.5 46.0Q226.1 46.2 225.9 46.5Q225.7 46.9 225.7 47.4ZM235.2 51L234.3 51L234.3 45.0L235.2 45.0L235.2 51ZM234.7 44.0L234.7 44.0Q234.5 44.0 234.3 43.8Q234.1 43.6 234.1 43.4L234.1 43.4Q234.1 43.1 234.3 42.9Q234.5 42.7 234.7 42.7L234.7 42.7Q235.0 42.7 235.2 42.9Q235.4 43.1 235.4 43.4L235.4 43.4Q235.4 43.6 235.2 43.8Q235.0 44.0 234.7 44.0ZM239.8 53.2L239.8 53.2L240.1 52.3L240.2 52.4Q240.5 52.4 240.7 52.4Q241.0 52.4 241.1 52.2Q241.3 52.0 241.5 51.5L241.5 51.5L241.7 51.0L239.4 45.0L240.4 45.0L241.7 48.6Q241.9 49.1 242.0 49.7L242.0 49.7Q242.1 49.9 242.2 50.1L242.2 50.1Q242.2 49.9 242.3 49.7L242.3 49.7Q242.4 49.1 242.6 48.6L242.6 48.6L243.9 45.0L245.0 45.0L242.3 51.9Q242.1 52.4 241.9 52.7Q241.6 53.0 241.3 53.1Q241.0 53.3 240.5 53.3L240.5 53.3Q240.3 53.3 240.1 53.3Q239.9 53.2 239.8 53.2ZM250.8 51.1L250.8 51.1Q250.2 51.1 249.8 50.9Q249.3 50.7 249.0 50.3Q248.7 49.9 248.7 49.3L248.7 49.3Q248.7 48.8 248.9 48.5Q249.1 48.1 249.5 47.9Q249.8 47.8 250.2 47.7Q250.7 47.6 251.1 47.5L251.1 47.5Q251.6 47.5 252.0 47.4Q252.3 47.4 252.5 47.3Q252.6 47.2 252.6 47.0L252.6 47.0L252.6 46.9Q252.6 46.6 252.5 46.3Q252.3 46.0 252.1 45.9Q251.8 45.8 251.4 45.8L251.4 45.8Q250.9 45.8 250.6 45.9Q250.3 46.0 250.1 46.2Q249.9 46.4 249.8 46.6L249.8 46.6L248.9 46.3Q249.1 45.8 249.5 45.5Q249.9 45.2 250.4 45.0Q250.9 44.9 251.3 44.9L251.3 44.9Q251.6 44.9 252.0 45.0Q252.4 45.1 252.8 45.3Q253.1 45.5 253.4 45.9Q253.6 46.3 253.6 47.0L253.6 47.0L253.6 51L252.6 51L252.6 50.2L252.6 50.2Q252.5 50.4 252.2 50.6Q252.0 50.8 251.7 51.0Q251.3 51.1 250.8 51.1ZM251.0 50.3L251.0 50.3Q251.5 50.3 251.9 50.1Q252.2 49.9 252.4 49.5Q252.6 49.2 252.6 48.8L252.6 48.8L252.6 48.0Q252.6 48.1 252.4 48.1Q252.2 48.2 251.9 48.2Q251.7 48.3 251.4 48.3Q251.2 48.3 251.0 48.3L251.0 48.3Q250.7 48.4 250.4 48.5Q250.1 48.6 249.9 48.8Q249.7 49.0 249.7 49.3L249.7 49.3Q249.7 49.7 249.9 49.9Q250.0 50.1 250.3 50.2Q250.6 50.3 251.0 50.3ZM259.2 51L258.3 51L258.3 45.0L259.2 45.0L259.2 45.9L259.3 45.9Q259.4 45.5 259.9 45.2Q260.3 44.9 260.8 44.9L260.8 44.9Q260.9 44.9 261.1 44.9Q261.2 44.9 261.3 44.9L261.3 44.9L261.3 45.9Q261.3 45.9 261.1 45.9Q260.9 45.8 260.7 45.8L260.7 45.8Q260.3 45.8 260.0 46.0Q259.6 46.2 259.4 46.5Q259.2 46.8 259.2 47.2L259.2 47.2L259.2 51Z M271.4 53.2L271.4 53.2L271.7 52.3L271.8 52.4Q272.1 52.4 272.3 52.4Q272.5 52.4 272.7 52.2Q272.9 52.0 273.1 51.5L273.1 51.5L273.3 51.0L271.0 45.0L272.0 45.0L273.3 48.6Q273.5 49.1 273.6 49.7L273.6 49.7Q273.7 49.9 273.8 50.1L273.8 50.1Q273.8 49.9 273.9 49.7L273.9 49.7Q274.0 49.1 274.2 48.6L274.2 48.6L275.5 45.0L276.6 45.0L273.9 51.9Q273.7 52.4 273.5 52.7Q273.2 53.0 272.9 53.1Q272.6 53.3 272.1 53.3L272.1 53.3Q271.9 53.3 271.7 53.3Q271.5 53.2 271.4 53.2ZM283.2 51.1L283.2 51.1Q282.4 51.1 281.7 50.7Q281.1 50.4 280.8 49.7Q280.4 49.0 280.4 48.0Q280.4 47.1 280.7 46.4Q281.1 45.7 281.7 45.3Q282.3 44.9 283.1 44.9L283.1 44.9Q283.6 44.9 284.1 45.1Q284.5 45.2 284.9 45.6Q285.3 45.9 285.5 46.5Q285.7 47.1 285.7 47.9L285.7 47.9L285.7 48.3L281.4 48.3Q281.4 48.9 281.6 49.3L281.6 49.3Q281.8 49.8 282.3 50.0Q282.7 50.3 283.2 50.3L283.2 50.3Q283.6 50.3 283.9 50.2Q284.2 50.1 284.4 49.9Q284.6 49.7 284.7 49.3L284.7 49.3L285.6 49.6Q285.5 50.1 285.2 50.4Q284.8 50.7 284.3 50.9Q283.8 51.1 283.2 51.1ZM281.4 47.5L281.4 47.5L284.7 47.5Q284.7 47.1 284.6 46.8L284.6 46.8Q284.4 46.3 284.0 46.0Q283.7 45.8 283.1 45.8Q282.6 45.8 282.2 46.0Q281.8 46.3 281.6 46.7L281.6 46.7Q281.4 47.1 281.4 47.5ZM292.5 53.4L292.5 53.4Q291.9 53.4 291.4 53.2Q290.9 53.0 290.6 52.8Q290.3 52.5 290.1 52.1L290.1 52.1L290.9 51.6Q291.0 51.8 291.2 52.0Q291.4 52.2 291.7 52.4Q292.0 52.5 292.5 52.5L292.5 52.5Q293.3 52.5 293.7 52.2Q294.2 51.8 294.2 51.1L294.2 51.1L294.2 49.9L294.1 49.9Q294.0 50.1 293.8 50.3Q293.6 50.5 293.3 50.7Q292.9 50.9 292.4 50.9L292.4 50.9Q291.6 50.9 291.1 50.6Q290.5 50.2 290.2 49.6Q289.8 48.9 289.8 48.0L289.8 48.0Q289.8 47.0 290.2 46.4Q290.5 45.7 291.1 45.3Q291.6 44.9 292.4 44.9L292.4 44.9Q293.0 44.9 293.3 45.1Q293.7 45.3 293.8 45.5Q294.0 45.8 294.1 46.0L294.1 46.0L294.2 46.0L294.2 45.0L295.2 45.0L295.2 51.2Q295.2 51.9 294.8 52.4Q294.5 52.9 293.9 53.1Q293.3 53.4 292.5 53.4ZM292.5 50.0L292.5 50.0Q293.1 50.0 293.4 49.8Q293.8 49.5 294.0 49.1Q294.2 48.6 294.2 47.9L294.2 47.9Q294.2 47.3 294.0 46.8Q293.8 46.3 293.4 46.1Q293.1 45.8 292.5 45.8L292.5 45.8Q291.9 45.8 291.6 46.1Q291.2 46.4 291.0 46.9Q290.8 47.3 290.8 47.9L290.8 47.9Q290.8 48.6 291.0 49.0Q291.2 49.5 291.6 49.8Q292.0 50.0 292.5 50.0ZM302.4 51.1L302.4 51.1Q301.5 51.1 300.9 50.7Q300.3 50.4 299.9 49.7Q299.6 49.0 299.6 48.0Q299.6 47.1 299.9 46.4Q300.2 45.7 300.8 45.3Q301.5 44.9 302.3 44.9L302.3 44.9Q302.7 44.9 303.2 45.1Q303.7 45.2 304.1 45.6Q304.4 45.9 304.7 46.5Q304.9 47.1 304.9 47.9L304.9 47.9L304.9 48.3L300.5 48.3Q300.6 48.9 300.8 49.3L300.8 49.3Q301.0 49.8 301.4 50.0Q301.8 50.3 302.4 50.3L302.4 50.3Q302.7 50.3 303.0 50.2Q303.3 50.1 303.5 49.9Q303.7 49.7 303.9 49.3L303.9 49.3L304.8 49.6Q304.6 50.1 304.3 50.4Q304.0 50.7 303.5 50.9Q303.0 51.1 302.4 51.1ZM300.6 47.5L300.6 47.5L303.9 47.5Q303.9 47.1 303.7 46.8L303.7 46.8Q303.5 46.3 303.2 46.0Q302.8 45.8 302.3 45.8Q301.7 45.8 301.3 46.0Q301.0 46.3 300.8 46.7L300.8 46.7Q300.6 47.1 300.6 47.5ZM311.3 51.1L311.3 51.1Q310.7 51.1 310.2 50.8Q309.8 50.6 309.5 50.1Q309.3 49.6 309.3 48.8L309.3 48.8L309.3 45.0L310.2 45.0L310.2 48.7Q310.2 49.4 310.6 49.8Q311.0 50.2 311.6 50.2L311.6 50.2Q312.0 50.2 312.4 50.0Q312.7 49.8 312.9 49.5Q313.1 49.1 313.1 48.6L313.1 48.6L313.1 45.0L314.1 45.0L314.1 51L313.1 51L313.1 49.9Q312.9 50.5 312.5 50.7L312.5 50.7Q312.0 51.1 311.3 51.1ZM321.6 51.1L321.6 51.1Q321.0 51.1 320.6 50.9Q320.3 50.7 320.1 50.5Q319.9 50.2 319.8 50.1L319.8 50.1L319.7 50.1L319.7 51L318.8 51L318.8 43.0L319.7 43.0L319.7 46.0L319.8 46.0Q319.9 45.8 320.1 45.6Q320.3 45.3 320.6 45.1Q321.0 44.9 321.6 44.9L321.6 44.9Q322.3 44.9 322.9 45.3Q323.5 45.7 323.8 46.4Q324.1 47.1 324.1 48.0L324.1 48.0Q324.1 49.0 323.8 49.7Q323.5 50.4 322.9 50.7Q322.3 51.1 321.6 51.1ZM321.4 50.3L321.4 50.3Q322.0 50.3 322.4 50.0Q322.7 49.7 322.9 49.1Q323.1 48.6 323.1 48.0L323.1 48.0Q323.1 47.4 322.9 46.9Q322.7 46.4 322.4 46.1Q322.0 45.8 321.4 45.8L321.4 45.8Q320.9 45.8 320.5 46.1Q320.1 46.3 319.9 46.8Q319.7 47.3 319.7 48.0L319.7 48.0Q319.7 48.7 319.9 49.2Q320.1 49.7 320.5 50.0Q320.9 50.3 321.4 50.3ZM330.2 51.1L330.2 51.1Q329.6 51.1 329.2 50.9Q328.7 50.7 328.4 50.3Q328.1 49.9 328.1 49.3L328.1 49.3Q328.1 48.8 328.4 48.5Q328.6 48.1 328.9 47.9Q329.2 47.8 329.7 47.7Q330.1 47.6 330.5 47.5L330.5 47.5Q331.0 47.5 331.4 47.4Q331.7 47.4 331.9 47.3Q332.0 47.2 332.0 47.0L332.0 47.0L332.0 46.9Q332.0 46.6 331.9 46.3Q331.7 46.0 331.5 45.9Q331.2 45.8 330.8 45.8L330.8 45.8Q330.3 45.8 330.0 45.9Q329.7 46.0 329.5 46.2Q329.3 46.4 329.2 46.6L329.2 46.6L328.3 46.3Q328.5 45.8 328.9 45.5Q329.3 45.2 329.8 45.0Q330.3 44.9 330.7 44.9L330.7 44.9Q331.0 44.9 331.4 45.0Q331.8 45.1 332.2 45.3Q332.5 45.5 332.8 45.9Q333.0 46.3 333.0 47.0L333.0 47.0L333.0 51L332.0 51L332.0 50.2L332.0 50.2Q331.9 50.4 331.6 50.6Q331.4 50.8 331.1 51.0Q330.7 51.1 330.2 51.1ZM330.4 50.3L330.4 50.3Q330.9 50.3 331.3 50.1Q331.6 49.9 331.8 49.5Q332.0 49.2 332.0 48.8L332.0 48.8L332.0 48.0Q332.0 48.1 331.8 48.1Q331.6 48.2 331.3 48.2Q331.1 48.3 330.8 48.3Q330.6 48.3 330.4 48.3L330.4 48.3Q330.1 48.4 329.8 48.5Q329.5 48.6 329.3 48.8Q329.1 49.0 329.1 49.3L329.1 49.3Q329.1 49.7 329.3 49.9Q329.4 50.1 329.7 50.2Q330.0 50.3 330.4 50.3ZM337.6 53.2L337.6 53.2L337.8 52.3L337.9 52.4Q338.2 52.4 338.5 52.4Q338.7 52.4 338.9 52.2Q339.1 52.0 339.3 51.5L339.3 51.5L339.4 51.0L337.1 45.0L338.2 45.0L339.5 48.6Q339.7 49.1 339.8 49.7L339.8 49.7Q339.9 49.9 339.9 50.1L339.9 50.1Q340.0 49.9 340.1 49.7L340.1 49.7Q340.2 49.1 340.4 48.6L340.4 48.6L341.7 45.0L342.7 45.0L340.1 51.9Q339.9 52.4 339.7 52.7Q339.4 53.0 339.1 53.1Q338.7 53.3 338.3 53.3L338.3 53.3Q338.0 53.3 337.9 53.3Q337.7 53.2 337.6 53.2Z M353.7 47.9L353.7 47.9Q353.4 47.9 353.2 47.7Q353.0 47.5 353.0 47.2L353.0 47.2Q353.0 46.9 353.2 46.7Q353.4 46.5 353.7 46.5L353.7 46.5Q354.0 46.5 354.2 46.7Q354.4 46.9 354.4 47.2L354.4 47.2Q354.4 47.5 354.2 47.7Q354.0 47.9 353.7 47.9Z M367.7 51.1L367.7 51.1Q366.9 51.1 366.2 50.7Q365.6 50.4 365.3 49.7Q364.9 49.0 364.9 48.0L364.9 48.0Q364.9 47.1 365.3 46.4Q365.6 45.7 366.2 45.3Q366.9 44.9 367.7 44.9L367.7 44.9Q368.1 44.9 368.5 45.0Q368.9 45.1 369.2 45.4Q369.5 45.6 369.7 45.9Q370.0 46.2 370.1 46.6L370.1 46.6L369.2 46.8Q369.1 46.6 369.0 46.4Q368.8 46.2 368.7 46.1Q368.5 45.9 368.2 45.9Q368.0 45.8 367.7 45.8L367.7 45.8Q367.1 45.8 366.7 46.1Q366.3 46.4 366.1 46.9Q365.9 47.4 365.9 48.0L365.9 48.0Q365.9 48.6 366.1 49.1Q366.3 49.6 366.7 50.0Q367.1 50.3 367.7 50.3L367.7 50.3Q368.0 50.3 368.2 50.2Q368.5 50.1 368.7 50.0Q368.9 49.8 369.0 49.6Q369.1 49.4 369.2 49.2L369.2 49.2L370.1 49.4Q370.0 49.8 369.8 50.1Q369.5 50.5 369.2 50.7Q368.9 50.9 368.5 51.0Q368.1 51.1 367.7 51.1ZM375.5 51L374.5 51L374.5 45.0L375.4 45.0L375.4 45.9L375.5 45.9Q375.7 45.5 376.1 45.2Q376.5 44.9 377.1 44.9L377.1 44.9Q377.2 44.9 377.3 44.9Q377.5 44.9 377.6 44.9L377.6 44.9L377.6 45.9Q377.5 45.9 377.3 45.9Q377.2 45.8 377.0 45.8L377.0 45.8Q376.5 45.8 376.2 46.0Q375.9 46.2 375.7 46.5Q375.5 46.8 375.5 47.2L375.5 47.2L375.5 51ZM383.3 51.1L383.3 51.1Q382.8 51.1 382.3 50.9Q381.8 50.7 381.6 50.3Q381.3 49.9 381.3 49.3L381.3 49.3Q381.3 48.8 381.5 48.5Q381.7 48.1 382.0 47.9Q382.4 47.8 382.8 47.7Q383.2 47.6 383.6 47.5L383.6 47.5Q384.2 47.5 384.5 47.4Q384.8 47.4 385.0 47.3Q385.2 47.2 385.2 47.0L385.2 47.0L385.2 46.9Q385.2 46.6 385.0 46.3Q384.9 46.0 384.6 45.9Q384.3 45.8 383.9 45.8L383.9 45.8Q383.5 45.8 383.2 45.9Q382.9 46.0 382.7 46.2Q382.5 46.4 382.4 46.6L382.4 46.6L381.5 46.3Q381.7 45.8 382.1 45.5Q382.5 45.2 382.9 45.0Q383.4 44.9 383.9 44.9L383.9 44.9Q384.2 44.9 384.6 45.0Q385.0 45.1 385.3 45.3Q385.7 45.5 385.9 45.9Q386.1 46.3 386.1 47.0L386.1 47.0L386.1 51L385.2 51L385.2 50.2L385.1 50.2Q385.0 50.4 384.8 50.6Q384.6 50.8 384.2 51.0Q383.8 51.1 383.3 51.1ZM383.5 50.3L383.5 50.3Q384.0 50.3 384.4 50.1Q384.8 49.9 385.0 49.5Q385.2 49.2 385.2 48.8L385.2 48.8L385.2 48.0Q385.1 48.1 384.9 48.1Q384.7 48.2 384.5 48.2Q384.2 48.3 384.0 48.3Q383.7 48.3 383.6 48.3L383.6 48.3Q383.2 48.4 382.9 48.5Q382.6 48.6 382.4 48.8Q382.3 49.0 382.3 49.3L382.3 49.3Q382.3 49.7 382.4 49.9Q382.6 50.1 382.9 50.2Q383.1 50.3 383.5 50.3ZM392.2 45.0L393.6 45.0L393.6 45.8L392.2 45.8L392.2 51L391.3 51L391.3 45.8L390.1 45.8L390.1 45.0L391.3 45.0L391.3 44.2Q391.3 43.7 391.5 43.3Q391.8 43.0 392.2 42.8Q392.5 42.6 393.0 42.6L393.0 42.6Q393.3 42.6 393.5 42.7Q393.8 42.7 393.9 42.8L393.9 42.8L393.6 43.6Q393.5 43.6 393.4 43.6Q393.3 43.5 393.1 43.5L393.1 43.5Q392.6 43.5 392.4 43.7Q392.2 44.0 392.2 44.4L392.2 44.4L392.2 45.0ZM399.0 45.0L400.3 45.0L400.3 45.8L399.0 45.8L399.0 49.4Q399.0 49.8 399.2 50.0Q399.4 50.2 399.7 50.2L399.7 50.2Q399.8 50.2 400.0 50.2Q400.1 50.2 400.2 50.2L400.2 50.2L400.4 51.0Q400.3 51.0 400.1 51.0Q399.9 51.1 399.7 51.1L399.7 51.1Q398.9 51.1 398.5 50.7Q398.1 50.3 398.1 49.5L398.1 49.5L398.1 45.8L397.2 45.8L397.2 45.0L398.1 45.0L398.1 43.6L399.0 43.6L399.0 45.0ZM407.0 51.1L407.0 51.1Q406.2 51.1 405.5 50.7Q404.9 50.4 404.6 49.7Q404.2 49.0 404.2 48.0Q404.2 47.1 404.5 46.4Q404.9 45.7 405.5 45.3Q406.1 44.9 406.9 44.9L406.9 44.9Q407.4 44.9 407.9 45.1Q408.3 45.2 408.7 45.6Q409.1 45.9 409.3 46.5Q409.5 47.1 409.5 47.9L409.5 47.9L409.5 48.3L405.2 48.3Q405.2 48.9 405.4 49.3L405.4 49.3Q405.6 49.8 406.1 50.0Q406.5 50.3 407.0 50.3L407.0 50.3Q407.4 50.3 407.7 50.2Q408.0 50.1 408.2 49.9Q408.4 49.7 408.5 49.3L408.5 49.3L409.4 49.6Q409.3 50.1 409.0 50.4Q408.6 50.7 408.1 50.9Q407.6 51.1 407.0 51.1ZM405.2 47.5L405.2 47.5L408.5 47.5Q408.5 47.1 408.4 46.8L408.4 46.8Q408.2 46.3 407.8 46.0Q407.5 45.8 406.9 45.8Q406.4 45.8 406.0 46.0Q405.6 46.3 405.4 46.7L405.4 46.7Q405.2 47.1 405.2 47.5ZM416.2 51.1L416.2 51.1Q415.4 51.1 414.8 50.7Q414.3 50.4 413.9 49.7Q413.6 49.0 413.6 48.0L413.6 48.0Q413.6 47.1 413.9 46.4Q414.3 45.7 414.8 45.3Q415.4 44.9 416.2 44.9L416.2 44.9Q416.8 44.9 417.1 45.1Q417.4 45.3 417.6 45.6Q417.8 45.8 417.9 46.0L417.9 46.0L418.0 46.0L418.0 43.0L419.0 43.0L419.0 51L418.0 51L418.0 50.1L417.9 50.1Q417.8 50.2 417.6 50.5Q417.4 50.7 417.1 50.9Q416.7 51.1 416.2 51.1ZM416.3 50.3L416.3 50.3Q416.9 50.3 417.2 50.0Q417.6 49.7 417.8 49.2Q418.0 48.7 418.0 48.0L418.0 48.0Q418.0 47.3 417.8 46.8Q417.6 46.3 417.2 46.1Q416.9 45.8 416.3 45.8L416.3 45.8Q415.7 45.8 415.4 46.1Q415.0 46.4 414.8 46.9Q414.6 47.4 414.6 48.0L414.6 48.0Q414.6 48.6 414.8 49.1Q415.0 49.7 415.4 50.0Q415.7 50.3 416.3 50.3Z M430.7 47.4L430.7 47.4L430.7 51L429.7 51L429.7 45.0L430.7 45.0L430.7 46.1Q430.9 45.5 431.3 45.3L431.3 45.3Q431.8 44.9 432.5 44.9L432.5 44.9Q433.1 44.9 433.6 45.2Q434.0 45.4 434.3 45.9Q434.5 46.4 434.5 47.2L434.5 47.2L434.5 51L433.6 51L433.6 47.3Q433.6 46.6 433.2 46.2Q432.9 45.8 432.2 45.8L432.2 45.8Q431.8 45.8 431.4 46.0Q431.1 46.2 430.9 46.5Q430.7 46.9 430.7 47.4ZM440.9 51.1L440.9 51.1Q440.4 51.1 439.9 50.9Q439.4 50.7 439.1 50.3Q438.9 49.9 438.9 49.3L438.9 49.3Q438.9 48.8 439.1 48.5Q439.3 48.1 439.6 47.9Q440.0 47.8 440.4 47.7Q440.8 47.6 441.2 47.5L441.2 47.5Q441.7 47.5 442.1 47.4Q442.4 47.4 442.6 47.3Q442.8 47.2 442.8 47.0L442.8 47.0L442.8 46.9Q442.8 46.6 442.6 46.3Q442.5 46.0 442.2 45.9Q441.9 45.8 441.5 45.8L441.5 45.8Q441.1 45.8 440.8 45.9Q440.5 46.0 440.3 46.2Q440.1 46.4 440.0 46.6L440.0 46.6L439.0 46.3Q439.3 45.8 439.7 45.5Q440.1 45.2 440.5 45.0Q441.0 44.9 441.5 44.9L441.5 44.9Q441.8 44.9 442.2 45.0Q442.5 45.1 442.9 45.3Q443.3 45.5 443.5 45.9Q443.7 46.3 443.7 47.0L443.7 47.0L443.7 51L442.8 51L442.8 50.2L442.7 50.2Q442.6 50.4 442.4 50.6Q442.2 50.8 441.8 51.0Q441.4 51.1 440.9 51.1ZM441.1 50.3L441.1 50.3Q441.6 50.3 442.0 50.1Q442.4 49.9 442.6 49.5Q442.8 49.2 442.8 48.8L442.8 48.8L442.8 48.0Q442.7 48.1 442.5 48.1Q442.3 48.2 442.0 48.2Q441.8 48.3 441.5 48.3Q441.3 48.3 441.2 48.3L441.2 48.3Q440.8 48.4 440.5 48.5Q440.2 48.6 440.0 48.8Q439.8 49.0 439.8 49.3L439.8 49.3Q439.8 49.7 440.0 49.9Q440.2 50.1 440.4 50.2Q440.7 50.3 441.1 50.3ZM449.5 45.0L450.8 45.0L450.8 45.8L449.5 45.8L449.5 49.4Q449.5 49.8 449.7 50.0Q449.9 50.2 450.3 50.2L450.3 50.2Q450.3 50.2 450.5 50.2Q450.6 50.2 450.7 50.2L450.7 50.2L450.9 51.0Q450.8 51.0 450.6 51.0Q450.4 51.1 450.2 51.1L450.2 51.1Q449.4 51.1 449.0 50.7Q448.6 50.3 448.6 49.5L448.6 49.5L448.6 45.8L447.7 45.8L447.7 45.0L448.6 45.0L448.6 43.6L449.5 43.6L449.5 45.0ZM456.0 51L455.0 51L455.0 45.0L456.0 45.0L456.0 51ZM455.5 44.0L455.5 44.0Q455.2 44.0 455.0 43.8Q454.8 43.6 454.8 43.4L454.8 43.4Q454.8 43.1 455.0 42.9Q455.2 42.7 455.5 42.7L455.5 42.7Q455.8 42.7 456.0 42.9Q456.2 43.1 456.2 43.4L456.2 43.4Q456.2 43.6 456.0 43.8Q455.8 44.0 455.5 44.0ZM463.4 51L462.4 51L460.1 45.0L461.2 45.0L462.5 48.6Q462.7 49.1 462.8 49.7L462.8 49.7Q462.9 49.9 462.9 50.1L462.9 50.1Q463.0 49.9 463.0 49.7L463.0 49.7Q463.2 49.1 463.4 48.6L463.4 48.6L464.7 45.0L465.7 45.0L463.4 51ZM472.4 51.1L472.4 51.1Q471.5 51.1 470.9 50.7Q470.3 50.4 469.9 49.7Q469.6 49.0 469.6 48.0Q469.6 47.1 469.9 46.4Q470.2 45.7 470.8 45.3Q471.5 44.9 472.3 44.9L472.3 44.9Q472.8 44.9 473.2 45.1Q473.7 45.2 474.1 45.6Q474.4 45.9 474.7 46.5Q474.9 47.1 474.9 47.9L474.9 47.9L474.9 48.3L470.5 48.3Q470.6 48.9 470.8 49.3L470.8 49.3Q471.0 49.8 471.4 50.0Q471.8 50.3 472.4 50.3L472.4 50.3Q472.7 50.3 473.0 50.2Q473.3 50.1 473.5 49.9Q473.7 49.7 473.9 49.3L473.9 49.3L474.8 49.6Q474.7 50.1 474.3 50.4Q474.0 50.7 473.5 50.9Q473.0 51.1 472.4 51.1ZM470.6 47.5L470.6 47.5L473.9 47.5Q473.9 47.1 473.7 46.8L473.7 46.8Q473.5 46.3 473.2 46.0Q472.8 45.8 472.3 45.8Q471.7 45.8 471.3 46.0Q471.0 46.3 470.8 46.7L470.8 46.7Q470.6 47.1 470.6 47.5ZM479.3 43.0L480.2 43.0L480.2 51L479.3 51L479.3 43.0ZM484.8 53.2L484.8 53.2L485.1 52.3L485.2 52.4Q485.5 52.4 485.7 52.4Q486.0 52.4 486.2 52.2Q486.4 52.0 486.5 51.5L486.5 51.5L486.7 51.0L484.4 45.0L485.4 45.0L486.7 48.6Q486.9 49.1 487.1 49.7L487.1 49.7Q487.1 49.9 487.2 50.1L487.2 50.1Q487.2 49.9 487.3 49.7L487.3 49.7Q487.4 49.1 487.6 48.6L487.6 48.6L488.9 45.0L490.0 45.0L487.3 51.9Q487.2 52.4 486.9 52.7Q486.7 53.0 486.3 53.1Q486.0 53.3 485.6 53.3L485.6 53.3Q485.3 53.3 485.1 53.3Q484.9 53.2 484.8 53.2Z M501.6 45.0L503.0 45.0L503.0 45.8L501.6 45.8L501.6 51L500.7 51L500.7 45.8L499.5 45.8L499.5 45.0L500.7 45.0L500.7 44.2Q500.7 43.7 500.9 43.3Q501.1 43.0 501.5 42.8Q501.9 42.6 502.4 42.6L502.4 42.6Q502.7 42.6 502.9 42.7Q503.2 42.7 503.3 42.8L503.3 42.8L503.0 43.6Q502.9 43.6 502.8 43.6Q502.7 43.5 502.5 43.5L502.5 43.5Q502.0 43.5 501.8 43.7Q501.6 44.0 501.6 44.4L501.6 44.4L501.6 45.0ZM509.7 51.1L509.7 51.1Q508.9 51.1 508.3 50.7Q507.7 50.4 507.3 49.7Q507.0 49.0 507.0 48.0L507.0 48.0Q507.0 47.1 507.3 46.4Q507.7 45.7 508.3 45.3Q508.9 44.9 509.7 44.9L509.7 44.9Q510.6 44.9 511.2 45.3Q511.8 45.7 512.1 46.4Q512.5 47.1 512.5 48.0L512.5 48.0Q512.5 49.0 512.1 49.7Q511.8 50.4 511.2 50.7Q510.6 51.1 509.7 51.1ZM509.7 50.3L509.7 50.3Q510.3 50.3 510.7 50.0Q511.1 49.6 511.3 49.1Q511.5 48.6 511.5 48.0L511.5 48.0Q511.5 47.4 511.3 46.9Q511.1 46.4 510.7 46.1Q510.3 45.8 509.7 45.8L509.7 45.8Q509.1 45.8 508.7 46.1Q508.4 46.4 508.2 46.9Q508.0 47.4 508.0 48.0L508.0 48.0Q508.0 48.6 508.2 49.1Q508.4 49.6 508.7 50.0Q509.1 50.3 509.7 50.3ZM517.8 51L516.9 51L516.9 45.0L517.8 45.0L517.8 45.9L517.9 45.9Q518.0 45.5 518.5 45.2Q518.9 44.9 519.4 44.9L519.4 44.9Q519.5 44.9 519.7 44.9Q519.8 44.9 519.9 44.9L519.9 44.9L519.9 45.9Q519.9 45.9 519.7 45.9Q519.5 45.8 519.3 45.8L519.3 45.8Q518.9 45.8 518.6 46.0Q518.2 46.2 518.0 46.5Q517.8 46.8 517.8 47.2L517.8 47.2L517.8 51Z M531.8 51.1L531.8 51.1Q531.2 51.1 530.8 50.9Q530.3 50.7 530.0 50.3Q529.8 49.9 529.8 49.3L529.8 49.3Q529.8 48.8 530.0 48.5Q530.2 48.1 530.5 47.9Q530.8 47.8 531.3 47.7Q531.7 47.6 532.1 47.5L532.1 47.5Q532.6 47.5 533.0 47.4Q533.3 47.4 533.5 47.3Q533.6 47.2 533.6 47.0L533.6 47.0L533.6 46.9Q533.6 46.6 533.5 46.3Q533.4 46.0 533.1 45.9Q532.8 45.8 532.4 45.8L532.4 45.8Q531.9 45.8 531.6 45.9Q531.3 46.0 531.1 46.2Q530.9 46.4 530.9 46.6L530.9 46.6L529.9 46.3Q530.2 45.8 530.5 45.5Q530.9 45.2 531.4 45.0Q531.9 44.9 532.3 44.9L532.3 44.9Q532.6 44.9 533.0 45.0Q533.4 45.1 533.8 45.3Q534.1 45.5 534.4 45.9Q534.6 46.3 534.6 47.0L534.6 47.0L534.6 51L533.6 51L533.6 50.2L533.6 50.2Q533.5 50.4 533.3 50.6Q533.0 50.8 532.7 51.0Q532.3 51.1 531.8 51.1ZM532.0 50.3L532.0 50.3Q532.5 50.3 532.9 50.1Q533.2 49.9 533.4 49.5Q533.6 49.2 533.6 48.8L533.6 48.8L533.6 48.0Q533.6 48.1 533.4 48.1Q533.2 48.2 532.9 48.2Q532.7 48.3 532.4 48.3Q532.2 48.3 532.0 48.3L532.0 48.3Q531.7 48.4 531.4 48.5Q531.1 48.6 530.9 48.8Q530.7 49.0 530.7 49.3L530.7 49.3Q530.7 49.7 530.9 49.9Q531.0 50.1 531.3 50.2Q531.6 50.3 532.0 50.3ZM540.3 53.2L539.3 53.2L539.3 45.0L540.2 45.0L540.2 46.0L540.3 46.0Q540.4 45.8 540.6 45.6Q540.8 45.3 541.1 45.1Q541.5 44.9 542.1 44.9L542.1 44.9Q542.8 44.9 543.4 45.3Q544.0 45.7 544.3 46.4Q544.6 47.1 544.6 48.0L544.6 48.0Q544.6 49.0 544.3 49.7Q544.0 50.4 543.4 50.7Q542.8 51.1 542.1 51.1L542.1 51.1Q541.5 51.1 541.2 50.9Q540.8 50.7 540.6 50.5Q540.4 50.2 540.3 50.1L540.3 50.1L540.3 50.1L540.3 53.2ZM541.9 50.3L541.9 50.3Q542.5 50.3 542.9 50.0Q543.3 49.7 543.4 49.1Q543.6 48.6 543.6 48.0L543.6 48.0Q543.6 47.4 543.5 46.9Q543.3 46.4 542.9 46.1Q542.5 45.8 541.9 45.8L541.9 45.8Q541.4 45.8 541.0 46.1Q540.6 46.3 540.4 46.8Q540.2 47.3 540.2 48.0L540.2 48.0Q540.2 48.7 540.4 49.2Q540.6 49.7 541.0 50.0Q541.4 50.3 541.9 50.3ZM550.0 53.2L549.0 53.2L549.0 45.0L550.0 45.0L550.0 46.0L550.1 46.0Q550.2 45.8 550.4 45.6Q550.5 45.3 550.9 45.1Q551.2 44.9 551.8 44.9L551.8 44.9Q552.6 44.9 553.1 45.3Q553.7 45.7 554.0 46.4Q554.4 47.1 554.4 48.0L554.4 48.0Q554.4 49.0 554.0 49.7Q553.7 50.4 553.1 50.7Q552.6 51.1 551.8 51.1L551.8 51.1Q551.2 51.1 550.9 50.9Q550.5 50.7 550.4 50.5Q550.2 50.2 550.1 50.1L550.1 50.1L550.0 50.1L550.0 53.2ZM551.7 50.3L551.7 50.3Q552.2 50.3 552.6 50.0Q553.0 49.7 553.2 49.1Q553.4 48.6 553.4 48.0L553.4 48.0Q553.4 47.4 553.2 46.9Q553.0 46.4 552.6 46.1Q552.2 45.8 551.7 45.8L551.7 45.8Q551.1 45.8 550.7 46.1Q550.4 46.3 550.2 46.8Q550.0 47.3 550.0 48.0L550.0 48.0Q550.0 48.7 550.2 49.2Q550.4 49.7 550.8 50.0Q551.1 50.3 551.7 50.3ZM558.8 43.0L559.7 43.0L559.7 51L558.8 51L558.8 43.0ZM567.0 51.1L567.0 51.1Q566.1 51.1 565.5 50.7Q564.8 50.4 564.5 49.7Q564.1 49.0 564.1 48.0Q564.1 47.1 564.5 46.4Q564.8 45.7 565.4 45.3Q566.0 44.9 566.8 44.9L566.8 44.9Q567.3 44.9 567.8 45.1Q568.2 45.2 568.6 45.6Q569.0 45.9 569.2 46.5Q569.5 47.1 569.5 47.9L569.5 47.9L569.5 48.3L565.1 48.3Q565.1 48.9 565.3 49.3L565.3 49.3Q565.6 49.8 566.0 50.0Q566.4 50.3 567.0 50.3L567.0 50.3Q567.3 50.3 567.6 50.2Q567.9 50.1 568.1 49.9Q568.3 49.7 568.4 49.3L568.4 49.3L569.4 49.6Q569.2 50.1 568.9 50.4Q568.6 50.7 568.1 50.9Q567.6 51.1 567.0 51.1ZM565.1 47.5L565.1 47.5L568.5 47.5Q568.4 47.1 568.3 46.8L568.3 46.8Q568.1 46.3 567.7 46.0Q567.4 45.8 566.8 45.8Q566.3 45.8 565.9 46.0Q565.5 46.3 565.3 46.7L565.3 46.7Q565.1 47.1 565.1 47.5Z M580.9 53.2L579.9 53.2L579.9 45.0L580.9 45.0L580.9 46.0L581.0 46.0Q581.1 45.8 581.3 45.6Q581.4 45.3 581.8 45.1Q582.1 44.9 582.7 44.9L582.7 44.9Q583.5 44.9 584.0 45.3Q584.6 45.7 584.9 46.4Q585.3 47.1 585.3 48.0L585.3 48.0Q585.3 49.0 584.9 49.7Q584.6 50.4 584.0 50.7Q583.5 51.1 582.7 51.1L582.7 51.1Q582.2 51.1 581.8 50.9Q581.5 50.7 581.3 50.5Q581.1 50.2 581.0 50.1L581.0 50.1L580.9 50.1L580.9 53.2ZM582.6 50.3L582.6 50.3Q583.1 50.3 583.5 50.0Q583.9 49.7 584.1 49.1Q584.3 48.6 584.3 48.0L584.3 48.0Q584.3 47.4 584.1 46.9Q583.9 46.4 583.5 46.1Q583.1 45.8 582.6 45.8L582.6 45.8Q582.0 45.8 581.6 46.1Q581.3 46.3 581.1 46.8Q580.9 47.3 580.9 48.0L580.9 48.0Q580.9 48.7 581.1 49.2Q581.3 49.7 581.7 50.0Q582.0 50.3 582.6 50.3ZM589.7 43.0L590.6 43.0L590.6 51L589.7 51L589.7 43.0ZM597.0 51.1L597.0 51.1Q596.4 51.1 596.0 50.9Q595.5 50.7 595.2 50.3Q595.0 49.9 595.0 49.3L595.0 49.3Q595.0 48.8 595.2 48.5Q595.4 48.1 595.7 47.9Q596.1 47.8 596.5 47.7Q596.9 47.6 597.3 47.5L597.3 47.5Q597.8 47.5 598.2 47.4Q598.5 47.4 598.7 47.3Q598.8 47.2 598.8 47.0L598.8 47.0L598.8 46.9Q598.8 46.6 598.7 46.3Q598.6 46.0 598.3 45.9Q598.0 45.8 597.6 45.8L597.6 45.8Q597.2 45.8 596.9 45.9Q596.5 46.0 596.4 46.2Q596.2 46.4 596.1 46.6L596.1 46.6L595.1 46.3Q595.4 45.8 595.8 45.5Q596.2 45.2 596.6 45.0Q597.1 44.9 597.6 44.9L597.6 44.9Q597.9 44.9 598.2 45.0Q598.6 45.1 599.0 45.3Q599.3 45.5 599.6 45.9Q599.8 46.3 599.8 47.0L599.8 47.0L599.8 51L598.9 51L598.9 50.2L598.8 50.2Q598.7 50.4 598.5 50.6Q598.2 50.8 597.9 51.0Q597.5 51.1 597.0 51.1ZM597.2 50.3L597.2 50.3Q597.7 50.3 598.1 50.1Q598.5 49.9 598.7 49.5Q598.8 49.2 598.8 48.8L598.8 48.8L598.8 48.0Q598.8 48.1 598.6 48.1Q598.4 48.2 598.1 48.2Q597.9 48.3 597.6 48.3Q597.4 48.3 597.3 48.3L597.3 48.3Q596.9 48.4 596.6 48.5Q596.3 48.6 596.1 48.8Q595.9 49.0 595.9 49.3L595.9 49.3Q595.9 49.7 596.1 49.9Q596.3 50.1 596.5 50.2Q596.8 50.3 597.2 50.3ZM605.6 45.0L606.9 45.0L606.9 45.8L605.6 45.8L605.6 49.4Q605.6 49.8 605.8 50.0Q606.0 50.2 606.3 50.2L606.3 50.2Q606.4 50.2 606.6 50.2Q606.7 50.2 606.8 50.2L606.8 50.2L607.0 51.0Q606.9 51.0 606.7 51.0Q606.5 51.1 606.3 51.1L606.3 51.1Q605.5 51.1 605.1 50.7Q604.7 50.3 604.7 49.5L604.7 49.5L604.7 45.8L603.8 45.8L603.8 45.0L604.7 45.0L604.7 43.6L605.6 43.6L605.6 45.0ZM612.5 45.0L613.9 45.0L613.9 45.8L612.5 45.8L612.5 51L611.6 51L611.6 45.8L610.4 45.8L610.4 45.0L611.6 45.0L611.6 44.2Q611.6 43.7 611.8 43.3Q612.0 43.0 612.4 42.8Q612.8 42.6 613.3 42.6L613.3 42.6Q613.6 42.6 613.8 42.7Q614.1 42.7 614.2 42.8L614.2 42.8L613.9 43.6Q613.8 43.6 613.7 43.6Q613.6 43.5 613.4 43.5L613.4 43.5Q612.9 43.5 612.7 43.7Q612.5 44.0 612.5 44.4L612.5 44.4L612.5 45.0ZM620.6 51.1L620.6 51.1Q619.8 51.1 619.2 50.7Q618.6 50.4 618.2 49.7Q617.9 49.0 617.9 48.0L617.9 48.0Q617.9 47.1 618.2 46.4Q618.6 45.7 619.2 45.3Q619.8 44.9 620.6 44.9L620.6 44.9Q621.4 44.9 622.1 45.3Q622.7 45.7 623.0 46.4Q623.4 47.1 623.4 48.0L623.4 48.0Q623.4 49.0 623.0 49.7Q622.7 50.4 622.1 50.7Q621.4 51.1 620.6 51.1ZM620.6 50.3L620.6 50.3Q621.2 50.3 621.6 50.0Q622.0 49.6 622.2 49.1Q622.4 48.6 622.4 48.0L622.4 48.0Q622.4 47.4 622.2 46.9Q622.0 46.4 621.6 46.1Q621.2 45.8 620.6 45.8L620.6 45.8Q620.0 45.8 619.6 46.1Q619.3 46.4 619.1 46.9Q618.9 47.4 618.9 48.0L618.9 48.0Q618.9 48.6 619.1 49.1Q619.3 49.6 619.6 50.0Q620.0 50.3 620.6 50.3ZM628.7 51L627.8 51L627.8 45.0L628.7 45.0L628.7 45.9L628.8 45.9Q628.9 45.5 629.4 45.2Q629.8 44.9 630.3 44.9L630.3 44.9Q630.4 44.9 630.6 44.9Q630.7 44.9 630.8 44.9L630.8 44.9L630.8 45.9Q630.8 45.9 630.6 45.9Q630.4 45.8 630.2 45.8L630.2 45.8Q629.8 45.8 629.5 46.0Q629.1 46.2 628.9 46.5Q628.7 46.8 628.7 47.2L628.7 47.2L628.7 51ZM635.9 51L634.9 51L634.9 45.0L635.9 45.0L635.9 46.1Q636.0 45.8 636.2 45.5L636.2 45.5Q636.4 45.2 636.8 45.0Q637.2 44.9 637.5 44.9L637.5 44.9Q638.2 44.9 638.6 45.3L638.6 45.3Q638.9 45.6 639.1 46.1L639.1 46.1Q639.2 45.8 639.4 45.6L639.4 45.6Q639.7 45.2 640.1 45.1Q640.5 44.9 641.0 44.9L641.0 44.9Q641.5 44.9 641.9 45.1Q642.3 45.3 642.6 45.8Q642.9 46.3 642.9 47.0L642.9 47.0L642.9 51L641.9 51L641.9 47.0Q641.9 46.3 641.5 46.0Q641.2 45.8 640.7 45.8L640.7 45.8Q640.3 45.8 640.0 45.9Q639.7 46.1 639.5 46.4Q639.4 46.7 639.4 47.1L639.4 47.1L639.4 51L638.4 51L638.4 46.9Q638.4 46.4 638.1 46.1Q637.7 45.8 637.2 45.8L637.2 45.8Q636.9 45.8 636.6 45.9Q636.3 46.1 636.1 46.4Q635.9 46.7 635.9 47.2L635.9 47.2L635.9 51ZM649.6 51.1L649.6 51.1Q649.0 51.1 648.5 50.9Q648.0 50.8 647.7 50.4Q647.4 50.1 647.3 49.5L647.3 49.5L648.2 49.3Q648.3 49.8 648.7 50.0Q649.0 50.3 649.6 50.3L649.6 50.3Q650.2 50.3 650.6 50.0Q651.0 49.7 651.0 49.4L651.0 49.4Q651.0 49.1 650.7 48.9Q650.5 48.6 650.1 48.5L650.1 48.5L649.1 48.3Q648.3 48.1 647.9 47.7Q647.5 47.3 647.5 46.7L647.5 46.7Q647.5 46.2 647.8 45.8Q648.0 45.4 648.6 45.1Q649.1 44.9 649.7 44.9L649.7 44.9Q650.3 44.9 650.7 45.1Q651.2 45.3 651.4 45.6Q651.7 45.9 651.9 46.4L651.9 46.4L651.0 46.6Q650.9 46.3 650.6 46.0Q650.3 45.7 649.7 45.7L649.7 45.7Q649.2 45.7 648.8 46.0Q648.4 46.2 648.4 46.6L648.4 46.6Q648.4 46.9 648.7 47.1Q648.9 47.3 649.5 47.5L649.5 47.5L650.4 47.7Q651.2 47.9 651.6 48.3Q652.0 48.7 652.0 49.3L652.0 49.3Q652.0 49.8 651.7 50.2Q651.4 50.7 650.8 50.9Q650.3 51.1 649.6 51.1Z "/></g></svg>