<!-- Generated by readme-aura https://github.com/collectioneur/readme-aura -->
<svg width="860" height="320" viewBox="0 0 860 320" xmlns="http://www.w3.org/2000/svg"><defs><clipPath id="satori_bc-id"><path x="0" y="0" width="860" height="320" d="M20,0 h820 a20,20 0 0 1 20,20 v280 a20,20 0 0 1 -20,20 h-820 a20,20 0 0 1 -20,-20 v-280 a20,20 0 0 1 20,-20"/></clipPath></defs><clipPath id="satori_cp-id"><path x="0" y="0" width="860" height="320" d="M20,0 h820 a20,20 0 0 1 20,20 v280 a20,20 0 0 1 -20,20 h-820 a20,20 0 0 1 -20,-20 v-280 a20,20 0 0 1 20,-20"/></clipPath><mask id="satori_om-id"><rect x="1" y="1" width="858" height="318" fill="#fff"/><path width="860" height="320" fill="none" stroke="#000" stroke-width="2" d="M5.8580000000000005,5.8580000000000005 A20,20 0 0 1 20,0 h820 a20,20 0 0 1 20,20 v280 a20,20 0 0 1 -20,20 h-820 a20,20 0 0 1 -20,-20 v-280 A20,20 0 0 1 5.8580000000000005,5.8580000000000005"/></mask><path x="0" y="0" width="860" height="320" fill="#06060a" d="M20,0 h820 a20,20 0 0 1 20,20 v280 a20,20 0 0 1 -20,20 h-820 a20,20 0 0 1 -20,-20 v-280 a20,20 0 0 1 20,-20"/><path width="860" height="320" clip-path="url(#satori_bc-id)" fill="none" stroke="rgba(0,229,255,0.08)" stroke-width="2" d="M5.8580000000000005,5.8580000000000005 A20,20 0 0 1 20,0 h820 a20,20 0 0 1 20,20 v280 a20,20 0 0 1 -20,20 h-820 a20,20 0 0 1 -20,-20 v-280 A20,20 0 0 1 5.8580000000000005,5.8580000000000005"/><clipPath id="satori_cp-id-0" clip-path="url(#satori_cp-id)"><rect x="1" y="1" width="860" height="320"/></clipPath><mask id="satori_om-id-0"><rect x="1" y="1" width="860" height="320" fill="#fff" mask="url(#satori_om-id)"/></mask><svg x="1" y="1" width="860" height="320" preserveAspectRatio="none" clip-path="url(#satori_cp-id-0)" mask="url(#satori_om-id-0)"><defs><radialGradient id="hg1" cx="50%" cy="50%" r="50%"><stop offset="0%" stop-color="rgba(0,229,255,0.50)"></stop><stop offset="60%" stop-color="rgba(0,229,255,0.12)"></stop><stop offset="100%" stop-color="rgba(0,229,255,0)"></stop></radialGradient><radialGradient id="hg2" cx="50%" cy="50%" r="50%"><stop offset="0%" stop-color="rgba(139,92,246,0.55)"></stop><stop offset="55%" stop-color="rgba(139,92,246,0.15)"></stop><stop offset="100%" stop-color="rgba(139,92,246,0)"></stop></radialGradient><radialGradient id="hg3" cx="50%" cy="50%" r="50%"><stop offset="0%" stop-color="rgba(51,102,255,0.45)"></stop><stop offset="60%" stop-color="rgba(51,102,255,0.10)"></stop><stop offset="100%" stop-color="rgba(51,102,255,0)"></stop></radialGradient><radialGradient id="hg4" cx="50%" cy="50%" r="50%"><stop offset="0%" stop-color="rgba(236,72,153,0.30)"></stop><stop offset="70%" stop-color="rgba(236,72,153,0)"></stop></radialGradient><radialGradient id="hg5" cx="50%" cy="50%" r="50%"><stop offset="0%" stop-color="rgba(0,180,255,0.35)"></stop><stop offset="100%" stop-color="rgba(0,180,255,0)"></stop></radialGradient><radialGradient id="hg6" cx="50%" cy="50%" r="50%"><stop offset="0%" stop-color="rgba(168,85,247,0.40)"></stop><stop offset="100%" stop-color="rgba(168,85,247,0)"></stop></radialGradient><linearGradient id="hscan-g" x1="0" y1="0" x2="0" y2="1"><stop offset="0%" stop-color="rgba(0,229,255,0)"></stop><stop offset="45%" stop-color="rgba(0,229,255,0.04)"></stop><stop offset="50%" stop-color="rgba(0,229,255,0.12)"></stop><stop offset="55%" stop-color="rgba(0,229,255,0.04)"></stop><stop offset="100%" stop-color="rgba(0,229,255,0)"></stop></linearGradient></defs><ellipse id="ho1" cx="120" cy="280" rx="280" ry="200" fill="url(#hg1)"></ellipse><ellipse id="ho2" cx="740" cy="60" rx="250" ry="190" fill="url(#hg2)"></ellipse><ellipse id="ho3" cx="430" cy="310" rx="200" ry="160" fill="url(#hg3)"></ellipse><ellipse id="ho4" cx="680" cy="290" rx="180" ry="140" fill="url(#hg4)"></ellipse><ellipse id="ho5" cx="250" cy="40" rx="220" ry="160" fill="url(#hg5)"></ellipse><ellipse id="ho6" cx="500" cy="60" rx="160" ry="130" fill="url(#hg6)"></ellipse><circle id="hr1" cx="430" cy="160" r="55" fill="none" stroke="rgba(0,229,255,0.7)" stroke-width="0.5"></circle><circle id="hr2" cx="430" cy="160" r="100" fill="none" stroke="rgba(139,92,246,0.6)" stroke-width="0.5"></circle><circle id="hr3" cx="430" cy="160" r="155" fill="none" stroke="rgba(51,102,255,0.5)" stroke-width="0.4"></circle><circle id="hr4" cx="430" cy="160" r="220" fill="none" stroke="rgba(0,229,255,0.3)" stroke-width="0.3"></circle><g id="hdot"><circle cx="430" cy="105" r="2" fill="rgba(0,229,255,0.6)"></circle></g><rect id="hscan" x="0" y="0" width="860" height="320" fill="url(#hscan-g)"></rect><style>

    @keyframes hero-orb-a { 0%, 100% { transform: translate(0,0); opacity: 0.55; } 50% { transform: translate(40px,-30px); opacity: 0.85; } }
    @keyframes hero-orb-b { 0%, 100% { transform: translate(0,0); opacity: 0.45; } 50% { transform: translate(-35px,25px); opacity: 0.75; } }
    @keyframes hero-orb-c { 0%, 100% { transform: translate(0,0); opacity: 0.35; } 50% { transform: translate(25px,-40px); opacity: 0.65; } }
    @keyframes hero-orb-d { 0%, 100% { transform: translate(0,0); opacity: 0.40; } 50% { transform: translate(-20px,-15px); opacity: 0.70; } }
    @keyframes hero-ring { 0%, 100% { opacity: 0.04; } 50% { opacity: 0.14; } }
    @keyframes hero-ring-b { 0%, 100% { opacity: 0.03; } 50% { opacity: 0.10; } }
    @keyframes hero-dot-spin { 0% { transform: rotate(0deg); } 100% { transform: rotate(360deg); } }
    @keyframes hero-line-scan { 0% { transform: translateY(-320px); } 100% { transform: translateY(320px); } }
    @keyframes hero-cursor { 0%, 100% { opacity: 1; } 49% { opacity: 1; } 50% { opacity: 0; } 99% { opacity: 0; } }
    #ho1 { animation: hero-orb-a 9s ease-in-out infinite; }
    #ho2 { animation: hero-orb-b 12s ease-in-out infinite 0.6s; }
    #ho3 { animation: hero-orb-c 8s ease-in-out infinite 1.5s; }
    #ho4 { animation: hero-orb-d 11s ease-in-out infinite 0.3s; }
    #ho5 { animation: hero-orb-a 10s ease-in-out infinite 2s; }
    #ho6 { animation: hero-orb-b 14s ease-in-out infinite 1s; }
    #hr1 { animation: hero-ring 9s ease-in-out infinite; }
    #hr2 { animation: hero-ring 9s ease-in-out infinite 1.5s; }
    #hr3 { animation: hero-ring-b 9s ease-in-out infinite 3s; }
    #hr4 { animation: hero-ring-b 10s ease-in-out infinite 4.5s; }
    #hdot { animation: hero-dot-spin 24s linear infinite; }
    #hscan { animation: hero-line-scan 6s linear infinite; }
    #hcur { animation: hero-cursor 1.1s step-end infinite; }
  
</style>
</svg><mask id="satori_om-id-0-0"><rect x="1" y="1" width="0" height="320" fill="#fff" mask="url(#satori_om-id)"/></mask><mask id="satori_om-id-0-0-0"><rect x="1" y="1" width="0" height="320" fill="#fff" mask="url(#satori_om-id)"/></mask><mask id="satori_om-id-0-0-0-0"><rect x="1" y="1" width="0" height="320" fill="#fff" mask="url(#satori_om-id)"/></mask><mask id="satori_om-id-0-0-0-1"><rect x="1" y="1" width="0" height="320" fill="#fff" mask="url(#satori_om-id)"/></mask><mask id="satori_om-id-0-0-0-2"><rect x="1" y="1" width="0" height="320" fill="#fff" mask="url(#satori_om-id)"/></mask><mask id="satori_om-id-0-0-1"><rect x="1" y="1" width="0" height="320" fill="#fff" mask="url(#satori_om-id)"/></mask><mask id="satori_om-id-0-0-1-0"><rect x="1" y="1" width="0" height="320" fill="#fff" mask="url(#satori_om-id)"/></mask><mask id="satori_om-id-0-0-1-1"><rect x="1" y="1" width="0" height="320" fill="#fff" mask="url(#satori_om-id)"/></mask><mask id="satori_om-id-0-0-1-2"><rect x="1" y="1" width="0" height="320" fill="#fff" mask="url(#satori_om-id)"/></mask><mask id="satori_om-id-0-0-2"><rect x="1" y="1" width="0" height="320" fill="#fff" mask="url(#satori_om-id)"/></mask><mask id="satori_om-id-0-0-2-0"><rect x="1" y="1" width="0" height="320" fill="#fff" mask="url(#satori_om-id)"/></mask><mask id="satori_om-id-0-0-2-1"><rect x="1" y="1" width="0" height="320" fill="#fff" mask="url(#satori_om-id)"/></mask><mask id="satori_om-id-0-0-2-2"><rect x="1" y="1" width="0" height="320" fill="#fff" mask="url(#satori_om-id)"/></mask><mask id="satori_om-id-0-0-3"><rect x="1" y="1" width="0" height="320" fill="#fff" mask="url(#satori_om-id)"/></mask><mask id="satori_om-id-0-0-3-0"><rect x="1" y="1" width="0" height="320" fill="#fff" mask="url(#satori_om-id)"/></mask><mask id="satori_om-id-0-0-3-1"><rect x="1" y="1" width="0" height="320" fill="#fff" mask="url(#satori_om-id)"/></mask><mask id="satori_om-id-0-0-4"><rect x="1" y="1" width="0" height="320" fill="#fff" mask="url(#satori_om-id)"/></mask><mask id="satori_om-id-0-0-4-0"><rect x="1" y="1" width="0" height="320" fill="#fff" mask="url(#satori_om-id)"/></mask><mask id="satori_om-id-0-0-4-1"><rect x="1" y="1" width="0" height="320" fill="#fff" mask="url(#satori_om-id)"/></mask><mask id="satori_om-id-0-0-5"><rect x="1" y="1" width="0" height="320" fill="#fff" mask="url(#satori_om-id)"/></mask><mask id="satori_om-id-0-0-5-0"><rect x="1" y="1" width="0" height="320" fill="#fff" mask="url(#satori_om-id)"/></mask><mask id="satori_om-id-0-0-5-1"><rect x="1" y="1" width="0" height="320" fill="#fff" mask="url(#satori_om-id)"/></mask><mask id="satori_om-id-0-0-6"><rect x="1" y="1" width="0" height="320" fill="#fff" mask="url(#satori_om-id)"/></mask><mask id="satori_om-id-0-0-6-0"><rect x="1" y="1" width="0" height="320" fill="#fff" mask="url(#satori_om-id)"/></mask><mask id="satori_om-id-0-0-6-1"><rect x="1" y="1" width="0" height="320" fill="#fff" mask="url(#satori_om-id)"/></mask><mask id="satori_om-id-0-0-6-2"><rect x="1" y="1" width="0" height="320" fill="#fff" mask="url(#satori_om-id)"/></mask><mask id="satori_om-id-0-0-6-3"><rect x="1" y="1" width="0" height="320" fill="#fff" mask="url(#satori_om-id)"/></mask><mask id="satori_om-id-0-0-6-4"><rect x="1" y="1" width="0" height="320" fill="#fff" mask="url(#satori_om-id)"/></mask><mask id="satori_om-id-0-1"><rect x="1" y="1" width="0" height="320" fill="#fff" mask="url(#satori_om-id)"/></mask><mask id="satori_om-id-0-2"><rect x="1" y="1" width="0" height="320" fill="#fff" mask="url(#satori_om-id)"/></mask><mask id="satori_om-id-0-3"><rect x="1" y="1" width="0" height="320" fill="#fff" mask="url(#satori_om-id)"/></mask><mask id="satori_om-id-0-4"><rect x="1" y="1" width="0" height="320" fill="#fff" mask="url(#satori_om-id)"/></mask><mask id="satori_om-id-0-5"><rect x="1" y="1" width="0" height="320" fill="#fff" mask="url(#satori_om-id)"/></mask><mask id="satori_om-id-0-6"><rect x="1" y="1" width="0" height="320" fill="#fff" mask="url(#satori_om-id)"/></mask><mask id="satori_om-id-0-7"><rect x="1" y="1" width="0" height="320" fill="#fff" mask="url(#satori_om-id)"/></mask><mask id="satori_om-id-0-8"><rect x="1" y="1" width="0" height="320" fill="#fff" mask="url(#satori_om-id)"/></mask><mask id="satori_om-id-0-9"><rect x="1" y="1" width="0" height="320" fill="#fff" mask="url(#satori_om-id)"/></mask><mask id="satori_om-id-0-10"><rect x="1" y="1" width="0" height="320" fill="#fff" mask="url(#satori_om-id)"/></mask><mask id="satori_om-id-0-11"><rect x="1" y="1" width="0" height="320" fill="#fff" mask="url(#satori_om-id)"/></mask><mask id="satori_om-id-0-11-0"><rect x="1" y="1" width="0" height="320" fill="#fff" mask="url(#satori_om-id)"/></mask><mask id="satori_om-id-0-12"><rect x="1" y="1" width="0" height="320" fill="#fff" mask="url(#satori_om-id)"/></mask><mask id="satori_om-id-1"><rect x="120" y="79" width="620" height="162" fill="#fff" mask="url(#satori_om-id)"/></mask><mask id="satori_om-id-1-0"><rect x="348" y="79" width="164" height="13" fill="#fff" mask="url(#satori_om-id)"/></mask><g mask="url(#satori_om-id)" clip-path="url(#satori_cp-id)"><path fill="rgba(0,229,255,0.50)" d="M349.0 82.0L350.0 82.0L350.0 90L349.0 90L349.0 82.0ZM361.2 90.1L361.2 90.1Q360.1 90.1 359.3 89.6Q358.5 89.1 358.1 88.2Q357.6 87.3 357.6 86.0L357.6 86.0Q357.6 84.7 358.1 83.8Q358.5 82.9 359.3 82.4Q360.1 81.9 361.2 81.9L361.2 81.9Q362.2 81.9 363.0 82.4Q363.8 82.9 364.3 83.8Q364.7 84.7 364.7 86.0L364.7 86.0Q364.7 87.3 364.3 88.2Q363.8 89.1 363.0 89.6Q362.2 90.1 361.2 90.1ZM361.2 89.2L361.2 89.2Q361.9 89.2 362.5 88.8Q363.0 88.4 363.4 87.7Q363.7 87.0 363.7 86.0L363.7 86.0Q363.7 85.0 363.4 84.3Q363.0 83.6 362.5 83.2Q361.9 82.8 361.2 82.8L361.2 82.8Q360.4 82.8 359.9 83.2Q359.3 83.6 358.9 84.3Q358.6 85.0 358.6 86.0L358.6 86.0Q358.6 87.0 358.9 87.7Q359.3 88.4 359.9 88.8Q360.4 89.2 361.2 89.2ZM374.9 90.1L374.9 90.1Q374.0 90.1 373.4 89.9Q372.8 89.6 372.4 89.1Q372.0 88.6 372.0 87.9L372.0 87.9L373.0 87.9Q373.1 88.4 373.3 88.6Q373.6 88.9 374.0 89.1Q374.4 89.2 374.9 89.2L374.9 89.2Q375.4 89.2 375.9 89.0Q376.3 88.9 376.6 88.5Q376.8 88.2 376.8 87.8L376.8 87.8Q376.8 87.4 376.6 87.2Q376.4 86.9 376.0 86.8Q375.7 86.6 375.2 86.5L375.2 86.5L374.3 86.2Q373.3 86.0 372.8 85.4Q372.2 84.9 372.2 84.1L372.2 84.1Q372.2 83.5 372.6 83.0Q372.9 82.4 373.6 82.2Q374.2 81.9 375.0 81.9L375.0 81.9Q375.8 81.9 376.4 82.2Q377.0 82.4 377.3 82.9Q377.7 83.4 377.7 84.0L377.7 84.0L376.7 84.0Q376.6 83.4 376.1 83.1Q375.6 82.8 374.9 82.8L374.9 82.8Q374.4 82.8 374.0 83.0Q373.6 83.1 373.4 83.4Q373.2 83.7 373.2 84.1L373.2 84.1Q373.2 84.5 373.5 84.8Q373.7 85.0 374.1 85.2Q374.4 85.3 374.7 85.4L374.7 85.4L375.5 85.6Q375.9 85.7 376.2 85.8Q376.6 86.0 377.0 86.2Q377.3 86.5 377.6 86.9Q377.8 87.3 377.8 87.8L377.8 87.8Q377.8 88.5 377.5 89.0Q377.1 89.5 376.5 89.8Q375.8 90.1 374.9 90.1Z M397.0 90L397.0 90L394.5 90L394.5 82.0L397.1 82.0Q398.3 82.0 399.1 82.5Q399.9 83.0 400.4 83.8Q400.8 84.7 400.8 86.0L400.8 86.0Q400.8 87.2 400.4 88.1Q399.9 89.0 399.1 89.5Q398.2 90 397.0 90ZM395.5 82.9L395.5 89.1L396.9 89.1Q397.9 89.1 398.5 88.7Q399.2 88.4 399.5 87.7Q399.8 87.0 399.8 86.0L399.8 86.0Q399.8 85.0 399.5 84.3Q399.2 83.6 398.6 83.3Q397.9 82.9 397.0 82.9L397.0 82.9L395.5 82.9ZM413.3 90L408.4 90L408.4 82.0L413.3 82.0L413.3 82.9L409.4 82.9L409.4 85.5L413.0 85.5L413.0 86.4L409.4 86.4L409.4 89.1L413.3 89.1L413.3 90ZM424.5 90L423.3 90L420.3 82.0L421.4 82.0L423.1 86.7Q423.3 87.2 423.5 87.8L423.5 87.8Q423.7 88.4 423.9 89.2L423.9 89.2Q424.1 88.4 424.3 87.8L424.3 87.8Q424.5 87.2 424.6 86.7L424.6 86.7L426.3 82.0L427.4 82.0L424.5 90ZM439.5 90L434.6 90L434.6 82.0L439.5 82.0L439.5 82.9L435.6 82.9L435.6 85.5L439.2 85.5L439.2 86.4L435.6 86.4L435.6 89.1L439.5 89.1L439.5 90ZM452.0 90L447.2 90L447.2 82.0L448.3 82.0L448.3 89.1L452.0 89.1L452.0 90ZM462.7 90.1L462.7 90.1Q461.7 90.1 460.9 89.6Q460.1 89.1 459.6 88.2Q459.1 87.3 459.1 86.0L459.1 86.0Q459.1 84.7 459.6 83.8Q460.1 82.9 460.9 82.4Q461.7 81.9 462.7 81.9L462.7 81.9Q463.7 81.9 464.5 82.4Q465.3 82.9 465.8 83.8Q466.2 84.7 466.2 86.0L466.2 86.0Q466.2 87.3 465.8 88.2Q465.3 89.1 464.5 89.6Q463.7 90.1 462.7 90.1ZM462.7 89.2L462.7 89.2Q463.4 89.2 464.0 88.8Q464.6 88.4 464.9 87.7Q465.3 87.0 465.3 86.0L465.3 86.0Q465.3 85.0 464.9 84.3Q464.6 83.6 464.0 83.2Q463.4 82.8 462.7 82.8L462.7 82.8Q462.0 82.8 461.4 83.2Q460.8 83.6 460.5 84.3Q460.1 85.0 460.1 86.0L460.1 86.0Q460.1 87.0 460.5 87.7Q460.8 88.4 461.4 88.8Q462.0 89.2 462.7 89.2ZM474.9 90L473.9 90L473.9 82.0L476.6 82.0Q477.5 82.0 478.1 82.3Q478.7 82.7 479.0 83.3Q479.3 83.8 479.3 84.5Q479.3 85.3 479.0 85.8Q478.7 86.4 478.1 86.8Q477.5 87.1 476.6 87.1L476.6 87.1L474.9 87.1L474.9 90ZM474.9 82.9L474.9 86.2L476.6 86.2Q477.2 86.2 477.6 86.0Q478.0 85.8 478.1 85.4Q478.3 85.0 478.3 84.5Q478.3 84.1 478.1 83.7Q478.0 83.3 477.6 83.1Q477.2 82.9 476.6 82.9L476.6 82.9L474.9 82.9ZM491.8 90L486.9 90L486.9 82.0L491.8 82.0L491.8 82.9L487.9 82.9L487.9 85.5L491.5 85.5L491.5 86.4L487.9 86.4L487.9 89.1L491.8 89.1L491.8 90ZM500.5 90L499.5 90L499.5 82.0L502.2 82.0Q503.2 82.0 503.8 82.3Q504.4 82.6 504.7 83.2Q505.0 83.8 505.0 84.5Q505.0 85.2 504.7 85.7Q504.4 86.3 503.8 86.6L503.8 86.6Q503.6 86.7 503.5 86.7L503.5 86.7L505.3 90L504.1 90L502.4 86.9Q502.3 86.9 502.2 86.9L502.2 86.9L500.5 86.9L500.5 90ZM500.5 82.9L500.5 86.0L502.2 86.0Q502.8 86.0 503.2 85.8Q503.6 85.6 503.8 85.3Q504.0 84.9 504.0 84.5L504.0 84.5Q504.0 84.0 503.8 83.6Q503.6 83.3 503.2 83.1Q502.8 82.9 502.2 82.9L502.2 82.9L500.5 82.9Z "/></g><mask id="satori_om-id-1-1"><rect x="212" y="106" width="437" height="52" fill="#fff" mask="url(#satori_om-id)"/></mask><defs><filter id="satori_s-id-1-1-0" x="-906.18%" y="-7615.38%" width="1922.36%" height="15340.77%"><feDropShadow dx="0" dy="0" stdDeviation="30" flood-color="rgba(0,229,255,0.25)" flood-opacity="1" in="SourceGraphic" result="satori_s-id-1-1-0-result-0"/><feDropShadow dx="0" dy="0" stdDeviation="60" flood-color="rgba(139,92,246,0.15)" flood-opacity="1" in="SourceGraphic" result="satori_s-id-1-1-0-result-1"/><feMerge><feMergeNode in="satori_s-id-1-1-0-result-1"/><feMergeNode in="satori_s-id-1-1-0-result-0"/></feMerge></filter></defs><g filter="url(#satori_s-id-1-1-0)"><g mask="url(#satori_om-id)" clip-path="url(#satori_cp-id)"><path fill="#ffffff" d="M228.7 151L228.7 151L215.4 151L215.4 113.2L228.9 113.2Q234.5 113.2 238.6 115.4Q242.7 117.7 245.0 121.9Q247.2 126.2 247.2 132.1L247.2 132.1Q247.2 138.0 245.0 142.2Q242.7 146.5 238.6 148.7Q234.5 151 228.7 151ZM223.2 119.8L223.2 144.3L228.4 144.3Q232.0 144.3 234.5 143.0Q237.0 141.7 238.2 139.0Q239.4 136.3 239.4 132.1L239.4 132.1Q239.4 127.8 238.2 125.1Q236.9 122.4 234.5 121.1Q232.0 119.8 228.4 119.8L228.4 119.8L223.2 119.8ZM258.7 151.6L258.7 151.6Q256.0 151.6 253.9 150.6Q251.7 149.7 250.5 147.8Q249.3 145.9 249.3 143.1L249.3 143.1Q249.3 140.7 250.2 139.1Q251.0 137.5 252.5 136.5Q254.1 135.6 256.0 135.1Q257.9 134.5 260.0 134.3L260.0 134.3Q262.5 134.1 264.0 133.9Q265.5 133.7 266.2 133.2Q266.9 132.7 266.9 131.8L266.9 131.8L266.9 131.7Q266.9 130.5 266.4 129.6Q265.9 128.8 264.9 128.3Q263.9 127.9 262.4 127.9L262.4 127.9Q261.0 127.9 259.9 128.3Q258.8 128.8 258.1 129.5Q257.4 130.3 257.1 131.2L257.1 131.2L250.1 130.0Q250.8 127.5 252.5 125.8Q254.2 124.1 256.8 123.2Q259.3 122.3 262.5 122.3L262.5 122.3Q264.7 122.3 266.9 122.8Q269.1 123.3 270.8 124.5Q272.5 125.6 273.5 127.5Q274.5 129.3 274.5 131.9L274.5 131.9L274.5 151L267.3 151L267.3 147.1L267.0 147.1Q266.3 148.4 265.2 149.4Q264.1 150.4 262.4 151.0Q260.8 151.6 258.7 151.6ZM260.9 146.2L260.9 146.2Q262.7 146.2 264.0 145.5Q265.4 144.8 266.2 143.6Q266.9 142.3 266.9 140.8L266.9 140.8L266.9 137.8Q266.6 138.0 265.9 138.2Q265.2 138.4 264.4 138.6Q263.5 138.7 262.7 138.9Q261.9 139.0 261.3 139.1L261.3 139.1Q259.9 139.3 258.8 139.7Q257.8 140.2 257.2 140.9Q256.6 141.7 256.6 142.8L256.6 142.8Q256.6 143.9 257.2 144.7Q257.7 145.4 258.7 145.8Q259.6 146.2 260.9 146.2ZM286.6 134.6L286.6 134.6L286.6 151L279.0 151L279.0 122.6L286.2 122.6L286.3 128.5Q287.4 125.8 289.3 124.2L289.3 124.2Q291.5 122.3 295.1 122.3L295.1 122.3Q298.1 122.3 300.3 123.5Q302.5 124.8 303.7 127.2Q304.9 129.6 304.9 132.9L304.9 132.9L304.9 151L297.2 151L297.2 134.3Q297.2 131.6 295.9 130.1Q294.5 128.6 292.1 128.6L292.1 128.6Q290.5 128.6 289.3 129.3Q288.0 130.0 287.3 131.3Q286.6 132.7 286.6 134.6ZM317.0 151L309.4 151L309.4 122.6L317.0 122.6L317.0 151ZM313.2 118.9L313.2 118.9Q311.4 118.9 310.2 117.8Q309.0 116.6 309.0 115.0L309.0 115.0Q309.0 113.4 310.2 112.2Q311.4 111.1 313.2 111.1L313.2 111.1Q314.9 111.1 316.1 112.2Q317.4 113.3 317.4 115.0L317.4 115.0Q317.4 116.6 316.1 117.8Q314.9 118.9 313.2 118.9ZM321.3 161.1L321.3 161.1L323.0 155.3L323.9 155.5Q325.5 156.0 326.7 155.8Q327.9 155.6 328.6 154.8Q329.3 154.0 329.5 152.6L329.5 152.6L329.7 151.1L319.0 122.6L327.1 122.6L331.9 137.3Q332.7 140.1 333.3 142.9L333.3 142.9Q333.5 143.9 333.7 144.8L333.7 144.8Q333.9 143.9 334.1 142.9L334.1 142.9Q334.8 140.1 335.7 137.3L335.7 137.3L340.7 122.6L348.7 122.6L336.6 154.4Q335.8 156.6 334.4 158.3Q333.1 160.0 331.1 160.9Q329.1 161.8 326.2 161.8L326.2 161.8Q324.7 161.8 323.4 161.6Q322.1 161.4 321.3 161.1ZM358.7 151.6L358.7 151.6Q356.0 151.6 353.8 150.6Q351.7 149.7 350.5 147.8Q349.2 145.9 349.2 143.1L349.2 143.1Q349.2 140.7 350.1 139.1Q351.0 137.5 352.5 136.5Q354.0 135.6 355.9 135.1Q357.8 134.5 360.0 134.3L360.0 134.3Q362.4 134.1 363.9 133.9Q365.4 133.7 366.1 133.2Q366.8 132.7 366.8 131.8L366.8 131.8L366.8 131.7Q366.8 130.5 366.3 129.6Q365.8 128.8 364.8 128.3Q363.8 127.9 362.4 127.9L362.4 127.9Q360.9 127.9 359.8 128.3Q358.7 128.8 358.1 129.5Q357.4 130.3 357.0 131.2L357.0 131.2L350.1 130.0Q350.8 127.5 352.5 125.8Q354.2 124.1 356.7 123.2Q359.2 122.3 362.4 122.3L362.4 122.3Q364.7 122.3 366.9 122.8Q369.0 123.3 370.7 124.5Q372.4 125.6 373.5 127.5Q374.5 129.3 374.5 131.9L374.5 131.9L374.5 151L367.2 151L367.2 147.1L367.0 147.1Q366.3 148.4 365.2 149.4Q364.0 150.4 362.4 151.0Q360.8 151.6 358.7 151.6ZM360.8 146.2L360.8 146.2Q362.6 146.2 364.0 145.5Q365.4 144.8 366.1 143.6Q366.9 142.3 366.9 140.8L366.9 140.8L366.9 137.8Q366.6 138.0 365.9 138.2Q365.2 138.4 364.3 138.6Q363.5 138.7 362.7 138.9Q361.9 139.0 361.3 139.1L361.3 139.1Q359.9 139.3 358.8 139.7Q357.7 140.2 357.1 140.9Q356.6 141.7 356.6 142.8L356.6 142.8Q356.6 143.9 357.1 144.7Q357.7 145.4 358.6 145.8Q359.6 146.2 360.8 146.2ZM386.6 151L379.0 151L379.0 122.6L386.3 122.6L386.3 127.6L386.6 127.6Q387.4 124.9 389.2 123.6Q391.1 122.2 393.5 122.2L393.5 122.2Q394.1 122.2 394.7 122.3Q395.4 122.4 395.9 122.5L395.9 122.5L395.9 129.3Q395.4 129.1 394.5 129.0Q393.5 128.9 392.6 128.9L392.6 128.9Q390.9 128.9 389.5 129.7Q388.1 130.4 387.3 131.7Q386.6 133.1 386.6 134.9L386.6 134.9L386.6 151Z M428.2 151L420.5 151L420.5 136.8L406.4 113.2L415.5 113.2L421.9 124.9Q422.9 126.7 423.7 128.5L423.7 128.5Q424.0 129.3 424.4 130.2L424.4 130.2Q424.7 129.3 425.0 128.5L425.0 128.5Q425.8 126.7 426.7 124.9L426.7 124.9L432.9 113.2L442.0 113.2L428.2 136.8L428.2 151ZM457.3 151.6L457.3 151.6Q452.9 151.6 449.8 149.8Q446.6 148.0 444.9 144.7Q443.3 141.5 443.3 137.0L443.3 137.0Q443.3 132.6 444.9 129.3Q446.6 126.0 449.7 124.1Q452.8 122.3 456.9 122.3L456.9 122.3Q459.7 122.3 462.1 123.1Q464.5 124.0 466.3 125.8Q468.2 127.6 469.2 130.3Q470.2 133.0 470.2 136.7L470.2 136.7L470.2 138.8L450.8 138.8Q450.9 140.9 451.6 142.5L451.6 142.5Q452.5 144.1 453.9 145.0Q455.4 145.8 457.4 145.8L457.4 145.8Q458.7 145.8 459.8 145.4Q460.9 145.1 461.7 144.3Q462.5 143.6 462.9 142.5L462.9 142.5L469.8 143.8Q469.1 146.1 467.4 147.9Q465.7 149.6 463.2 150.6Q460.6 151.6 457.3 151.6ZM450.9 134.0L450.9 134.0L462.9 134.0Q462.7 132.6 462.3 131.4L462.3 131.4Q461.6 129.8 460.3 128.9Q458.9 128.0 457.0 128.0L457.0 128.0Q455.0 128.0 453.6 128.9Q452.2 129.8 451.5 131.4L451.5 131.4Q451.0 132.6 450.9 134.0ZM486.0 162.2L486.0 162.2Q482.5 162.2 479.9 161.3Q477.2 160.4 475.6 158.8Q473.9 157.3 473.3 155.3L473.3 155.3L479.8 153.4Q480.2 154.2 480.9 155.0Q481.7 155.7 482.9 156.2Q484.2 156.7 486.0 156.7L486.0 156.7Q488.9 156.7 490.6 155.4Q492.2 154.0 492.2 151.2L492.2 151.2L492.2 146.0L491.7 146.0Q491.2 147.1 490.2 148.2Q489.2 149.2 487.7 149.9Q486.1 150.6 483.8 150.6L483.8 150.6Q480.6 150.6 478.0 149.1Q475.4 147.6 473.8 144.5Q472.2 141.5 472.2 136.8L472.2 136.8Q472.2 132.0 473.8 128.7Q475.4 125.5 478.0 123.9Q480.7 122.3 483.8 122.3L483.8 122.3Q486.2 122.3 487.8 123.1Q489.5 123.9 490.5 125.1Q491.5 126.3 492.0 127.4L492.0 127.4L492.3 127.4L492.3 122.6L499.8 122.6L499.8 150.8Q499.8 154.6 498.0 157.1Q496.3 159.7 493.2 161.0Q490.1 162.2 486.0 162.2ZM486.2 144.8L486.2 144.8Q488.1 144.8 489.5 143.8Q490.8 142.9 491.6 141.1Q492.3 139.2 492.3 136.7L492.3 136.7Q492.3 134.2 491.6 132.3Q490.8 130.4 489.5 129.4Q488.1 128.4 486.2 128.4L486.2 128.4Q484.2 128.4 482.8 129.4Q481.5 130.5 480.8 132.4Q480.1 134.3 480.1 136.7L480.1 136.7Q480.1 139.2 480.8 141.0Q481.5 142.8 482.8 143.8Q484.2 144.8 486.2 144.8ZM517.1 151.6L517.1 151.6Q512.8 151.6 509.6 149.8Q506.5 148.0 504.8 144.7Q503.1 141.5 503.1 137.0L503.1 137.0Q503.1 132.6 504.8 129.3Q506.4 126.0 509.5 124.1Q512.6 122.3 516.7 122.3L516.7 122.3Q519.5 122.3 521.9 123.1Q524.3 124.0 526.2 125.8Q528 127.6 529.0 130.3Q530.1 133.0 530.1 136.7L530.1 136.7L530.1 138.8L510.6 138.8Q510.7 140.9 511.5 142.5L511.5 142.5Q512.3 144.1 513.8 145.0Q515.3 145.8 517.2 145.8L517.2 145.8Q518.6 145.8 519.7 145.4Q520.8 145.1 521.5 144.3Q522.3 143.6 522.7 142.5L522.7 142.5L529.6 143.8Q528.9 146.1 527.2 147.9Q525.5 149.6 523.0 150.6Q520.4 151.6 517.1 151.6ZM510.7 134.0L510.7 134.0L522.7 134.0Q522.6 132.6 522.1 131.4L522.1 131.4Q521.4 129.8 520.1 128.9Q518.8 128.0 516.8 128.0L516.8 128.0Q514.8 128.0 513.4 128.9Q512.1 129.8 511.3 131.4L511.3 131.4Q510.8 132.6 510.7 134.0ZM543.0 151.4L543.0 151.4Q540.1 151.4 537.9 150.1Q535.7 148.8 534.5 146.4Q533.3 144.0 533.3 140.7L533.3 140.7L533.3 122.6L540.9 122.6L540.9 139.3Q540.9 142.0 542.3 143.5Q543.6 145.0 546.0 145.0L546.0 145.0Q547.6 145.0 548.9 144.3Q550.1 143.6 550.8 142.3Q551.5 140.9 551.5 139.0L551.5 139.0L551.5 122.6L559.2 122.6L559.2 151L551.9 151L551.9 145.1Q550.8 147.8 548.9 149.4L548.9 149.4Q546.6 151.4 543.0 151.4ZM579.5 151.5L579.5 151.5Q577.2 151.5 575.6 150.7Q574.0 149.9 573.0 148.8Q572.0 147.6 571.5 146.5L571.5 146.5L571.1 146.5L571.1 151L563.6 151L563.6 113.2L571.3 113.2L571.3 127.4L571.5 127.4Q572.0 126.3 573.0 125.1Q574.0 123.9 575.6 123.1Q577.2 122.3 579.6 122.3L579.6 122.3Q582.7 122.3 585.3 123.9Q588.0 125.5 589.5 128.8Q591.1 132.0 591.1 136.9L591.1 136.9Q591.1 141.6 589.6 144.8Q588.0 148.1 585.4 149.8Q582.8 151.5 579.5 151.5ZM577.2 145.4L577.2 145.4Q579.2 145.4 580.5 144.3Q581.9 143.2 582.6 141.3Q583.3 139.3 583.3 136.8L583.3 136.8Q583.3 134.3 582.6 132.4Q581.9 130.5 580.5 129.4Q579.2 128.4 577.2 128.4L577.2 128.4Q575.2 128.4 573.9 129.4Q572.5 130.5 571.8 132.4Q571.1 134.2 571.1 136.8L571.1 136.8Q571.1 139.4 571.8 141.3Q572.5 143.2 573.9 144.3Q575.3 145.4 577.2 145.4ZM602.3 151.6L602.3 151.6Q599.6 151.6 597.5 150.6Q595.4 149.7 594.1 147.8Q592.9 145.9 592.9 143.1L592.9 143.1Q592.9 140.7 593.8 139.1Q594.6 137.5 596.2 136.5Q597.7 135.6 599.6 135.1Q601.5 134.5 603.6 134.3L603.6 134.3Q606.1 134.1 607.6 133.9Q609.1 133.7 609.8 133.2Q610.5 132.7 610.5 131.8L610.5 131.8L610.5 131.7Q610.5 130.5 610.0 129.6Q609.5 128.8 608.5 128.3Q607.5 127.9 606.0 127.9L606.0 127.9Q604.6 127.9 603.5 128.3Q602.4 128.8 601.7 129.5Q601.0 130.3 600.7 131.2L600.7 131.2L593.7 130.0Q594.4 127.5 596.1 125.8Q597.8 124.1 600.4 123.2Q602.9 122.3 606.1 122.3L606.1 122.3Q608.4 122.3 610.5 122.8Q612.7 123.3 614.4 124.5Q616.1 125.6 617.1 127.5Q618.1 129.3 618.1 131.9L618.1 131.9L618.1 151L610.9 151L610.9 147.1L610.6 147.1Q610.0 148.4 608.8 149.4Q607.7 150.4 606.1 151.0Q604.4 151.6 602.3 151.6ZM604.5 146.2L604.5 146.2Q606.3 146.2 607.7 145.5Q609.0 144.8 609.8 143.6Q610.5 142.3 610.5 140.8L610.5 140.8L610.5 137.8Q610.2 138.0 609.5 138.2Q608.8 138.4 608.0 138.6Q607.2 138.7 606.3 138.9Q605.5 139.0 604.9 139.1L604.9 139.1Q603.5 139.3 602.4 139.7Q601.4 140.2 600.8 140.9Q600.2 141.7 600.2 142.8L600.2 142.8Q600.2 143.9 600.8 144.7Q601.3 145.4 602.3 145.8Q603.3 146.2 604.5 146.2ZM622.4 161.1L622.4 161.1L624.2 155.3L625.1 155.5Q626.6 156.0 627.8 155.8Q629.0 155.6 629.7 154.8Q630.4 154.0 630.6 152.6L630.6 152.6L630.8 151.1L620.1 122.6L628.2 122.6L633.0 137.3Q633.9 140.1 634.4 142.9L634.4 142.9Q634.6 143.9 634.8 144.8L634.8 144.8Q635.0 143.9 635.3 142.9L635.3 142.9Q636.0 140.1 636.9 137.3L636.9 137.3L641.8 122.6L649.8 122.6L637.8 154.4Q636.9 156.6 635.6 158.3Q634.2 160.0 632.2 160.9Q630.2 161.8 627.4 161.8L627.4 161.8Q625.9 161.8 624.5 161.6Q623.2 161.4 622.4 161.1Z "/></g></g><mask id="satori_om-id-1-2"><rect x="201" y="174" width="459" height="18" fill="#fff" mask="url(#satori_om-id)"/></mask><mask id="satori_om-id-1-2-0"><rect x="201" y="174" width="446" height="18" fill="#fff" mask="url(#satori_om-id)"/></mask><g mask="url(#satori_om-id)" clip-path="url(#satori_cp-id)"><path fill="rgba(180,190,255,0.70)" d="M209.6 184.3L209.6 185.2L202.7 188.7L202.7 187.3L208.0 184.8L208.0 184.7L202.7 182.2L202.7 180.8L209.6 184.3Z M218.9 189L217.5 189L217.5 178.1L219.1 178.1L223.5 185.1Q223.7 185.3 224.0 185.8Q224.2 186.2 224.5 186.7L224.5 186.7Q224.7 187.0 224.8 187.3L224.8 187.3Q224.8 187.0 224.8 186.7L224.8 186.7Q224.7 186.1 224.7 185.6Q224.7 185.1 224.7 184.8L224.7 184.8L224.7 178.1L226.1 178.1L226.1 189L224.5 189L220.5 182.8Q220.2 182.4 220.0 181.9Q219.7 181.4 219.3 180.8L219.3 180.8Q219.1 180.4 218.8 179.8L218.8 179.8Q218.8 180.3 218.8 180.8L218.8 180.8Q218.8 181.5 218.8 182.0Q218.9 182.5 218.9 182.8L218.9 182.8L218.9 189ZM231.4 189.2L231.4 189.2Q230.6 189.2 230.0 188.9Q229.4 188.6 229.0 188.0Q228.6 187.5 228.6 186.7L228.6 186.7Q228.6 186.0 228.9 185.5Q229.2 185.1 229.6 184.8Q230.1 184.6 230.7 184.5Q231.2 184.3 231.8 184.3L231.8 184.3Q232.5 184.2 233.0 184.1Q233.4 184.1 233.7 183.9Q233.9 183.8 233.9 183.5L233.9 183.5L233.9 183.5Q233.9 183.0 233.7 182.6Q233.5 182.2 233.1 182.1Q232.7 181.9 232.2 181.9L232.2 181.9Q231.6 181.9 231.2 182.0Q230.8 182.2 230.5 182.5Q230.2 182.8 230.1 183.1L230.1 183.1L228.8 182.6Q229.2 181.9 229.7 181.5Q230.2 181.1 230.9 180.9Q231.5 180.7 232.1 180.7L232.1 180.7Q232.6 180.7 233.1 180.8Q233.6 180.9 234.1 181.2Q234.6 181.5 234.9 182.1Q235.2 182.6 235.2 183.6L235.2 183.6L235.2 189L233.9 189L233.9 187.9L233.8 187.9Q233.7 188.2 233.4 188.5Q233.1 188.8 232.6 189.0Q232.1 189.2 231.4 189.2ZM231.6 188.0L231.6 188.0Q232.4 188.0 232.9 187.7Q233.4 187.5 233.6 187.0Q233.9 186.5 233.9 186.0L233.9 186.0L233.9 184.9Q233.8 185.0 233.5 185.1Q233.3 185.2 232.9 185.2Q232.6 185.3 232.2 185.3Q231.9 185.4 231.7 185.4L231.7 185.4Q231.3 185.4 230.8 185.6Q230.4 185.7 230.2 186.0Q229.9 186.3 229.9 186.7L229.9 186.7Q229.9 187.2 230.1 187.4Q230.4 187.7 230.7 187.9Q231.1 188.0 231.6 188.0ZM239.6 180.8L241.2 180.8L241.2 181.9L239.6 181.9L239.6 186.9Q239.6 187.4 239.8 187.7Q240.0 187.9 240.5 187.9L240.5 187.9Q240.7 187.9 240.8 187.9Q241.0 187.9 241.2 187.8L241.2 187.8L241.5 189.0Q241.3 189.0 241.0 189.1Q240.7 189.1 240.5 189.1L240.5 189.1Q239.4 189.1 238.8 188.5Q238.2 188.0 238.2 187.0L238.2 187.0L238.2 181.9L237.0 181.9L237.0 180.8L238.2 180.8L238.2 178.9L239.6 178.9L239.6 180.8ZM244.8 189L243.4 189L243.4 180.8L244.8 180.8L244.8 189ZM244.1 179.5L244.1 179.5Q243.7 179.5 243.5 179.2Q243.2 179.0 243.2 178.6L243.2 178.6Q243.2 178.2 243.5 178.0Q243.7 177.7 244.1 177.7L244.1 177.7Q244.5 177.7 244.8 178.0Q245.0 178.2 245.0 178.6L245.0 178.6Q245.0 179.0 244.8 179.2Q244.5 179.5 244.1 179.5ZM251.3 189L249.9 189L246.8 180.8L248.2 180.8L250.0 185.7Q250.3 186.4 250.5 187.2L250.5 187.2Q250.5 187.5 250.6 187.8L250.6 187.8Q250.7 187.5 250.8 187.2L250.8 187.2Q251.0 186.4 251.3 185.7L251.3 185.7L253.0 180.8L254.4 180.8L251.3 189ZM259.9 189.2L259.9 189.2Q258.8 189.2 257.9 188.6Q257.0 188.1 256.6 187.2Q256.1 186.2 256.1 185.0Q256.1 183.7 256.6 182.8Q257.0 181.8 257.8 181.3Q258.7 180.7 259.8 180.7L259.8 180.7Q260.4 180.7 261.1 180.9Q261.7 181.1 262.2 181.6Q262.7 182.1 263.0 182.9Q263.4 183.7 263.4 184.8L263.4 184.8L263.4 185.4L257.4 185.4Q257.5 186.1 257.7 186.7L257.7 186.7Q258.1 187.4 258.6 187.7Q259.2 188.0 259.9 188.0L259.9 188.0Q260.4 188.0 260.8 187.9Q261.2 187.7 261.5 187.4Q261.8 187.2 261.9 186.7L261.9 186.7L263.2 187.1Q263.0 187.7 262.6 188.2Q262.1 188.6 261.4 188.9Q260.8 189.2 259.9 189.2ZM257.4 184.2L257.4 184.2L262.0 184.2Q262.0 183.7 261.8 183.2L261.8 183.2Q261.5 182.6 261.0 182.2Q260.5 181.9 259.8 181.9Q259.0 181.9 258.5 182.2Q258.0 182.6 257.7 183.2L257.7 183.2Q257.5 183.7 257.4 184.2Z M271.2 189L269.7 189L273.6 178.1L275.3 178.1L279.3 189L277.8 189L276.7 186.0L272.2 186.0L271.2 189ZM272.6 184.7L276.3 184.7L275.5 182.5Q275.3 181.9 275.0 181.0L275.0 181.0Q274.8 180.3 274.4 179.2L274.4 179.2Q274.1 180.3 273.9 181.1L273.9 181.1Q273.6 182.0 273.4 182.5L273.4 182.5L272.6 184.7ZM282.6 192.1L281.3 192.1L281.3 180.8L282.6 180.8L282.6 182.1L282.7 182.1Q282.9 181.9 283.1 181.6Q283.4 181.2 283.8 181.0Q284.3 180.7 285.1 180.7L285.1 180.7Q286.1 180.7 286.9 181.2Q287.7 181.7 288.1 182.7Q288.6 183.6 288.6 184.9L288.6 184.9Q288.6 186.2 288.1 187.2Q287.7 188.1 286.9 188.7Q286.1 189.2 285.1 189.2L285.1 189.2Q284.3 189.2 283.9 188.9Q283.4 188.6 283.1 188.3Q282.9 188.0 282.7 187.7L282.7 187.7L282.6 187.7L282.6 192.1ZM284.9 188.0L284.9 188.0Q285.7 188.0 286.2 187.6Q286.7 187.2 287.0 186.5Q287.2 185.8 287.2 184.9L287.2 184.9Q287.2 184.1 287.0 183.4Q286.7 182.7 286.2 182.3Q285.7 181.9 284.9 181.9L284.9 181.9Q284.2 181.9 283.6 182.3Q283.1 182.6 282.9 183.3Q282.6 184.0 282.6 184.9L282.6 184.9Q282.6 185.8 282.9 186.5Q283.1 187.2 283.7 187.6Q284.2 188.0 284.9 188.0ZM292.3 192.1L291.0 192.1L291.0 180.8L292.3 180.8L292.3 182.1L292.4 182.1Q292.6 181.9 292.8 181.6Q293.1 181.2 293.5 181.0Q294.0 180.7 294.8 180.7L294.8 180.7Q295.8 180.7 296.6 181.2Q297.4 181.7 297.8 182.7Q298.3 183.6 298.3 184.9L298.3 184.9Q298.3 186.2 297.8 187.2Q297.4 188.1 296.6 188.7Q295.8 189.2 294.8 189.2L294.8 189.2Q294.0 189.2 293.5 188.9Q293.1 188.6 292.8 188.3Q292.6 188.0 292.4 187.7L292.4 187.7L292.3 187.7L292.3 192.1ZM294.6 188.0L294.6 188.0Q295.4 188.0 295.9 187.6Q296.4 187.2 296.7 186.5Q296.9 185.8 296.9 184.9L296.9 184.9Q296.9 184.1 296.7 183.4Q296.4 182.7 295.9 182.3Q295.4 181.9 294.6 181.9L294.6 181.9Q293.8 181.9 293.3 182.3Q292.8 182.6 292.6 183.3Q292.3 184.0 292.3 184.9L292.3 184.9Q292.3 185.8 292.6 186.5Q292.8 187.2 293.3 187.6Q293.9 188.0 294.6 188.0ZM300.7 178.1L302.0 178.1L302.0 189L300.7 189L300.7 178.1ZM308.3 189.2L308.3 189.2Q307.1 189.2 306.2 188.6Q305.3 188.1 304.9 187.2Q304.4 186.2 304.4 185.0Q304.4 183.7 304.9 182.8Q305.3 181.8 306.2 181.3Q307.0 180.7 308.1 180.7L308.1 180.7Q308.8 180.7 309.4 180.9Q310.0 181.1 310.5 181.6Q311.0 182.1 311.4 182.9Q311.7 183.7 311.7 184.8L311.7 184.8L311.7 185.4L305.7 185.4Q305.8 186.1 306.1 186.7L306.1 186.7Q306.4 187.4 306.9 187.7Q307.5 188.0 308.3 188.0L308.3 188.0Q308.7 188.0 309.1 187.9Q309.5 187.7 309.8 187.4Q310.1 187.2 310.3 186.7L310.3 186.7L311.5 187.1Q311.3 187.7 310.9 188.2Q310.4 188.6 309.8 188.9Q309.1 189.2 308.3 189.2ZM305.8 184.2L305.8 184.2L310.3 184.2Q310.3 183.7 310.1 183.2L310.1 183.2Q309.8 182.6 309.3 182.2Q308.8 181.9 308.1 181.9Q307.4 181.9 306.8 182.2Q306.3 182.6 306.0 183.2L306.0 183.2Q305.8 183.7 305.8 184.2Z M321.1 189.2L321.1 189.2Q320.3 189.2 319.7 188.9Q319.0 188.6 318.6 188.0Q318.3 187.5 318.3 186.7L318.3 186.7Q318.3 186.0 318.6 185.5Q318.8 185.1 319.3 184.8Q319.8 184.6 320.3 184.5Q320.9 184.3 321.5 184.3L321.5 184.3Q322.2 184.2 322.7 184.1Q323.1 184.1 323.3 183.9Q323.6 183.8 323.6 183.5L323.6 183.5L323.6 183.5Q323.6 183.0 323.4 182.6Q323.2 182.2 322.8 182.1Q322.4 181.9 321.8 181.9L321.8 181.9Q321.3 181.9 320.8 182.0Q320.4 182.2 320.2 182.5Q319.9 182.8 319.8 183.1L319.8 183.1L318.5 182.6Q318.8 181.9 319.4 181.5Q319.9 181.1 320.5 180.9Q321.2 180.7 321.8 180.7L321.8 180.7Q322.2 180.7 322.7 180.8Q323.3 180.9 323.8 181.2Q324.2 181.5 324.6 182.1Q324.9 182.6 324.9 183.6L324.9 183.6L324.9 189L323.6 189L323.6 187.9L323.5 187.9Q323.4 188.2 323.1 188.5Q322.7 188.8 322.3 189.0Q321.8 189.2 321.1 189.2ZM321.3 188.0L321.3 188.0Q322.0 188.0 322.5 187.7Q323.0 187.5 323.3 187.0Q323.6 186.5 323.6 186.0L323.6 186.0L323.6 184.9Q323.5 185.0 323.2 185.1Q322.9 185.2 322.6 185.2Q322.2 185.3 321.9 185.3Q321.6 185.4 321.4 185.4L321.4 185.4Q320.9 185.4 320.5 185.6Q320.1 185.7 319.9 186.0Q319.6 186.3 319.6 186.7L319.6 186.7Q319.6 187.2 319.8 187.4Q320.0 187.7 320.4 187.9Q320.8 188.0 321.3 188.0ZM329.0 192.1L327.7 192.1L327.7 180.8L329.0 180.8L329.0 182.1L329.1 182.1Q329.3 181.9 329.5 181.6Q329.8 181.2 330.2 181.0Q330.7 180.7 331.5 180.7L331.5 180.7Q332.5 180.7 333.3 181.2Q334.1 181.7 334.5 182.7Q335.0 183.6 335.0 184.9L335.0 184.9Q335.0 186.2 334.5 187.2Q334.1 188.1 333.3 188.7Q332.5 189.2 331.5 189.2L331.5 189.2Q330.7 189.2 330.2 188.9Q329.8 188.6 329.5 188.3Q329.3 188.0 329.1 187.7L329.1 187.7L329.0 187.7L329.0 192.1ZM331.3 188.0L331.3 188.0Q332.1 188.0 332.6 187.6Q333.1 187.2 333.4 186.5Q333.6 185.8 333.6 184.9L333.6 184.9Q333.6 184.1 333.4 183.4Q333.1 182.7 332.6 182.3Q332.1 181.9 331.3 181.9L331.3 181.9Q330.5 181.9 330.0 182.3Q329.5 182.6 329.3 183.3Q329 184.0 329 184.9L329 184.9Q329 185.8 329.3 186.5Q329.5 187.2 330.0 187.6Q330.6 188.0 331.3 188.0ZM338.7 192.1L337.4 192.1L337.4 180.8L338.7 180.8L338.7 182.1L338.8 182.1Q338.9 181.9 339.2 181.6Q339.4 181.2 339.9 181.0Q340.4 180.7 341.2 180.7L341.2 180.7Q342.2 180.7 343.0 181.2Q343.8 181.7 344.2 182.7Q344.6 183.6 344.6 184.9L344.6 184.9Q344.6 186.2 344.2 187.2Q343.8 188.1 343.0 188.7Q342.2 189.2 341.2 189.2L341.2 189.2Q340.4 189.2 339.9 188.9Q339.5 188.6 339.2 188.3Q338.9 188.0 338.8 187.7L338.8 187.7L338.7 187.7L338.7 192.1ZM341.0 188.0L341.0 188.0Q341.8 188.0 342.3 187.6Q342.8 187.2 343.0 186.5Q343.3 185.8 343.3 184.9L343.3 184.9Q343.3 184.1 343.0 183.4Q342.8 182.7 342.3 182.3Q341.8 181.9 341.0 181.9L341.0 181.9Q340.2 181.9 339.7 182.3Q339.2 182.6 338.9 183.3Q338.7 184.0 338.7 184.9L338.7 184.9Q338.7 185.8 338.9 186.5Q339.2 187.2 339.7 187.6Q340.2 188.0 341.0 188.0ZM349.8 189.2L349.8 189.2Q349.0 189.2 348.4 188.9Q347.7 188.7 347.3 188.2Q346.8 187.7 346.7 187.0L346.7 187.0L348.0 186.7Q348.1 187.4 348.6 187.7Q349.1 188.0 349.8 188.0L349.8 188.0Q350.7 188.0 351.2 187.7Q351.7 187.3 351.7 186.8L351.7 186.8Q351.7 186.4 351.4 186.1Q351.1 185.8 350.5 185.7L350.5 185.7L349.1 185.3Q348.0 185.1 347.5 184.5Q346.9 184.0 346.9 183.1L346.9 183.1Q346.9 182.4 347.3 181.9Q347.7 181.3 348.4 181.0Q349.1 180.7 350.0 180.7L350.0 180.7Q350.8 180.7 351.4 181.0Q352.0 181.2 352.4 181.7Q352.7 182.1 352.9 182.7L352.9 182.7L351.7 183.0Q351.6 182.5 351.2 182.2Q350.8 181.8 350.0 181.8L350.0 181.8Q349.3 181.8 348.8 182.2Q348.3 182.5 348.3 183.0L348.3 183.0Q348.3 183.5 348.6 183.7Q348.9 184.0 349.7 184.2L349.7 184.2L350.9 184.5Q352.0 184.7 352.5 185.3Q353.1 185.9 353.1 186.7L353.1 186.7Q353.1 187.4 352.7 188.0Q352.3 188.5 351.5 188.9Q350.8 189.2 349.8 189.2Z M361.2 184.8L361.2 184.8Q360.8 184.8 360.5 184.5Q360.2 184.2 360.2 183.8L360.2 183.8Q360.2 183.4 360.5 183.1Q360.8 182.8 361.2 182.8L361.2 182.8Q361.6 182.8 361.9 183.1Q362.2 183.4 362.2 183.8L362.2 183.8Q362.2 184.2 361.9 184.5Q361.6 184.8 361.2 184.8Z M373.4 189.2L373.4 189.2Q372.2 189.2 371.3 188.8Q370.5 188.4 370.0 187.7Q369.5 187.1 369.4 186.1L369.4 186.1L370.9 186.1Q370.9 186.8 371.3 187.2Q371.6 187.6 372.2 187.8Q372.8 187.9 373.4 187.9L373.4 187.9Q374.1 187.9 374.7 187.7Q375.3 187.5 375.7 187.0Q376.0 186.6 376.0 186.0L376.0 186.0Q376.0 185.5 375.7 185.1Q375.4 184.8 374.9 184.6Q374.4 184.4 373.8 184.2L373.8 184.2L372.5 183.9Q371.2 183.5 370.5 182.8Q369.7 182.1 369.7 181.0L369.7 181.0Q369.7 180.1 370.2 179.4Q370.7 178.7 371.6 178.3Q372.4 177.9 373.5 177.9L373.5 177.9Q374.6 177.9 375.4 178.3Q376.2 178.7 376.7 179.4Q377.2 180.0 377.2 180.8L377.2 180.8L375.9 180.8Q375.8 180.0 375.1 179.6Q374.4 179.2 373.4 179.2L373.4 179.2Q372.7 179.2 372.2 179.4Q371.7 179.6 371.4 180.0Q371.1 180.4 371.1 180.9L371.1 180.9Q371.1 181.5 371.5 181.9Q371.8 182.2 372.3 182.4Q372.8 182.6 373.2 182.7L373.2 182.7L374.3 183.0Q374.7 183.1 375.2 183.3Q375.8 183.5 376.3 183.9Q376.7 184.2 377.0 184.7Q377.4 185.3 377.4 186.0L377.4 186.0Q377.4 186.9 376.9 187.6Q376.4 188.4 375.5 188.8Q374.7 189.2 373.4 189.2ZM383.0 189L381.7 189L379.2 180.8L380.6 180.8L381.6 184.4Q381.8 185.1 382.1 186.0L382.1 186.0Q382.2 186.7 382.4 187.6L382.4 187.6Q382.6 186.8 382.7 186.1L382.7 186.1Q383.0 185.2 383.2 184.4L383.2 184.4L384.2 180.8L385.6 180.8L386.5 184.4Q386.7 185.1 387.0 186.1L387.0 186.1Q387.1 186.8 387.3 187.6L387.3 187.6Q387.5 186.8 387.6 186.1L387.6 186.1Q387.9 185.2 388.1 184.4L388.1 184.4L389.1 180.8L390.5 180.8L388.0 189L386.7 189L385.6 185.3Q385.5 184.7 385.3 184.1Q385.1 183.6 385 182.9L385 182.9Q384.9 182.6 384.8 182.3L384.8 182.3Q384.8 182.6 384.7 182.9L384.7 182.9Q384.5 183.6 384.4 184.2Q384.2 184.7 384.1 185.3L384.1 185.3L383.0 189ZM394.0 189L392.6 189L392.6 180.8L394.0 180.8L394.0 189ZM393.3 179.5L393.3 179.5Q392.9 179.5 392.7 179.2Q392.4 179.0 392.4 178.6L392.4 178.6Q392.4 178.2 392.7 178.0Q392.9 177.7 393.3 177.7L393.3 177.7Q393.7 177.7 394.0 178.0Q394.2 178.2 394.2 178.6L394.2 178.6Q394.2 179.0 394.0 179.2Q393.7 179.5 393.3 179.5ZM398.7 180.8L400.6 180.8L400.6 181.9L398.7 181.9L398.7 189L397.4 189L397.4 181.9L395.8 181.9L395.8 180.8L397.4 180.8L397.4 179.7Q397.4 179.0 397.7 178.5Q398.0 178.1 398.6 177.8Q399.1 177.6 399.7 177.6L399.7 177.6Q400.2 177.6 400.5 177.7Q400.8 177.7 400.9 177.8L400.9 177.8L400.6 178.9Q400.5 178.9 400.3 178.8Q400.1 178.8 399.9 178.8L399.9 178.8Q399.2 178.8 399.0 179.1Q398.7 179.4 398.7 180.0L398.7 180.0L398.7 180.8ZM404.4 180.8L406.0 180.8L406.0 181.9L404.4 181.9L404.4 186.9Q404.4 187.4 404.6 187.7Q404.8 187.9 405.3 187.9L405.3 187.9Q405.5 187.9 405.6 187.9Q405.8 187.9 406.0 187.8L406.0 187.8L406.3 189.0Q406.1 189.0 405.8 189.1Q405.6 189.1 405.3 189.1L405.3 189.1Q404.2 189.1 403.6 188.5Q403.0 188.0 403.0 187.0L403.0 187.0L403.0 181.9L401.8 181.9L401.8 180.8L403.0 180.8L403.0 178.9L404.4 178.9L404.4 180.8ZM412.7 189.2L412.7 189.2Q411.4 189.2 410.4 188.7Q409.4 188.2 408.9 187.3Q408.4 186.4 408.4 185.3L408.4 185.3L408.4 178.1L409.8 178.1L409.8 185.2Q409.8 186.0 410.1 186.6Q410.5 187.2 411.1 187.5Q411.8 187.9 412.7 187.9L412.7 187.9Q413.6 187.9 414.2 187.5Q414.8 187.2 415.2 186.6Q415.5 186.0 415.5 185.2L415.5 185.2L415.5 178.1L416.9 178.1L416.9 185.3Q416.9 186.4 416.4 187.3Q415.9 188.2 414.9 188.7Q414.0 189.2 412.7 189.2ZM420.1 178.1L421.4 178.1L421.4 189L420.1 189L420.1 178.1Z M432.5 189.2L432.5 189.2Q431.4 189.2 430.5 188.6Q429.7 188.1 429.2 187.2Q428.7 186.2 428.7 185.0L428.7 185.0Q428.7 183.7 429.2 182.7Q429.7 181.8 430.5 181.2Q431.4 180.7 432.5 180.7L432.5 180.7Q433.1 180.7 433.6 180.9Q434.1 181.0 434.6 181.3Q435.0 181.6 435.3 182.0Q435.6 182.4 435.8 183.0L435.8 183.0L434.5 183.3Q434.4 183.0 434.3 182.8Q434.1 182.5 433.8 182.3Q433.6 182.1 433.2 182.0Q432.9 181.9 432.5 181.9L432.5 181.9Q431.7 181.9 431.1 182.3Q430.6 182.7 430.3 183.4Q430.1 184.1 430.1 185.0L430.1 185.0Q430.1 185.8 430.3 186.5Q430.6 187.1 431.1 187.6Q431.7 188.0 432.5 188.0L432.5 188.0Q432.9 188.0 433.2 187.9Q433.6 187.8 433.8 187.6Q434.1 187.4 434.3 187.1Q434.5 186.8 434.6 186.5L434.6 186.5L435.8 186.8Q435.7 187.4 435.3 187.8Q435.0 188.3 434.6 188.6Q434.1 188.9 433.6 189.0Q433.1 189.2 432.5 189.2ZM439.5 189L438.2 189L438.2 180.8L439.5 180.8L439.5 182.1L439.6 182.1Q439.8 181.4 440.4 181.1Q441.0 180.7 441.7 180.7L441.7 180.7Q441.8 180.7 442.0 180.7Q442.2 180.7 442.4 180.7L442.4 180.7L442.4 182.0Q442.3 182.0 442.1 182.0Q441.8 182.0 441.6 182.0L441.6 182.0Q441.0 182.0 440.5 182.2Q440.1 182.5 439.8 182.9Q439.5 183.3 439.5 183.9L439.5 183.9L439.5 189ZM446.7 189.2L446.7 189.2Q445.9 189.2 445.2 188.9Q444.6 188.6 444.2 188.0Q443.9 187.5 443.9 186.7L443.9 186.7Q443.9 186.0 444.1 185.5Q444.4 185.1 444.9 184.8Q445.3 184.6 445.9 184.5Q446.5 184.3 447.0 184.3L447.0 184.3Q447.8 184.2 448.2 184.1Q448.7 184.1 448.9 183.9Q449.1 183.8 449.1 183.5L449.1 183.5L449.1 183.5Q449.1 183.0 449.0 182.6Q448.8 182.2 448.4 182.1Q448.0 181.9 447.4 181.9L447.4 181.9Q446.8 181.9 446.4 182.0Q446.0 182.2 445.8 182.5Q445.5 182.8 445.4 183.1L445.4 183.1L444.1 182.6Q444.4 181.9 444.9 181.5Q445.5 181.1 446.1 180.9Q446.8 180.7 447.4 180.7L447.4 180.7Q447.8 180.7 448.3 180.8Q448.9 180.9 449.3 181.2Q449.8 181.5 450.1 182.1Q450.5 182.6 450.5 183.6L450.5 183.6L450.5 189L449.2 189L449.2 187.9L449.1 187.9Q448.9 188.2 448.6 188.5Q448.3 188.8 447.8 189.0Q447.3 189.2 446.7 189.2ZM446.9 188.0L446.9 188.0Q447.6 188.0 448.1 187.7Q448.6 187.5 448.9 187.0Q449.1 186.5 449.1 186.0L449.1 186.0L449.1 184.9Q449.1 185.0 448.8 185.1Q448.5 185.2 448.2 185.2Q447.8 185.3 447.5 185.3Q447.2 185.4 447.0 185.4L447.0 185.4Q446.5 185.4 446.1 185.6Q445.7 185.7 445.4 186.0Q445.2 186.3 445.2 186.7L445.2 186.7Q445.2 187.2 445.4 187.4Q445.6 187.7 446.0 187.9Q446.4 188.0 446.9 188.0ZM455.2 180.8L457.1 180.8L457.1 181.9L455.2 181.9L455.2 189L453.9 189L453.9 181.9L452.3 181.9L452.3 180.8L453.9 180.8L453.9 179.7Q453.9 179.0 454.2 178.5Q454.5 178.1 455.1 177.8Q455.6 177.6 456.2 177.6L456.2 177.6Q456.7 177.6 457.0 177.7Q457.3 177.7 457.4 177.8L457.4 177.8L457.1 178.9Q457.0 178.9 456.8 178.8Q456.6 178.8 456.4 178.8L456.4 178.8Q455.8 178.8 455.5 179.1Q455.2 179.4 455.2 180.0L455.2 180.0L455.2 180.8ZM460.9 180.8L462.6 180.8L462.6 181.9L460.9 181.9L460.9 186.9Q460.9 187.4 461.1 187.7Q461.3 187.9 461.8 187.9L461.8 187.9Q462.0 187.9 462.2 187.9Q462.4 187.9 462.5 187.8L462.5 187.8L462.8 189.0Q462.6 189.0 462.3 189.1Q462.1 189.1 461.8 189.1L461.8 189.1Q460.7 189.1 460.1 188.5Q459.6 188.0 459.6 187.0L459.6 187.0L459.6 181.9L458.3 181.9L458.3 180.8L459.6 180.8L459.6 178.9L460.9 178.9L460.9 180.8Z M470.5 184.8L470.5 184.8Q470.1 184.8 469.8 184.5Q469.5 184.2 469.5 183.8L469.5 183.8Q469.5 183.4 469.8 183.1Q470.1 182.8 470.5 182.8L470.5 182.8Q470.9 182.8 471.2 183.1Q471.5 183.4 471.5 183.8L471.5 183.8Q471.5 184.2 471.2 184.5Q470.9 184.8 470.5 184.8Z M482.3 189.2L482.3 189.2Q481.2 189.2 480.4 188.6Q479.5 188.1 479.1 187.2Q478.6 186.2 478.6 185.0L478.6 185.0Q478.6 183.7 479.1 182.7Q479.5 181.8 480.4 181.2Q481.2 180.7 482.3 180.7L482.3 180.7Q483.5 180.7 484.3 181.2Q485.1 181.8 485.6 182.7Q486.1 183.7 486.1 185.0L486.1 185.0Q486.1 186.2 485.6 187.2Q485.1 188.1 484.3 188.6Q483.5 189.2 482.3 189.2ZM482.3 188.0L482.3 188.0Q483.2 188.0 483.7 187.6Q484.2 187.1 484.5 186.5Q484.7 185.8 484.7 185.0L484.7 185.0Q484.7 184.1 484.5 183.4Q484.2 182.7 483.7 182.3Q483.2 181.9 482.3 181.9L482.3 181.9Q481.5 181.9 481.0 182.3Q480.5 182.7 480.2 183.4Q479.9 184.1 479.9 185.0L479.9 185.0Q479.9 185.8 480.2 186.5Q480.5 187.1 481.0 187.6Q481.5 188.0 482.3 188.0ZM489.8 184.1L489.8 184.1L489.8 189L488.5 189L488.5 180.8L489.8 180.8L489.8 182.3Q490.1 181.6 490.7 181.2L490.7 181.2Q491.3 180.7 492.3 180.7L492.3 180.7Q493.1 180.7 493.7 181.0Q494.3 181.4 494.7 182.1Q495.0 182.8 495.0 183.8L495.0 183.8L495.0 189L493.7 189L493.7 183.9Q493.7 183.0 493.2 182.4Q492.7 181.9 491.9 181.9L491.9 181.9Q491.3 181.9 490.8 182.2Q490.4 182.4 490.1 182.9Q489.8 183.4 489.8 184.1ZM497.8 183.7L502.5 183.7L502.5 184.9L497.8 184.9L497.8 183.7ZM508.3 189.2L508.3 189.2Q507.3 189.2 506.5 188.7Q505.7 188.1 505.3 187.2Q504.9 186.2 504.9 184.9L504.9 184.9Q504.9 183.6 505.3 182.7Q505.7 181.7 506.5 181.2Q507.3 180.7 508.3 180.7L508.3 180.7Q509.1 180.7 509.6 181.0Q510.1 181.2 510.3 181.6Q510.6 181.9 510.7 182.1L510.7 182.1L510.8 182.1L510.8 178.1L512.1 178.1L512.1 189L510.9 189L510.9 187.7L510.7 187.7Q510.6 188.0 510.3 188.3Q510.1 188.6 509.6 188.9Q509.1 189.2 508.3 189.2ZM508.5 188.0L508.5 188.0Q509.3 188.0 509.8 187.6Q510.3 187.2 510.6 186.5Q510.8 185.8 510.8 184.9L510.8 184.9Q510.8 184.0 510.6 183.3Q510.3 182.6 509.8 182.3Q509.3 181.9 508.5 181.9L508.5 181.9Q507.7 181.9 507.2 182.3Q506.7 182.7 506.5 183.4Q506.2 184.1 506.2 184.9L506.2 184.9Q506.2 185.8 506.5 186.5Q506.7 187.2 507.2 187.6Q507.8 188.0 508.5 188.0ZM518.4 189.2L518.4 189.2Q517.2 189.2 516.3 188.6Q515.5 188.1 515.0 187.2Q514.5 186.2 514.5 185.0Q514.5 183.7 515.0 182.8Q515.5 181.8 516.3 181.3Q517.1 180.7 518.2 180.7L518.2 180.7Q518.9 180.7 519.5 180.9Q520.1 181.1 520.7 181.6Q521.2 182.1 521.5 182.9Q521.8 183.7 521.8 184.8L521.8 184.8L521.8 185.4L515.9 185.4Q515.9 186.1 516.2 186.7L516.2 186.7Q516.5 187.4 517.1 187.7Q517.6 188.0 518.4 188.0L518.4 188.0Q518.9 188.0 519.3 187.9Q519.7 187.7 519.9 187.4Q520.2 187.2 520.4 186.7L520.4 186.7L521.7 187.1Q521.5 187.7 521.0 188.2Q520.6 188.6 519.9 188.9Q519.2 189.2 518.4 189.2ZM515.9 184.2L515.9 184.2L520.5 184.2Q520.4 183.7 520.2 183.2L520.2 183.2Q520.0 182.6 519.5 182.2Q519.0 181.9 518.2 181.9Q517.5 181.9 517.0 182.2Q516.4 182.6 516.2 183.2L516.2 183.2Q515.9 183.7 515.9 184.2ZM527.9 189L526.6 189L523.4 180.8L524.9 180.8L526.6 185.7Q526.9 186.4 527.1 187.2L527.1 187.2Q527.2 187.5 527.2 187.8L527.2 187.8Q527.3 187.5 527.4 187.2L527.4 187.2Q527.6 186.4 527.9 185.7L527.9 185.7L529.6 180.8L531.1 180.8L527.9 189ZM534.4 189L533.1 189L533.1 180.8L534.4 180.8L534.4 189ZM533.8 179.5L533.8 179.5Q533.4 179.5 533.1 179.2Q532.9 179.0 532.9 178.6L532.9 178.6Q532.9 178.2 533.1 178.0Q533.4 177.7 533.8 177.7L533.8 177.7Q534.2 177.7 534.4 178.0Q534.7 178.2 534.7 178.6L534.7 178.6Q534.7 179.0 534.4 179.2Q534.2 179.5 533.8 179.5ZM540.6 189.2L540.6 189.2Q539.5 189.2 538.6 188.6Q537.8 188.1 537.3 187.2Q536.9 186.2 536.9 185.0L536.9 185.0Q536.9 183.7 537.3 182.7Q537.8 181.8 538.6 181.2Q539.5 180.7 540.6 180.7L540.6 180.7Q541.2 180.7 541.7 180.9Q542.2 181.0 542.7 181.3Q543.1 181.6 543.4 182.0Q543.7 182.4 543.9 183.0L543.9 183.0L542.6 183.3Q542.5 183.0 542.4 182.8Q542.2 182.5 541.9 182.3Q541.7 182.1 541.3 182.0Q541.0 181.9 540.6 181.9L540.6 181.9Q539.8 181.9 539.2 182.3Q538.7 182.7 538.4 183.4Q538.2 184.1 538.2 185.0L538.2 185.0Q538.2 185.8 538.4 186.5Q538.7 187.1 539.2 187.6Q539.8 188.0 540.6 188.0L540.6 188.0Q541.0 188.0 541.3 187.9Q541.7 187.8 541.9 187.6Q542.2 187.4 542.4 187.1Q542.6 186.8 542.7 186.5L542.7 186.5L543.9 186.8Q543.8 187.4 543.4 187.8Q543.1 188.3 542.7 188.6Q542.3 188.9 541.7 189.0Q541.2 189.2 540.6 189.2ZM549.8 189.2L549.8 189.2Q548.6 189.2 547.7 188.6Q546.9 188.1 546.4 187.2Q545.9 186.2 545.9 185.0Q545.9 183.7 546.4 182.8Q546.8 181.8 547.7 181.3Q548.5 180.7 549.6 180.7L549.6 180.7Q550.3 180.7 550.9 180.9Q551.5 181.1 552.0 181.6Q552.6 182.1 552.9 182.9Q553.2 183.7 553.2 184.8L553.2 184.8L553.2 185.4L547.3 185.4Q547.3 186.1 547.6 186.7L547.6 186.7Q547.9 187.4 548.5 187.7Q549.0 188.0 549.8 188.0L549.8 188.0Q550.3 188.0 550.6 187.9Q551.0 187.7 551.3 187.4Q551.6 187.2 551.8 186.7L551.8 186.7L553.0 187.1Q552.9 187.7 552.4 188.2Q551.9 188.6 551.3 188.9Q550.6 189.2 549.8 189.2ZM547.3 184.2L547.3 184.2L551.8 184.2Q551.8 183.7 551.6 183.2L551.6 183.2Q551.3 182.6 550.8 182.2Q550.3 181.9 549.6 181.9Q548.9 181.9 548.3 182.2Q547.8 182.6 547.5 183.2L547.5 183.2Q547.3 183.7 547.3 184.2Z M561.6 189L560.3 189L560.3 180.8L561.6 180.8L561.6 189ZM560.9 179.5L560.9 179.5Q560.6 179.5 560.3 179.2Q560.0 179.0 560.0 178.6L560.0 178.6Q560.0 178.2 560.3 178.0Q560.6 177.7 560.9 177.7L560.9 177.7Q561.3 177.7 561.6 178.0Q561.9 178.2 561.9 178.6L561.9 178.6Q561.9 179.0 561.6 179.2Q561.3 179.5 560.9 179.5ZM565.7 184.1L565.7 184.1L565.7 189L564.4 189L564.4 180.8L565.7 180.8L565.7 182.3Q566.0 181.6 566.6 181.2L566.6 181.2Q567.3 180.7 568.2 180.7L568.2 180.7Q569.0 180.7 569.6 181.0Q570.3 181.4 570.6 182.1Q571.0 182.8 571.0 183.8L571.0 183.8L571.0 189L569.6 189L569.6 183.9Q569.6 183.0 569.1 182.4Q568.7 181.9 567.8 181.9L567.8 181.9Q567.2 181.9 566.7 182.2Q566.3 182.4 566.0 182.9Q565.7 183.4 565.7 184.1ZM575.3 180.8L577.0 180.8L577.0 181.9L575.3 181.9L575.3 186.9Q575.3 187.4 575.5 187.7Q575.8 187.9 576.3 187.9L576.3 187.9Q576.4 187.9 576.6 187.9Q576.8 187.9 577.0 187.8L577.0 187.8L577.2 189.0Q577.0 189.0 576.8 189.1Q576.5 189.1 576.2 189.1L576.2 189.1Q575.2 189.1 574.6 188.5Q574.0 188.0 574.0 187.0L574.0 187.0L574.0 181.9L572.8 181.9L572.8 180.8L574.0 180.8L574.0 178.9L575.3 178.9L575.3 180.8ZM582.6 189.2L582.6 189.2Q581.4 189.2 580.6 188.6Q579.7 188.1 579.3 187.2Q578.8 186.2 578.8 185.0Q578.8 183.7 579.2 182.8Q579.7 181.8 580.5 181.3Q581.4 180.7 582.5 180.7L582.5 180.7Q583.1 180.7 583.8 180.9Q584.4 181.1 584.9 181.6Q585.4 182.1 585.7 182.9Q586.0 183.7 586.0 184.8L586.0 184.8L586.0 185.4L580.1 185.4Q580.1 186.1 580.4 186.7L580.4 186.7Q580.8 187.4 581.3 187.7Q581.9 188.0 582.6 188.0L582.6 188.0Q583.1 188.0 583.5 187.9Q583.9 187.7 584.2 187.4Q584.5 187.2 584.6 186.7L584.6 186.7L585.9 187.1Q585.7 187.7 585.3 188.2Q584.8 188.6 584.1 188.9Q583.5 189.2 582.6 189.2ZM580.1 184.2L580.1 184.2L584.7 184.2Q584.6 183.7 584.5 183.2L584.5 183.2Q584.2 182.6 583.7 182.2Q583.2 181.9 582.5 181.9Q581.7 181.9 581.2 182.2Q580.7 182.6 580.4 183.2L580.4 183.2Q580.2 183.7 580.1 184.2ZM588.4 178.1L589.7 178.1L589.7 189L588.4 189L588.4 178.1ZM592.6 178.1L593.9 178.1L593.9 189L592.6 189L592.6 178.1ZM598.0 189L596.7 189L596.7 180.8L598.0 180.8L598.0 189ZM597.4 179.5L597.4 179.5Q597.0 179.5 596.7 179.2Q596.4 179.0 596.4 178.6L596.4 178.6Q596.4 178.2 596.7 178.0Q597.0 177.7 597.4 177.7L597.4 177.7Q597.7 177.7 598.0 178.0Q598.3 178.2 598.3 178.6L598.3 178.6Q598.3 179.0 598.0 179.2Q597.7 179.5 597.4 179.5ZM604.1 192.2L604.1 192.2Q603.2 192.2 602.6 192.0Q601.9 191.8 601.5 191.4Q601.0 191.0 600.8 190.6L600.8 190.6L601.8 189.9Q602.0 190.1 602.3 190.4Q602.5 190.7 603.0 190.9Q603.4 191.1 604.1 191.1L604.1 191.1Q605.1 191.1 605.8 190.6Q606.4 190.1 606.4 189.1L606.4 189.1L606.4 187.5L606.3 187.5Q606.1 187.7 605.9 188.1Q605.6 188.4 605.2 188.6Q604.7 188.9 603.9 188.9L603.9 188.9Q602.9 188.9 602.1 188.4Q601.3 187.9 600.9 187.0Q600.4 186.2 600.4 184.9L600.4 184.9Q600.4 183.6 600.9 182.7Q601.3 181.7 602.1 181.2Q602.9 180.7 603.9 180.7L603.9 180.7Q604.7 180.7 605.2 181.0Q605.7 181.2 605.9 181.6Q606.2 181.9 606.3 182.1L606.3 182.1L606.4 182.1L606.4 180.8L607.7 180.8L607.7 189.2Q607.7 190.3 607.2 190.9Q606.8 191.6 605.9 191.9Q605.1 192.2 604.1 192.2ZM604.1 187.7L604.1 187.7Q604.9 187.7 605.4 187.4Q605.9 187.0 606.1 186.4Q606.4 185.7 606.4 184.8L606.4 184.8Q606.4 184.0 606.1 183.3Q605.9 182.6 605.4 182.3Q604.9 181.9 604.1 181.9L604.1 181.9Q603.3 181.9 602.8 182.3Q602.3 182.7 602.0 183.4Q601.8 184.0 601.8 184.8L601.8 184.8Q601.8 185.7 602.0 186.3Q602.3 187.0 602.8 187.3Q603.3 187.7 604.1 187.7ZM614.0 189.2L614.0 189.2Q612.8 189.2 611.9 188.6Q611.1 188.1 610.6 187.2Q610.1 186.2 610.1 185.0Q610.1 183.7 610.6 182.8Q611.0 181.8 611.9 181.3Q612.7 180.7 613.8 180.7L613.8 180.7Q614.5 180.7 615.1 180.9Q615.7 181.1 616.2 181.6Q616.8 182.1 617.1 182.9Q617.4 183.7 617.4 184.8L617.4 184.8L617.4 185.4L611.5 185.4Q611.5 186.1 611.8 186.7L611.8 186.7Q612.1 187.4 612.7 187.7Q613.2 188.0 614.0 188.0L614.0 188.0Q614.5 188.0 614.9 187.9Q615.3 187.7 615.5 187.4Q615.8 187.2 616.0 186.7L616.0 186.7L617.2 187.1Q617.1 187.7 616.6 188.2Q616.2 188.6 615.5 188.9Q614.8 189.2 614.0 189.2ZM611.5 184.2L611.5 184.2L616.0 184.2Q616.0 183.7 615.8 183.2L615.8 183.2Q615.6 182.6 615.1 182.2Q614.6 181.9 613.8 181.9Q613.1 181.9 612.5 182.2Q612.0 182.6 611.7 183.2L611.7 183.2Q611.5 183.7 611.5 184.2ZM621.1 184.1L621.1 184.1L621.1 189L619.8 189L619.8 180.8L621.0 180.8L621.0 182.3Q621.4 181.6 621.9 181.2L621.9 181.2Q622.6 180.7 623.6 180.7L623.6 180.7Q624.4 180.7 625.0 181.0Q625.6 181.4 626.0 182.1Q626.3 182.8 626.3 183.8L626.3 183.8L626.3 189L625.0 189L625.0 183.9Q625.0 183.0 624.5 182.4Q624.0 181.9 623.2 181.9L623.2 181.9Q622.6 181.9 622.1 182.2Q621.6 182.4 621.4 182.9Q621.1 183.4 621.1 184.1ZM632.5 189.2L632.5 189.2Q631.4 189.2 630.5 188.6Q629.7 188.1 629.2 187.2Q628.7 186.2 628.7 185.0L628.7 185.0Q628.7 183.7 629.2 182.7Q629.7 181.8 630.5 181.2Q631.4 180.7 632.5 180.7L632.5 180.7Q633.1 180.7 633.6 180.9Q634.1 181.0 634.5 181.3Q635.0 181.6 635.3 182.0Q635.6 182.4 635.8 183.0L635.8 183.0L634.5 183.3Q634.4 183.0 634.2 182.8Q634.1 182.5 633.8 182.3Q633.5 182.1 633.2 182.0Q632.9 181.9 632.5 181.9L632.5 181.9Q631.6 181.9 631.1 182.3Q630.6 182.7 630.3 183.4Q630.1 184.1 630.1 185.0L630.1 185.0Q630.1 185.8 630.3 186.5Q630.6 187.1 631.1 187.6Q631.6 188.0 632.5 188.0L632.5 188.0Q632.9 188.0 633.2 187.9Q633.6 187.8 633.8 187.6Q634.1 187.4 634.3 187.1Q634.5 186.8 634.6 186.5L634.6 186.5L635.8 186.8Q635.7 187.4 635.3 187.8Q635.0 188.3 634.6 188.6Q634.1 188.9 633.6 189.0Q633.1 189.2 632.5 189.2ZM641.6 189.2L641.6 189.2Q640.5 189.2 639.6 188.6Q638.7 188.1 638.3 187.2Q637.8 186.2 637.8 185.0Q637.8 183.7 638.3 182.8Q638.7 181.8 639.5 181.3Q640.4 180.7 641.5 180.7L641.5 180.7Q642.1 180.7 642.8 180.9Q643.4 181.1 643.9 181.6Q644.4 182.1 644.8 182.9Q645.1 183.7 645.1 184.8L645.1 184.8L645.1 185.4L639.1 185.4Q639.2 186.1 639.5 186.7L639.5 186.7Q639.8 187.4 640.3 187.7Q640.9 188.0 641.7 188.0L641.7 188.0Q642.1 188.0 642.5 187.9Q642.9 187.7 643.2 187.4Q643.5 187.2 643.7 186.7L643.7 186.7L644.9 187.1Q644.7 187.7 644.3 188.2Q643.8 188.6 643.2 188.9Q642.5 189.2 641.6 189.2ZM639.1 184.2L639.1 184.2L643.7 184.2Q643.7 183.7 643.5 183.2L643.5 183.2Q643.2 182.6 642.7 182.2Q642.2 181.9 641.5 181.9Q640.8 181.9 640.2 182.2Q639.7 182.6 639.4 183.2L639.4 183.2Q639.2 183.7 639.1 184.2Z "/></g><mask id="satori_om-id-1-2-1"><rect x="653" y="174" width="7" height="18" fill="#fff" mask="url(#satori_om-id)"/></mask><g mask="url(#satori_om-id)" clip-path="url(#satori_cp-id)"><path fill="rgba(0,229,255,0.7)" d="M653 189L659.8 189L659.8 190.2L653 190.2L653 189Z "/></g><mask id="satori_om-id-1-3"><rect x="120" y="216" width="620" height="25" fill="#fff" mask="url(#satori_om-id)"/></mask><defs><clipPath id="satori_bc-id-1-3-0" clip-path="url(#satori_cp-id)"><path x="120" y="216" width="152" height="25" d="M132.5,216 h127 a12.5,12.5 0 0 1 12.5,12.5 v0 a12.5,12.5 0 0 1 -12.5,12.5 h-127 a12.5,12.5 0 0 1 -12.5,-12.5 v0 a12.5,12.5 0 0 1 12.5,-12.5"/></clipPath></defs><mask id="satori_om-id-1-3-0"><rect x="121" y="217" width="150" height="23" fill="#fff" mask="url(#satori_om-id)"/><path width="152" height="25" fill="none" stroke="#000" stroke-width="2" d="M123.661,219.661 A12.5,12.5 0 0 1 132.5,216 h127 a12.5,12.5 0 0 1 12.5,12.5 v0 a12.5,12.5 0 0 1 -12.5,12.5 h-127 a12.5,12.5 0 0 1 -12.5,-12.5 v0 A12.5,12.5 0 0 1 123.661,219.661"/></mask><path x="120" y="216" width="152" height="25" fill="rgba(0,229,255,0.04)" d="M132.5,216 h127 a12.5,12.5 0 0 1 12.5,12.5 v0 a12.5,12.5 0 0 1 -12.5,12.5 h-127 a12.5,12.5 0 0 1 -12.5,-12.5 v0 a12.5,12.5 0 0 1 12.5,-12.5" clip-path="url(#satori_cp-id)" mask="url(#satori_om-id)"/><path width="152" height="25" clip-path="url(#satori_bc-id-1-3-0)" fill="none" stroke="rgba(0,229,255,0.12)" stroke-width="2" d="M123.661,219.661 A12.5,12.5 0 0 1 132.5,216 h127 a12.5,12.5 0 0 1 12.5,12.5 v0 a12.5,12.5 0 0 1 -12.5,12.5 h-127 a12.5,12.5 0 0 1 -12.5,-12.5 v0 A12.5,12.5 0 0 1 123.661,219.661"/><g mask="url(#satori_om-id)" clip-path="url(#satori_cp-id)"><path fill="rgba(0,229,255,0.65)" d="M137.0 233L136.0 233L136.0 225.0L137.2 225.0L140.4 230.1Q140.6 230.3 140.7 230.6Q140.9 230.9 141.1 231.3L141.1 231.3Q141.3 231.5 141.4 231.8L141.4 231.8Q141.3 231.5 141.3 231.3L141.3 231.3Q141.3 230.9 141.3 230.5Q141.3 230.2 141.3 229.9L141.3 229.9L141.3 225.0L142.3 225.0L142.3 233L141.1 233L138.2 228.4Q138.0 228.1 137.8 227.8Q137.6 227.5 137.3 227.0L137.3 227.0Q137.2 226.7 136.9 226.2L136.9 226.2Q136.9 226.6 136.9 227.0L136.9 227.0Q137.0 227.5 137.0 227.8Q137.0 228.2 137.0 228.4L137.0 228.4L137.0 233ZM146.6 233.1L146.6 233.1Q146.0 233.1 145.6 232.9Q145.1 232.7 144.8 232.3Q144.6 231.9 144.6 231.3L144.6 231.3Q144.6 230.8 144.8 230.5Q145.0 230.1 145.3 229.9Q145.7 229.8 146.1 229.7Q146.5 229.6 146.9 229.5L146.9 229.5Q147.4 229.5 147.8 229.4Q148.1 229.4 148.3 229.3Q148.4 229.2 148.4 229.0L148.4 229.0L148.4 228.9Q148.4 228.6 148.3 228.3Q148.2 228.0 147.9 227.9Q147.6 227.8 147.2 227.8L147.2 227.8Q146.8 227.8 146.5 227.9Q146.2 228.0 146.0 228.2Q145.8 228.4 145.7 228.6L145.7 228.6L144.7 228.3Q145.0 227.8 145.4 227.5Q145.8 227.2 146.2 227.0Q146.7 226.9 147.2 226.9L147.2 226.9Q147.5 226.9 147.9 227.0Q148.2 227.1 148.6 227.3Q148.9 227.5 149.2 227.9Q149.4 228.3 149.4 229.0L149.4 229.0L149.4 233L148.5 233L148.5 232.2L148.4 232.2Q148.3 232.4 148.1 232.6Q147.8 232.8 147.5 233.0Q147.1 233.1 146.6 233.1ZM146.8 232.3L146.8 232.3Q147.3 232.3 147.7 232.1Q148.1 231.9 148.3 231.5Q148.4 231.2 148.4 230.8L148.4 230.8L148.4 230.0Q148.4 230.1 148.2 230.1Q148.0 230.2 147.7 230.2Q147.5 230.3 147.2 230.3Q147.0 230.3 146.9 230.3L146.9 230.3Q146.5 230.4 146.2 230.5Q145.9 230.6 145.7 230.8Q145.5 231.0 145.5 231.3L145.5 231.3Q145.5 231.7 145.7 231.9Q145.9 232.1 146.1 232.2Q146.4 232.3 146.8 232.3ZM153.0 227.0L154.3 227.0L154.3 227.8L153.0 227.8L153.0 231.4Q153.0 231.8 153.2 232.0Q153.4 232.2 153.7 232.2L153.7 232.2Q153.8 232.2 154.0 232.2Q154.1 232.2 154.2 232.2L154.2 232.2L154.4 233.0Q154.3 233.0 154.1 233.0Q153.9 233.1 153.7 233.1L153.7 233.1Q152.9 233.1 152.5 232.7Q152.1 232.3 152.1 231.5L152.1 231.5L152.1 227.8L151.2 227.8L151.2 227.0L152.1 227.0L152.1 225.6L153.0 225.6L153.0 227.0ZM157.3 233L156.3 233L156.3 227.0L157.3 227.0L157.3 233ZM156.8 226.0L156.8 226.0Q156.5 226.0 156.3 225.8Q156.1 225.6 156.1 225.4L156.1 225.4Q156.1 225.1 156.3 224.9Q156.5 224.7 156.8 224.7L156.8 224.7Q157.1 224.7 157.3 224.9Q157.5 225.1 157.5 225.4L157.5 225.4Q157.5 225.6 157.3 225.8Q157.1 226.0 156.8 226.0ZM162.5 233L161.5 233L159.2 227.0L160.3 227.0L161.6 230.6Q161.8 231.1 161.9 231.7L161.9 231.7Q162.0 231.9 162.0 232.1L162.0 232.1Q162.1 231.9 162.1 231.7L162.1 231.7Q162.3 231.1 162.5 230.6L162.5 230.6L163.8 227.0L164.8 227.0L162.5 233ZM169.3 233.1L169.3 233.1Q168.4 233.1 167.8 232.7Q167.1 232.4 166.8 231.7Q166.5 231.0 166.5 230.0Q166.5 229.1 166.8 228.4Q167.1 227.7 167.7 227.3Q168.4 226.9 169.2 226.9L169.2 226.9Q169.6 226.9 170.1 227.1Q170.6 227.2 171.0 227.6Q171.3 227.9 171.6 228.5Q171.8 229.1 171.8 229.9L171.8 229.9L171.8 230.3L167.4 230.3Q167.5 230.9 167.7 231.3L167.7 231.3Q167.9 231.8 168.3 232.0Q168.7 232.3 169.3 232.3L169.3 232.3Q169.6 232.3 169.9 232.2Q170.2 232.1 170.4 231.9Q170.6 231.7 170.8 231.3L170.8 231.3L171.7 231.6Q171.5 232.1 171.2 232.4Q170.9 232.7 170.4 232.9Q169.9 233.1 169.3 233.1ZM167.5 229.5L167.5 229.5L170.8 229.5Q170.8 229.1 170.6 228.8L170.6 228.8Q170.4 228.3 170.1 228.0Q169.7 227.8 169.2 227.8Q168.6 227.8 168.2 228.0Q167.9 228.3 167.6 228.7L167.6 228.7Q167.5 229.1 167.5 229.5Z M178.8 233L177.9 233L177.9 227.0L178.8 227.0L178.8 233ZM178.4 226.0L178.4 226.0Q178.1 226.0 177.9 225.8Q177.7 225.6 177.7 225.4L177.7 225.4Q177.7 225.1 177.9 224.9Q178.1 224.7 178.4 224.7L178.4 224.7Q178.6 224.7 178.8 224.9Q179.0 225.1 179.0 225.4L179.0 225.4Q179.0 225.6 178.8 225.8Q178.6 226.0 178.4 226.0ZM184.7 233.1L184.7 233.1Q183.7 233.1 182.9 232.6Q182.1 232.1 181.6 231.2Q181.1 230.3 181.1 229.0L181.1 229.0Q181.1 227.7 181.6 226.8Q182.1 225.9 182.9 225.4Q183.7 224.9 184.7 224.9L184.7 224.9Q185.7 224.9 186.5 225.4Q187.3 225.9 187.8 226.8Q188.2 227.7 188.2 229.0L188.2 229.0Q188.2 230.3 187.8 231.2Q187.3 232.1 186.5 232.6Q185.7 233.1 184.7 233.1ZM184.7 232.2L184.7 232.2Q185.4 232.2 186.0 231.8Q186.6 231.4 186.9 230.7Q187.2 230.0 187.2 229.0L187.2 229.0Q187.2 228.0 186.9 227.3Q186.6 226.6 186.0 226.2Q185.4 225.8 184.7 225.8L184.7 225.8Q184.0 225.8 183.4 226.2Q182.8 226.6 182.5 227.3Q182.1 228.0 182.1 229.0L182.1 229.0Q182.1 230.0 182.5 230.7Q182.8 231.4 183.4 231.8Q184.0 232.2 184.7 232.2ZM193.2 233.1L193.2 233.1Q192.4 233.1 191.7 232.9Q191.1 232.6 190.7 232.1Q190.4 231.6 190.3 230.9L190.3 230.9L191.4 230.9Q191.4 231.4 191.7 231.6Q191.9 231.9 192.3 232.1Q192.8 232.2 193.2 232.2L193.2 232.2Q193.8 232.2 194.2 232.0Q194.6 231.9 194.9 231.5Q195.1 231.2 195.1 230.8L195.1 230.8Q195.1 230.4 194.9 230.2Q194.7 229.9 194.3 229.8Q194.0 229.6 193.5 229.5L193.5 229.5L192.6 229.2Q191.6 229.0 191.1 228.4Q190.5 227.9 190.5 227.1L190.5 227.1Q190.5 226.5 190.9 226.0Q191.3 225.4 191.9 225.2Q192.5 224.9 193.3 224.9L193.3 224.9Q194.1 224.9 194.7 225.2Q195.3 225.4 195.6 225.9Q196.0 226.4 196.0 227.0L196.0 227.0L195.0 227.0Q194.9 226.4 194.5 226.1Q194.0 225.8 193.3 225.8L193.3 225.8Q192.7 225.8 192.4 226.0Q192.0 226.1 191.7 226.4Q191.5 226.7 191.5 227.1L191.5 227.1Q191.5 227.5 191.8 227.8Q192.1 228.0 192.4 228.2Q192.8 228.3 193.1 228.4L193.1 228.4L193.9 228.6Q194.2 228.7 194.6 228.8Q195.0 229.0 195.3 229.2Q195.7 229.5 195.9 229.9Q196.1 230.3 196.1 230.8L196.1 230.8Q196.1 231.5 195.8 232.0Q195.4 232.5 194.8 232.8Q194.1 233.1 193.2 233.1Z M204.6 233.1L204.6 233.1Q203.8 233.1 203.2 232.8Q202.6 232.5 202.3 232.0Q202.0 231.5 202.0 230.9L202.0 230.9Q202.0 230.4 202.2 230.0Q202.4 229.6 202.8 229.3L202.8 229.3Q203.2 229.0 203.6 228.7L203.6 228.7Q203.5 228.5 203.4 228.4L203.4 228.4Q203.0 228.0 202.8 227.6Q202.7 227.2 202.7 226.7L202.7 226.7Q202.7 226.2 202.9 225.8Q203.1 225.4 203.6 225.2Q204.0 224.9 204.6 224.9L204.6 224.9Q205.2 224.9 205.6 225.2Q206.1 225.4 206.3 225.8Q206.6 226.2 206.6 226.6L206.6 226.6Q206.6 227.0 206.4 227.3Q206.3 227.6 206.0 227.9Q205.8 228.2 205.5 228.4L205.5 228.4L204.9 228.8L206.6 230.9Q206.7 230.8 206.7 230.6L206.7 230.6Q207.0 230.1 207.0 229.5L207.0 229.5L207.9 229.5Q207.9 230.3 207.7 230.8Q207.5 231.3 207.3 231.6L207.3 231.6Q207.3 231.6 207.2 231.6L207.2 231.6L208.4 233L207.2 233L206.6 232.3Q206.3 232.7 205.7 232.9L205.7 232.9Q205.1 233.1 204.6 233.1ZM206.1 231.6L204.2 229.4L203.9 229.6Q203.4 229.9 203.2 230.3Q203.0 230.6 203.0 230.9L203.0 230.9Q203.0 231.3 203.2 231.6Q203.4 231.9 203.7 232.1Q204.0 232.3 204.5 232.3L204.5 232.3Q205.0 232.3 205.4 232.1L205.4 232.1Q205.8 231.9 206.1 231.6L206.1 231.6ZM204.3 228.1L204.3 228.1L204.9 227.7Q205.0 227.6 205.2 227.5Q205.3 227.3 205.5 227.1Q205.6 226.9 205.6 226.6L205.6 226.6Q205.6 226.2 205.3 226.0Q205.1 225.8 204.6 225.8L204.6 225.8Q204.3 225.8 204.1 225.9Q203.9 226.0 203.7 226.2Q203.6 226.4 203.6 226.7L203.6 226.7Q203.6 227.0 203.8 227.3Q203.9 227.6 204.1 227.9L204.1 227.9Q204.2 228.0 204.3 228.1Z M216.7 233.1L216.7 233.1Q215.9 233.1 215.2 232.9Q214.6 232.6 214.3 232.1Q213.9 231.6 213.8 230.9L213.8 230.9L214.9 230.9Q214.9 231.4 215.2 231.6Q215.5 231.9 215.9 232.1Q216.3 232.2 216.7 232.2L216.7 232.2Q217.3 232.2 217.7 232.0Q218.2 231.9 218.4 231.5Q218.7 231.2 218.7 230.8L218.7 230.8Q218.7 230.4 218.4 230.2Q218.2 229.9 217.9 229.8Q217.5 229.6 217.1 229.5L217.1 229.5L216.1 229.2Q215.1 229.0 214.6 228.4Q214.1 227.9 214.1 227.1L214.1 227.1Q214.1 226.5 214.4 226.0Q214.8 225.4 215.4 225.2Q216.0 224.9 216.8 224.9L216.8 224.9Q217.6 224.9 218.2 225.2Q218.8 225.4 219.2 225.9Q219.5 226.4 219.5 227.0L219.5 227.0L218.5 227.0Q218.5 226.4 218.0 226.1Q217.5 225.8 216.8 225.8L216.8 225.8Q216.3 225.8 215.9 226.0Q215.5 226.1 215.3 226.4Q215.1 226.7 215.1 227.1L215.1 227.1Q215.1 227.5 215.3 227.8Q215.6 228.0 215.9 228.2Q216.3 228.3 216.6 228.4L216.6 228.4L217.4 228.6Q217.7 228.7 218.1 228.8Q218.5 229.0 218.8 229.2Q219.2 229.5 219.4 229.9Q219.7 230.3 219.7 230.8L219.7 230.8Q219.7 231.5 219.3 232.0Q219.0 232.5 218.3 232.8Q217.7 233.1 216.7 233.1ZM224.2 233L223.3 233L221.5 227.0L222.5 227.0L223.2 229.6Q223.4 230.2 223.5 230.8L223.5 230.8Q223.7 231.3 223.8 232.0L223.8 232.0Q223.9 231.4 224.0 230.9L224.0 230.9Q224.2 230.2 224.4 229.6L224.4 229.6L225.1 227.0L226.1 227.0L226.8 229.6Q227.0 230.2 227.1 230.8L227.1 230.8Q227.2 231.4 227.4 231.9L227.4 231.9Q227.5 231.4 227.6 230.9L227.6 230.9Q227.8 230.2 227.9 229.6L227.9 229.6L228.7 227.0L229.7 227.0L227.9 233L226.9 233L226.1 230.3Q226.0 229.9 225.9 229.4Q225.8 229.0 225.7 228.6L225.7 228.6Q225.6 228.3 225.6 228.1L225.6 228.1Q225.5 228.3 225.5 228.6L225.5 228.6Q225.4 229.0 225.2 229.4Q225.1 229.9 225.0 230.3L225.0 230.3L224.2 233ZM232.7 233L231.7 233L231.7 227.0L232.7 227.0L232.7 233ZM232.2 226.0L232.2 226.0Q231.9 226.0 231.7 225.8Q231.5 225.6 231.5 225.4L231.5 225.4Q231.5 225.1 231.7 224.9Q231.9 224.7 232.2 224.7L232.2 224.7Q232.5 224.7 232.7 224.9Q232.9 225.1 232.9 225.4L232.9 225.4Q232.9 225.6 232.7 225.8Q232.5 226.0 232.2 226.0ZM236.6 227.0L238.0 227.0L238.0 227.8L236.6 227.8L236.6 233L235.6 233L235.6 227.8L234.5 227.8L234.5 227.0L235.6 227.0L235.6 226.2Q235.6 225.7 235.9 225.3Q236.1 225.0 236.5 224.8Q236.9 224.6 237.3 224.6L237.3 224.6Q237.7 224.6 237.9 224.7Q238.1 224.7 238.2 224.8L238.2 224.8L238.0 225.6Q237.9 225.6 237.8 225.6Q237.7 225.5 237.5 225.5L237.5 225.5Q237.0 225.5 236.8 225.7Q236.6 226.0 236.6 226.4L236.6 226.4L236.6 227.0ZM241.2 227.0L242.4 227.0L242.4 227.8L241.2 227.8L241.2 231.4Q241.2 231.8 241.4 232.0Q241.5 232.2 241.9 232.2L241.9 232.2Q242.0 232.2 242.1 232.2Q242.3 232.2 242.4 232.2L242.4 232.2L242.6 233.0Q242.4 233.0 242.3 233.0Q242.1 233.1 241.9 233.1L241.9 233.1Q241.1 233.1 240.7 232.7Q240.2 232.3 240.2 231.5L240.2 231.5L240.2 227.8L239.3 227.8L239.3 227.0L240.2 227.0L240.2 225.6L241.2 225.6L241.2 227.0ZM247.7 233.1L247.7 233.1Q246.8 233.1 246.1 232.8Q245.4 232.4 245.0 231.7Q244.6 231.1 244.6 230.3L244.6 230.3L244.6 225.0L245.6 225.0L245.6 230.2Q245.6 230.8 245.9 231.2Q246.1 231.7 246.6 231.9Q247.1 232.2 247.7 232.2L247.7 232.2Q248.4 232.2 248.8 231.9Q249.3 231.7 249.6 231.2Q249.8 230.8 249.8 230.2L249.8 230.2L249.8 225.0L250.8 225.0L250.8 230.3Q250.8 231.1 250.4 231.7Q250.1 232.4 249.4 232.8Q248.7 233.1 247.7 233.1ZM253.6 225.0L254.6 225.0L254.6 233L253.6 233L253.6 225.0Z "/></g><defs><clipPath id="satori_bc-id-1-3-1" clip-path="url(#satori_cp-id)"><path x="280" y="216" width="110" height="25" d="M292.5,216 h85 a12.5,12.5 0 0 1 12.5,12.5 v0 a12.5,12.5 0 0 1 -12.5,12.5 h-85 a12.5,12.5 0 0 1 -12.5,-12.5 v0 a12.5,12.5 0 0 1 12.5,-12.5"/></clipPath></defs><mask id="satori_om-id-1-3-1"><rect x="281" y="217" width="108" height="23" fill="#fff" mask="url(#satori_om-id)"/><path width="110" height="25" fill="none" stroke="#000" stroke-width="2" d="M283.661,219.661 A12.5,12.5 0 0 1 292.5,216 h85 a12.5,12.5 0 0 1 12.5,12.5 v0 a12.5,12.5 0 0 1 -12.5,12.5 h-85 a12.5,12.5 0 0 1 -12.5,-12.5 v0 A12.5,12.5 0 0 1 283.661,219.661"/></mask><path x="280" y="216" width="110" height="25" fill="rgba(0,229,255,0.04)" d="M292.5,216 h85 a12.5,12.5 0 0 1 12.5,12.5 v0 a12.5,12.5 0 0 1 -12.5,12.5 h-85 a12.5,12.5 0 0 1 -12.5,-12.5 v0 a12.5,12.5 0 0 1 12.5,-12.5" clip-path="url(#satori_cp-id)" mask="url(#satori_om-id)"/><path width="110" height="25" clip-path="url(#satori_bc-id-1-3-1)" fill="none" stroke="rgba(0,229,255,0.12)" stroke-width="2" d="M283.661,219.661 A12.5,12.5 0 0 1 292.5,216 h85 a12.5,12.5 0 0 1 12.5,12.5 v0 a12.5,12.5 0 0 1 -12.5,12.5 h-85 a12.5,12.5 0 0 1 -12.5,-12.5 v0 A12.5,12.5 0 0 1 283.661,219.661"/><g mask="url(#satori_om-id)" clip-path="url(#satori_cp-id)"><path fill="rgba(0,229,255,0.65)" d="M299.2 233.1L299.2 233.1Q298.2 233.1 297.4 232.6Q296.6 232.1 296.1 231.2Q295.7 230.3 295.7 229.0L295.7 229.0Q295.7 227.7 296.1 226.8Q296.6 225.9 297.4 225.4Q298.2 224.9 299.2 224.9L299.2 224.9Q300.2 224.9 301.0 225.4Q301.8 225.9 302.3 226.8Q302.8 227.7 302.8 229.0L302.8 229.0Q302.8 230.3 302.3 231.2Q301.8 232.1 301.0 232.6Q300.2 233.1 299.2 233.1ZM299.2 232.2L299.2 232.2Q299.9 232.2 300.5 231.8Q301.1 231.4 301.4 230.7Q301.8 230.0 301.8 229.0L301.8 229.0Q301.8 228.0 301.4 227.3Q301.1 226.6 300.5 226.2Q299.9 225.8 299.2 225.8L299.2 225.8Q298.5 225.8 297.9 226.2Q297.3 226.6 297.0 227.3Q296.6 228.0 296.6 229.0L296.6 229.0Q296.6 230.0 297.0 230.7Q297.3 231.4 297.9 231.8Q298.5 232.2 299.2 232.2ZM306.0 229.4L306.0 229.4L306.0 233L305.1 233L305.1 227.0L306.0 227.0L306.0 228.1Q306.2 227.5 306.6 227.3L306.6 227.3Q307.1 226.9 307.8 226.9L307.8 226.9Q308.4 226.9 308.9 227.2Q309.4 227.4 309.6 227.9Q309.9 228.4 309.9 229.2L309.9 229.2L309.9 233L308.9 233L308.9 229.3Q308.9 228.6 308.5 228.2Q308.2 227.8 307.5 227.8L307.5 227.8Q307.1 227.8 306.8 228.0Q306.4 228.2 306.2 228.5Q306.0 228.9 306.0 229.4ZM312.3 229.1L315.8 229.1L315.8 230.0L312.3 230.0L312.3 229.1ZM320.8 233L320.8 233L318.3 233L318.3 225.0L320.9 225.0Q322.1 225.0 322.9 225.5Q323.8 226.0 324.2 226.8Q324.7 227.7 324.7 229.0L324.7 229.0Q324.7 230.2 324.2 231.1Q323.8 232.0 322.9 232.5Q322.1 233 320.8 233ZM319.4 225.9L319.4 232.1L320.8 232.1Q321.7 232.1 322.4 231.7Q323.0 231.4 323.3 230.7Q323.7 230.0 323.7 229.0L323.7 229.0Q323.7 228.0 323.4 227.3Q323.0 226.6 322.4 226.3Q321.8 225.9 320.9 225.9L320.9 225.9L319.4 225.9ZM329.5 233.1L329.5 233.1Q328.6 233.1 328.0 232.7Q327.3 232.4 327.0 231.7Q326.7 231.0 326.7 230.0Q326.7 229.1 327.0 228.4Q327.3 227.7 327.9 227.3Q328.6 226.9 329.4 226.9L329.4 226.9Q329.8 226.9 330.3 227.1Q330.8 227.2 331.2 227.6Q331.5 227.9 331.8 228.5Q332.0 229.1 332.0 229.9L332.0 229.9L332.0 230.3L327.6 230.3Q327.7 230.9 327.9 231.3L327.9 231.3Q328.1 231.8 328.5 232.0Q328.9 232.3 329.5 232.3L329.5 232.3Q329.8 232.3 330.1 232.2Q330.4 232.1 330.6 231.9Q330.8 231.7 331.0 231.3L331.0 231.3L331.9 231.6Q331.7 232.1 331.4 232.4Q331.1 232.7 330.6 232.9Q330.1 233.1 329.5 233.1ZM327.6 229.5L327.6 229.5L331.0 229.5Q331.0 229.1 330.8 228.8L330.8 228.8Q330.6 228.3 330.3 228.0Q329.9 227.8 329.4 227.8Q328.8 227.8 328.4 228.0Q328.1 228.3 327.8 228.7L327.8 228.7Q327.7 229.1 327.6 229.5ZM336.9 233L335.9 233L333.6 227.0L334.7 227.0L335.9 230.6Q336.2 231.1 336.3 231.7L336.3 231.7Q336.4 231.9 336.4 232.1L336.4 232.1Q336.5 231.9 336.5 231.7L336.5 231.7Q336.7 231.1 336.9 230.6L336.9 230.6L338.2 227.0L339.2 227.0L336.9 233ZM342.1 233L341.2 233L341.2 227.0L342.1 227.0L342.1 233ZM341.6 226.0L341.6 226.0Q341.4 226.0 341.2 225.8Q341.0 225.6 341.0 225.4L341.0 225.4Q341.0 225.1 341.2 224.9Q341.4 224.7 341.6 224.7L341.6 224.7Q341.9 224.7 342.1 224.9Q342.3 225.1 342.3 225.4L342.3 225.4Q342.3 225.6 342.1 225.8Q341.9 226.0 341.6 226.0ZM347.1 233.1L347.1 233.1Q346.2 233.1 345.6 232.7Q345.0 232.4 344.7 231.7Q344.3 231.0 344.3 230.0L344.3 230.0Q344.3 229.1 344.7 228.4Q345.0 227.7 345.6 227.3Q346.2 226.9 347.1 226.9L347.1 226.9Q347.5 226.9 347.9 227.0Q348.3 227.1 348.6 227.4Q348.9 227.6 349.1 227.9Q349.4 228.2 349.5 228.6L349.5 228.6L348.6 228.8Q348.5 228.6 348.4 228.4Q348.2 228.2 348.0 228.1Q347.8 227.9 347.6 227.9Q347.4 227.8 347.1 227.8L347.1 227.8Q346.5 227.8 346.1 228.1Q345.7 228.4 345.5 228.9Q345.3 229.4 345.3 230.0L345.3 230.0Q345.3 230.6 345.5 231.1Q345.7 231.6 346.1 232.0Q346.5 232.3 347.1 232.3L347.1 232.3Q347.4 232.3 347.6 232.2Q347.9 232.1 348.1 232.0Q348.3 231.8 348.4 231.6Q348.5 231.4 348.6 231.2L348.6 231.2L349.5 231.4Q349.4 231.8 349.2 232.1Q348.9 232.5 348.6 232.7Q348.3 232.9 347.9 233.0Q347.5 233.1 347.1 233.1ZM354.2 233.1L354.2 233.1Q353.4 233.1 352.7 232.7Q352.1 232.4 351.8 231.7Q351.4 231.0 351.4 230.0Q351.4 229.1 351.7 228.4Q352.1 227.7 352.7 227.3Q353.3 226.9 354.1 226.9L354.1 226.9Q354.6 226.9 355.1 227.1Q355.5 227.2 355.9 227.6Q356.3 227.9 356.5 228.5Q356.7 229.1 356.7 229.9L356.7 229.9L356.7 230.3L352.4 230.3Q352.4 230.9 352.6 231.3L352.6 231.3Q352.8 231.8 353.3 232.0Q353.7 232.3 354.2 232.3L354.2 232.3Q354.6 232.3 354.9 232.2Q355.2 232.1 355.4 231.9Q355.6 231.7 355.7 231.3L355.7 231.3L356.6 231.6Q356.5 232.1 356.2 232.4Q355.8 232.7 355.3 232.9Q354.8 233.1 354.2 233.1ZM352.4 229.5L352.4 229.5L355.7 229.5Q355.7 229.1 355.6 228.8L355.6 228.8Q355.4 228.3 355.0 228.0Q354.7 227.8 354.1 227.8Q353.6 227.8 353.2 228.0Q352.8 228.3 352.6 228.7L352.6 228.7Q352.4 229.1 352.4 229.5Z M363.3 233L362.2 233L365.1 225.0L366.3 225.0L369.3 233L368.2 233L367.4 230.8L364.1 230.8L363.3 233ZM364.4 229.9L367.1 229.9L366.5 228.3Q366.3 227.8 366.1 227.2L366.1 227.2Q366.0 226.6 365.7 225.8L365.7 225.8Q365.5 226.6 365.3 227.2L365.3 227.2Q365.1 227.8 365.0 228.3L365.0 228.3L364.4 229.9ZM371.3 225.0L372.3 225.0L372.3 233L371.3 233L371.3 225.0Z "/></g><defs><clipPath id="satori_bc-id-1-3-2" clip-path="url(#satori_cp-id)"><path x="398" y="216" width="151" height="25" d="M410.5,216 h126 a12.5,12.5 0 0 1 12.5,12.5 v0 a12.5,12.5 0 0 1 -12.5,12.5 h-126 a12.5,12.5 0 0 1 -12.5,-12.5 v0 a12.5,12.5 0 0 1 12.5,-12.5"/></clipPath></defs><mask id="satori_om-id-1-3-2"><rect x="399" y="217" width="149" height="23" fill="#fff" mask="url(#satori_om-id)"/><path width="151" height="25" fill="none" stroke="#000" stroke-width="2" d="M401.661,219.661 A12.5,12.5 0 0 1 410.5,216 h126 a12.5,12.5 0 0 1 12.5,12.5 v0 a12.5,12.5 0 0 1 -12.5,12.5 h-126 a12.5,12.5 0 0 1 -12.5,-12.5 v0 A12.5,12.5 0 0 1 401.661,219.661"/></mask><path x="398" y="216" width="151" height="25" fill="rgba(0,229,255,0.04)" d="M410.5,216 h126 a12.5,12.5 0 0 1 12.5,12.5 v0 a12.5,12.5 0 0 1 -12.5,12.5 h-126 a12.5,12.5 0 0 1 -12.5,-12.5 v0 a12.5,12.5 0 0 1 12.5,-12.5" clip-path="url(#satori_cp-id)" mask="url(#satori_om-id)"/><path width="151" height="25" clip-path="url(#satori_bc-id-1-3-2)" fill="none" stroke="rgba(0,229,255,0.12)" stroke-width="2" d="M401.661,219.661 A12.5,12.5 0 0 1 410.5,216 h126 a12.5,12.5 0 0 1 12.5,12.5 v0 a12.5,12.5 0 0 1 -12.5,12.5 h-126 a12.5,12.5 0 0 1 -12.5,-12.5 v0 A12.5,12.5 0 0 1 401.661,219.661"/><g mask="url(#satori_om-id)" clip-path="url(#satori_cp-id)"><path fill="rgba(0,229,255,0.65)" d="M416.6 233L415.6 233L413.3 227.0L414.3 227.0L415.6 230.6Q415.8 231.1 416.0 231.7L416.0 231.7Q416.0 231.9 416.1 232.1L416.1 232.1Q416.2 231.9 416.2 231.7L416.2 231.7Q416.4 231.1 416.6 230.6L416.6 230.6L417.8 227.0L418.9 227.0L416.6 233ZM421.8 233L420.8 233L420.8 227.0L421.8 227.0L421.8 233ZM421.3 226.0L421.3 226.0Q421.0 226.0 420.8 225.8Q420.6 225.6 420.6 225.4L420.6 225.4Q420.6 225.1 420.8 224.9Q421.0 224.7 421.3 224.7L421.3 224.7Q421.6 224.7 421.8 224.9Q422.0 225.1 422.0 225.4L422.0 225.4Q422.0 225.6 421.8 225.8Q421.6 226.0 421.3 226.0ZM426.3 233.1L426.3 233.1Q425.7 233.1 425.2 232.9Q424.8 232.8 424.4 232.4Q424.1 232.1 424.0 231.5L424.0 231.5L424.9 231.3Q425.1 231.8 425.4 232.0Q425.8 232.3 426.3 232.3L426.3 232.3Q427.0 232.3 427.3 232.0Q427.7 231.7 427.7 231.4L427.7 231.4Q427.7 231.1 427.5 230.9Q427.3 230.6 426.8 230.5L426.8 230.5L425.8 230.3Q425.0 230.1 424.6 229.7Q424.2 229.3 424.2 228.7L424.2 228.7Q424.2 228.2 424.5 227.8Q424.8 227.4 425.3 227.1Q425.8 226.9 426.4 226.9L426.4 226.9Q427.1 226.9 427.5 227.1Q427.9 227.3 428.2 227.6Q428.5 227.9 428.6 228.4L428.6 228.4L427.7 228.6Q427.6 228.3 427.3 228.0Q427.0 227.7 426.4 227.7L426.4 227.7Q425.9 227.7 425.5 228.0Q425.2 228.2 425.2 228.6L425.2 228.6Q425.2 228.9 425.4 229.1Q425.7 229.3 426.2 229.5L426.2 229.5L427.1 229.7Q427.9 229.9 428.3 230.3Q428.7 230.7 428.7 231.3L428.7 231.3Q428.7 231.8 428.4 232.2Q428.1 232.7 427.6 232.9Q427.0 233.1 426.3 233.1ZM431.9 233L430.9 233L430.9 227.0L431.9 227.0L431.9 233ZM431.4 226.0L431.4 226.0Q431.1 226.0 430.9 225.8Q430.7 225.6 430.7 225.4L430.7 225.4Q430.7 225.1 430.9 224.9Q431.1 224.7 431.4 224.7L431.4 224.7Q431.7 224.7 431.9 224.9Q432.1 225.1 432.1 225.4L432.1 225.4Q432.1 225.6 431.9 225.8Q431.7 226.0 431.4 226.0ZM436.8 233.1L436.8 233.1Q436.0 233.1 435.4 232.7Q434.8 232.4 434.4 231.7Q434.1 231.0 434.1 230.0L434.1 230.0Q434.1 229.1 434.4 228.4Q434.8 227.7 435.4 227.3Q436.0 226.9 436.8 226.9L436.8 226.9Q437.6 226.9 438.2 227.3Q438.9 227.7 439.2 228.4Q439.6 229.1 439.6 230.0L439.6 230.0Q439.6 231.0 439.2 231.7Q438.9 232.4 438.2 232.7Q437.6 233.1 436.8 233.1ZM436.8 232.3L436.8 232.3Q437.4 232.3 437.8 232.0Q438.2 231.6 438.4 231.1Q438.6 230.6 438.6 230.0L438.6 230.0Q438.6 229.4 438.4 228.9Q438.2 228.4 437.8 228.1Q437.4 227.8 436.8 227.8L436.8 227.8Q436.2 227.8 435.8 228.1Q435.4 228.4 435.2 228.9Q435.1 229.4 435.1 230.0L435.1 230.0Q435.1 230.6 435.2 231.1Q435.4 231.6 435.8 232.0Q436.2 232.3 436.8 232.3ZM442.7 229.4L442.7 229.4L442.7 233L441.8 233L441.8 227.0L442.7 227.0L442.7 228.1Q442.9 227.5 443.3 227.3L443.3 227.3Q443.9 226.9 444.5 226.9L444.5 226.9Q445.1 226.9 445.6 227.2Q446.1 227.4 446.3 227.9Q446.6 228.4 446.6 229.2L446.6 229.2L446.6 233L445.6 233L445.6 229.3Q445.6 228.6 445.2 228.2Q444.9 227.8 444.2 227.8L444.2 227.8Q443.8 227.8 443.5 228.0Q443.1 228.2 442.9 228.5Q442.7 228.9 442.7 229.4ZM452.4 233.1L452.4 233.1Q451.4 233.1 450.6 232.6Q449.8 232.1 449.3 231.2Q448.9 230.3 448.9 229.0L448.9 229.0Q448.9 227.7 449.3 226.8Q449.8 225.9 450.6 225.4Q451.4 224.9 452.4 224.9L452.4 224.9Q453.4 224.9 454.2 225.4Q455.0 225.9 455.5 226.8Q456.0 227.7 456.0 229.0L456.0 229.0Q456.0 230.3 455.5 231.2Q455.0 232.1 454.2 232.6Q453.4 233.1 452.4 233.1ZM452.4 232.2L452.4 232.2Q453.1 232.2 453.7 231.8Q454.3 231.4 454.6 230.7Q455.0 230.0 455.0 229.0L455.0 229.0Q455.0 228.0 454.6 227.3Q454.3 226.6 453.7 226.2Q453.1 225.8 452.4 225.8L452.4 225.8Q451.7 225.8 451.1 226.2Q450.5 226.6 450.2 227.3Q449.9 228.0 449.9 229.0L449.9 229.0Q449.9 230.0 450.2 230.7Q450.5 231.4 451.1 231.8Q451.7 232.2 452.4 232.2ZM461.0 233.1L461.0 233.1Q460.1 233.1 459.4 232.9Q458.8 232.6 458.5 232.1Q458.1 231.6 458.0 230.9L458.0 230.9L459.1 230.9Q459.1 231.4 459.4 231.6Q459.7 231.9 460.1 232.1Q460.5 232.2 461.0 232.2L461.0 232.2Q461.5 232.2 461.9 232.0Q462.4 231.9 462.6 231.5Q462.9 231.2 462.9 230.8L462.9 230.8Q462.9 230.4 462.6 230.2Q462.4 229.9 462.1 229.8Q461.7 229.6 461.3 229.5L461.3 229.5L460.3 229.2Q459.3 229.0 458.8 228.4Q458.3 227.9 458.3 227.1L458.3 227.1Q458.3 226.5 458.6 226.0Q459.0 225.4 459.6 225.2Q460.2 224.9 461.0 224.9L461.0 224.9Q461.8 224.9 462.4 225.2Q463.0 225.4 463.4 225.9Q463.7 226.4 463.7 227.0L463.7 227.0L462.8 227.0Q462.7 226.4 462.2 226.1Q461.7 225.8 461.0 225.8L461.0 225.8Q460.5 225.8 460.1 226.0Q459.7 226.1 459.5 226.4Q459.3 226.7 459.3 227.1L459.3 227.1Q459.3 227.5 459.5 227.8Q459.8 228.0 460.1 228.2Q460.5 228.3 460.8 228.4L460.8 228.4L461.6 228.6Q461.9 228.7 462.3 228.8Q462.7 229.0 463.0 229.2Q463.4 229.5 463.6 229.9Q463.9 230.3 463.9 230.8L463.9 230.8Q463.9 231.5 463.5 232.0Q463.2 232.5 462.5 232.8Q461.9 233.1 461.0 233.1Z M472.3 233.1L472.3 233.1Q471.5 233.1 470.9 232.8Q470.3 232.5 470.0 232.0Q469.7 231.5 469.7 230.9L469.7 230.9Q469.7 230.4 469.9 230.0Q470.2 229.6 470.5 229.3L470.5 229.3Q470.9 229.0 471.3 228.7L471.3 228.7Q471.2 228.5 471.1 228.4L471.1 228.4Q470.8 228.0 470.6 227.6Q470.4 227.2 470.4 226.7L470.4 226.7Q470.4 226.2 470.6 225.8Q470.9 225.4 471.3 225.2Q471.8 224.9 472.3 224.9L472.3 224.9Q472.9 224.9 473.4 225.2Q473.8 225.4 474.1 225.8Q474.3 226.2 474.3 226.6L474.3 226.6Q474.3 227.0 474.1 227.3Q474.0 227.6 473.8 227.9Q473.5 228.2 473.2 228.4L473.2 228.4L472.6 228.8L474.4 230.9Q474.4 230.8 474.5 230.6L474.5 230.6Q474.7 230.1 474.7 229.5L474.7 229.5L475.6 229.5Q475.6 230.3 475.4 230.8Q475.2 231.3 475.0 231.6L475.0 231.6Q475.0 231.6 475.0 231.6L475.0 231.6L476.1 233L474.9 233L474.4 232.3Q474.0 232.7 473.5 232.9L473.5 232.9Q472.9 233.1 472.3 233.1ZM473.8 231.6L471.9 229.4L471.6 229.6Q471.1 229.9 470.9 230.3Q470.7 230.6 470.7 230.9L470.7 230.9Q470.7 231.3 470.9 231.6Q471.1 231.9 471.4 232.1Q471.8 232.3 472.2 232.3L472.2 232.3Q472.7 232.3 473.1 232.1L473.1 232.1Q473.5 231.9 473.8 231.6L473.8 231.6ZM472.1 228.1L472.1 228.1L472.6 227.7Q472.7 227.6 472.9 227.5Q473.1 227.3 473.2 227.1Q473.3 226.9 473.3 226.6L473.3 226.6Q473.3 226.2 473.1 226.0Q472.8 225.8 472.4 225.8L472.4 225.8Q472.1 225.8 471.8 225.9Q471.6 226.0 471.5 226.2Q471.4 226.4 471.4 226.7L471.4 226.7Q471.4 227.0 471.5 227.3Q471.6 227.6 471.9 227.9L471.9 227.9Q472.0 228.0 472.1 228.1Z M484.1 233L483.1 233L481.3 227.0L482.4 227.0L483.1 229.6Q483.2 230.2 483.4 230.8L483.4 230.8Q483.5 231.3 483.7 232.0L483.7 232.0Q483.8 231.4 483.9 230.9L483.9 230.9Q484.1 230.2 484.2 229.6L484.2 229.6L484.9 227.0L486.0 227.0L486.7 229.6Q486.8 230.2 487.0 230.8L487.0 230.8Q487.1 231.4 487.2 231.9L487.2 231.9Q487.4 231.4 487.5 230.9L487.5 230.9Q487.7 230.2 487.8 229.6L487.8 229.6L488.6 227.0L489.6 227.0L487.8 233L486.8 233L486.0 230.3Q485.9 229.9 485.8 229.4Q485.7 229.0 485.6 228.6L485.6 228.6Q485.5 228.3 485.5 228.1L485.5 228.1Q485.4 228.3 485.3 228.6L485.3 228.6Q485.2 229.0 485.1 229.4Q485.0 229.9 484.9 230.3L484.9 230.3L484.1 233ZM493.3 233.1L493.3 233.1Q492.7 233.1 492.2 232.9Q491.8 232.7 491.5 232.3Q491.2 231.9 491.2 231.3L491.2 231.3Q491.2 230.8 491.4 230.5Q491.6 230.1 492.0 229.9Q492.3 229.8 492.7 229.7Q493.2 229.6 493.6 229.5L493.6 229.5Q494.1 229.5 494.4 229.4Q494.8 229.4 495.0 229.3Q495.1 229.2 495.1 229.0L495.1 229.0L495.1 228.9Q495.1 228.6 495.0 228.3Q494.8 228.0 494.6 227.9Q494.3 227.8 493.9 227.8L493.9 227.8Q493.4 227.8 493.1 227.9Q492.8 228.0 492.6 228.2Q492.4 228.4 492.3 228.6L492.3 228.6L491.4 228.3Q491.6 227.8 492.0 227.5Q492.4 227.2 492.9 227.0Q493.4 226.9 493.8 226.9L493.8 226.9Q494.1 226.9 494.5 227.0Q494.9 227.1 495.3 227.3Q495.6 227.5 495.8 227.9Q496.1 228.3 496.1 229.0L496.1 229.0L496.1 233L495.1 233L495.1 232.2L495.1 232.2Q495.0 232.4 494.7 232.6Q494.5 232.8 494.2 233.0Q493.8 233.1 493.3 233.1ZM493.5 232.3L493.5 232.3Q494.0 232.3 494.4 232.1Q494.7 231.9 494.9 231.5Q495.1 231.2 495.1 230.8L495.1 230.8L495.1 230.0Q495.1 230.1 494.9 230.1Q494.7 230.2 494.4 230.2Q494.1 230.3 493.9 230.3Q493.7 230.3 493.5 230.3L493.5 230.3Q493.2 230.4 492.9 230.5Q492.6 230.6 492.4 230.8Q492.2 231.0 492.2 231.3L492.2 231.3Q492.2 231.7 492.4 231.9Q492.5 232.1 492.8 232.2Q493.1 232.3 493.5 232.3ZM499.7 227.0L500.9 227.0L500.9 227.8L499.7 227.8L499.7 231.4Q499.7 231.8 499.9 232.0Q500.0 232.2 500.4 232.2L500.4 232.2Q500.5 232.2 500.6 232.2Q500.8 232.2 500.9 232.2L500.9 232.2L501.1 233.0Q501.0 233.0 500.8 233.0Q500.6 233.1 500.4 233.1L500.4 233.1Q499.6 233.1 499.2 232.7Q498.7 232.3 498.7 231.5L498.7 231.5L498.7 227.8L497.8 227.8L497.8 227.0L498.7 227.0L498.7 225.6L499.7 225.6L499.7 227.0ZM505.4 233.1L505.4 233.1Q504.6 233.1 504.0 232.7Q503.4 232.4 503.0 231.7Q502.7 231.0 502.7 230.0L502.7 230.0Q502.7 229.1 503.0 228.4Q503.4 227.7 504.0 227.3Q504.6 226.9 505.4 226.9L505.4 226.9Q505.9 226.9 506.2 227.0Q506.6 227.1 506.9 227.4Q507.3 227.6 507.5 227.9Q507.7 228.2 507.9 228.6L507.9 228.6L506.9 228.8Q506.9 228.6 506.7 228.4Q506.6 228.2 506.4 228.1Q506.2 227.9 506.0 227.9Q505.7 227.8 505.4 227.8L505.4 227.8Q504.8 227.8 504.4 228.1Q504.0 228.4 503.9 228.9Q503.7 229.4 503.7 230.0L503.7 230.0Q503.7 230.6 503.9 231.1Q504.0 231.6 504.4 232.0Q504.8 232.3 505.4 232.3L505.4 232.3Q505.7 232.3 506.0 232.2Q506.2 232.1 506.4 232.0Q506.6 231.8 506.8 231.6Q506.9 231.4 507.0 231.2L507.0 231.2L507.9 231.4Q507.8 231.8 507.5 232.1Q507.3 232.5 507.0 232.7Q506.6 232.9 506.3 233.0Q505.9 233.1 505.4 233.1ZM511.0 229.4L511.0 229.4L511.0 233L510.1 233L510.1 225.0L511.0 225.0L511.0 228.0Q511.3 227.5 511.6 227.3L511.6 227.3Q512.2 226.9 512.8 226.9L512.8 226.9Q513.4 226.9 513.9 227.2Q514.4 227.4 514.6 227.9Q514.9 228.4 514.9 229.2L514.9 229.2L514.9 233L513.9 233L513.9 229.3Q513.9 228.6 513.5 228.2Q513.2 227.8 512.5 227.8L512.5 227.8Q512.1 227.8 511.8 228.0Q511.4 228.2 511.2 228.5Q511.0 228.9 511.0 229.4ZM520.7 233.1L520.7 233.1Q519.7 233.1 518.9 232.6Q518.1 232.1 517.6 231.2Q517.2 230.3 517.2 229.0L517.2 229.0Q517.2 227.7 517.6 226.8Q518.1 225.9 518.9 225.4Q519.7 224.9 520.7 224.9L520.7 224.9Q521.8 224.9 522.6 225.4Q523.4 225.9 523.8 226.8Q524.3 227.7 524.3 229.0L524.3 229.0Q524.3 230.3 523.8 231.2Q523.4 232.1 522.6 232.6Q521.8 233.1 520.7 233.1ZM520.7 232.2L520.7 232.2Q521.4 232.2 522.0 231.8Q522.6 231.4 522.9 230.7Q523.3 230.0 523.3 229.0L523.3 229.0Q523.3 228.0 522.9 227.3Q522.6 226.6 522.0 226.2Q521.4 225.8 520.7 225.8L520.7 225.8Q520.0 225.8 519.4 226.2Q518.8 226.6 518.5 227.3Q518.2 228.0 518.2 229.0L518.2 229.0Q518.2 230.0 518.5 230.7Q518.8 231.4 519.4 231.8Q520.0 232.2 520.7 232.2ZM529.3 233.1L529.3 233.1Q528.4 233.1 527.8 232.9Q527.1 232.6 526.8 232.1Q526.4 231.6 526.4 230.9L526.4 230.9L527.4 230.9Q527.4 231.4 527.7 231.6Q528.0 231.9 528.4 232.1Q528.8 232.2 529.3 232.2L529.3 232.2Q529.8 232.2 530.2 232.0Q530.7 231.9 530.9 231.5Q531.2 231.2 531.2 230.8L531.2 230.8Q531.2 230.4 531.0 230.2Q530.7 229.9 530.4 229.8Q530.0 229.6 529.6 229.5L529.6 229.5L528.6 229.2Q527.7 229.0 527.1 228.4Q526.6 227.9 526.6 227.1L526.6 227.1Q526.6 226.5 526.9 226.0Q527.3 225.4 527.9 225.2Q528.6 224.9 529.3 224.9L529.3 224.9Q530.1 224.9 530.7 225.2Q531.3 225.4 531.7 225.9Q532.0 226.4 532.1 227.0L532.1 227.0L531.1 227.0Q531.0 226.4 530.5 226.1Q530.0 225.8 529.3 225.8L529.3 225.8Q528.8 225.8 528.4 226.0Q528.0 226.1 527.8 226.4Q527.6 226.7 527.6 227.1L527.6 227.1Q527.6 227.5 527.8 227.8Q528.1 228.0 528.4 228.2Q528.8 228.3 529.1 228.4L529.1 228.4L529.9 228.6Q530.2 228.7 530.6 228.8Q531.0 229.0 531.4 229.2Q531.7 229.5 531.9 229.9Q532.2 230.3 532.2 230.8L532.2 230.8Q532.2 231.5 531.8 232.0Q531.5 232.5 530.8 232.8Q530.2 233.1 529.3 233.1Z "/></g><defs><clipPath id="satori_bc-id-1-3-3" clip-path="url(#satori_cp-id)"><path x="557" y="216" width="183" height="25" d="M569.5,216 h158 a12.5,12.5 0 0 1 12.5,12.5 v0 a12.5,12.5 0 0 1 -12.5,12.5 h-158 a12.5,12.5 0 0 1 -12.5,-12.5 v0 a12.5,12.5 0 0 1 12.5,-12.5"/></clipPath></defs><mask id="satori_om-id-1-3-3"><rect x="558" y="217" width="181" height="23" fill="#fff" mask="url(#satori_om-id)"/><path width="183" height="25" fill="none" stroke="#000" stroke-width="2" d="M560.661,219.661 A12.5,12.5 0 0 1 569.5,216 h158 a12.5,12.5 0 0 1 12.5,12.5 v0 a12.5,12.5 0 0 1 -12.5,12.5 h-158 a12.5,12.5 0 0 1 -12.5,-12.5 v0 A12.5,12.5 0 0 1 560.661,219.661"/></mask><path x="557" y="216" width="183" height="25" fill="rgba(0,229,255,0.04)" d="M569.5,216 h158 a12.5,12.5 0 0 1 12.5,12.5 v0 a12.5,12.5 0 0 1 -12.5,12.5 h-158 a12.5,12.5 0 0 1 -12.5,-12.5 v0 a12.5,12.5 0 0 1 12.5,-12.5" clip-path="url(#satori_cp-id)" mask="url(#satori_om-id)"/><path width="183" height="25" clip-path="url(#satori_bc-id-1-3-3)" fill="none" stroke="rgba(0,229,255,0.12)" stroke-width="2" d="M560.661,219.661 A12.5,12.5 0 0 1 569.5,216 h158 a12.5,12.5 0 0 1 12.5,12.5 v0 a12.5,12.5 0 0 1 -12.5,12.5 h-158 a12.5,12.5 0 0 1 -12.5,-12.5 v0 A12.5,12.5 0 0 1 560.661,219.661"/><g mask="url(#satori_om-id)" clip-path="url(#satori_cp-id)"><path fill="rgba(0,229,255,0.65)" d="M575.5 233.1L575.5 233.1Q574.7 233.1 574.0 232.9Q573.4 232.6 573.0 232.1Q572.7 231.6 572.6 230.9L572.6 230.9L573.7 230.9Q573.7 231.4 574.0 231.6Q574.2 231.9 574.7 232.1Q575.1 232.2 575.5 232.2L575.5 232.2Q576.1 232.2 576.5 232.0Q576.9 231.9 577.2 231.5Q577.4 231.2 577.4 230.8L577.4 230.8Q577.4 230.4 577.2 230.2Q577.0 229.9 576.6 229.8Q576.3 229.6 575.9 229.5L575.9 229.5L574.9 229.2Q573.9 229.0 573.4 228.4Q572.8 227.9 572.8 227.1L572.8 227.1Q572.8 226.5 573.2 226.0Q573.6 225.4 574.2 225.2Q574.8 224.9 575.6 224.9L575.6 224.9Q576.4 224.9 577.0 225.2Q577.6 225.4 578.0 225.9Q578.3 226.4 578.3 227.0L578.3 227.0L577.3 227.0Q577.3 226.4 576.8 226.1Q576.3 225.8 575.6 225.8L575.6 225.8Q575.1 225.8 574.7 226.0Q574.3 226.1 574.1 226.4Q573.8 226.7 573.8 227.1L573.8 227.1Q573.8 227.5 574.1 227.8Q574.4 228.0 574.7 228.2Q575.1 228.3 575.4 228.4L575.4 228.4L576.2 228.6Q576.5 228.7 576.9 228.8Q577.3 229.0 577.6 229.2Q578.0 229.5 578.2 229.9Q578.4 230.3 578.4 230.8L578.4 230.8Q578.4 231.5 578.1 232.0Q577.8 232.5 577.1 232.8Q576.5 233.1 575.5 233.1ZM581.7 229.4L581.7 229.4L581.7 233L580.7 233L580.7 225.0L581.7 225.0L581.7 228.0Q581.9 227.5 582.3 227.3L582.3 227.3Q582.8 226.9 583.5 226.9L583.5 226.9Q584.1 226.9 584.5 227.2Q585.0 227.4 585.3 227.9Q585.5 228.4 585.5 229.2L585.5 229.2L585.5 233L584.5 233L584.5 229.3Q584.5 228.6 584.2 228.2Q583.8 227.8 583.2 227.8L583.2 227.8Q582.8 227.8 582.4 228.0Q582.1 228.2 581.9 228.5Q581.7 228.9 581.7 229.4ZM589.0 233L588.0 233L588.0 227.0L589.0 227.0L589.0 233ZM588.5 226.0L588.5 226.0Q588.2 226.0 588.0 225.8Q587.8 225.6 587.8 225.4L587.8 225.4Q587.8 225.1 588.0 224.9Q588.2 224.7 588.5 224.7L588.5 224.7Q588.8 224.7 589.0 224.9Q589.2 225.1 589.2 225.4L589.2 225.4Q589.2 225.6 589.0 225.8Q588.8 226.0 588.5 226.0ZM592.4 235.2L591.5 235.2L591.5 227.0L592.4 227.0L592.4 228.0L592.5 228.0Q592.6 227.8 592.8 227.6Q593.0 227.3 593.3 227.1Q593.7 226.9 594.3 226.9L594.3 226.9Q595.0 226.9 595.6 227.3Q596.2 227.7 596.5 228.4Q596.8 229.1 596.8 230.0L596.8 230.0Q596.8 231.0 596.5 231.7Q596.2 232.4 595.6 232.7Q595.0 233.1 594.3 233.1L594.3 233.1Q593.7 233.1 593.3 232.9Q593.0 232.7 592.8 232.5Q592.6 232.2 592.5 232.1L592.5 232.1L592.4 232.1L592.4 235.2ZM594.1 232.3L594.1 232.3Q594.7 232.3 595.1 232.0Q595.4 231.7 595.6 231.1Q595.8 230.6 595.8 230.0L595.8 230.0Q595.8 229.4 595.6 228.9Q595.4 228.4 595.1 228.1Q594.7 227.8 594.1 227.8L594.1 227.8Q593.6 227.8 593.2 228.1Q592.8 228.3 592.6 228.8Q592.4 229.3 592.4 230.0L592.4 230.0Q592.4 230.7 592.6 231.2Q592.8 231.7 593.2 232.0Q593.6 232.3 594.1 232.3ZM600.0 235.2L599.0 235.2L599.0 227.0L599.9 227.0L599.9 228.0L600.1 228.0Q600.2 227.8 600.3 227.6Q600.5 227.3 600.9 227.1Q601.2 226.9 601.8 226.9L601.8 226.9Q602.5 226.9 603.1 227.3Q603.7 227.7 604.0 228.4Q604.3 229.1 604.3 230.0L604.3 230.0Q604.3 231.0 604.0 231.7Q603.7 232.4 603.1 232.7Q602.5 233.1 601.8 233.1L601.8 233.1Q601.2 233.1 600.9 232.9Q600.5 232.7 600.3 232.5Q600.2 232.2 600.1 232.1L600.1 232.1L600.0 232.1L600.0 235.2ZM601.7 232.3L601.7 232.3Q602.2 232.3 602.6 232.0Q603.0 231.7 603.2 231.1Q603.4 230.6 603.4 230.0L603.4 230.0Q603.4 229.4 603.2 228.9Q603.0 228.4 602.6 228.1Q602.2 227.8 601.7 227.8L601.7 227.8Q601.1 227.8 600.7 228.1Q600.3 228.3 600.2 228.8Q600.0 229.3 600.0 230.0L600.0 230.0Q600.0 230.7 600.2 231.2Q600.4 231.7 600.7 232.0Q601.1 232.3 601.7 232.3ZM609.1 233.1L609.1 233.1Q608.2 233.1 607.6 232.7Q606.9 232.4 606.6 231.7Q606.3 231.0 606.3 230.0Q606.3 229.1 606.6 228.4Q606.9 227.7 607.5 227.3Q608.1 226.9 609.0 226.9L609.0 226.9Q609.4 226.9 609.9 227.1Q610.4 227.2 610.7 227.6Q611.1 227.9 611.3 228.5Q611.6 229.1 611.6 229.9L611.6 229.9L611.6 230.3L607.2 230.3Q607.3 230.9 607.5 231.3L607.5 231.3Q607.7 231.8 608.1 232.0Q608.5 232.3 609.1 232.3L609.1 232.3Q609.4 232.3 609.7 232.2Q610.0 232.1 610.2 231.9Q610.4 231.7 610.5 231.3L610.5 231.3L611.5 231.6Q611.3 232.1 611.0 232.4Q610.7 232.7 610.2 232.9Q609.7 233.1 609.1 233.1ZM607.2 229.5L607.2 229.5L610.6 229.5Q610.6 229.1 610.4 228.8L610.4 228.8Q610.2 228.3 609.9 228.0Q609.5 227.8 609.0 227.8Q608.4 227.8 608.0 228.0Q607.6 228.3 607.4 228.7L607.4 228.7Q607.3 229.1 607.2 229.5ZM616.0 233.1L616.0 233.1Q615.3 233.1 614.7 232.7Q614.1 232.4 613.8 231.7Q613.5 231.0 613.5 230.0L613.5 230.0Q613.5 229.1 613.8 228.4Q614.1 227.7 614.7 227.3Q615.3 226.9 616.0 226.9L616.0 226.9Q616.6 226.9 616.9 227.1Q617.3 227.3 617.5 227.6Q617.7 227.8 617.8 228.0L617.8 228.0L617.8 228.0L617.8 225.0L618.8 225.0L618.8 233L617.9 233L617.9 232.1L617.8 232.1Q617.7 232.2 617.5 232.5Q617.3 232.7 616.9 232.9Q616.6 233.1 616.0 233.1ZM616.2 232.3L616.2 232.3Q616.7 232.3 617.1 232.0Q617.5 231.7 617.6 231.2Q617.8 230.7 617.8 230.0L617.8 230.0Q617.8 229.3 617.6 228.8Q617.5 228.3 617.1 228.1Q616.7 227.8 616.2 227.8L616.2 227.8Q615.6 227.8 615.2 228.1Q614.8 228.4 614.6 228.9Q614.5 229.4 614.5 230.0L614.5 230.0Q614.5 230.6 614.6 231.1Q614.8 231.7 615.2 232.0Q615.6 232.3 616.2 232.3Z M627.6 233.1L627.6 233.1Q626.8 233.1 626.2 232.7Q625.6 232.4 625.2 231.7Q624.9 231.0 624.9 230.0L624.9 230.0Q624.9 229.1 625.2 228.4Q625.6 227.7 626.2 227.3Q626.8 226.9 627.6 226.9L627.6 226.9Q628.5 226.9 629.1 227.3Q629.7 227.7 630.0 228.4Q630.4 229.1 630.4 230.0L630.4 230.0Q630.4 231.0 630.0 231.7Q629.7 232.4 629.1 232.7Q628.5 233.1 627.6 233.1ZM627.6 232.3L627.6 232.3Q628.2 232.3 628.6 232.0Q629.0 231.6 629.2 231.1Q629.4 230.6 629.4 230.0L629.4 230.0Q629.4 229.4 629.2 228.9Q629.0 228.4 628.6 228.1Q628.2 227.8 627.6 227.8L627.6 227.8Q627.0 227.8 626.6 228.1Q626.3 228.4 626.1 228.9Q625.9 229.4 625.9 230.0L625.9 230.0Q625.9 230.6 626.1 231.1Q626.3 231.6 626.6 232.0Q627.0 232.3 627.6 232.3ZM633.6 229.4L633.6 229.4L633.6 233L632.6 233L632.6 227.0L633.5 227.0L633.5 228.1Q633.8 227.5 634.2 227.3L634.2 227.3Q634.7 226.9 635.4 226.9L635.4 226.9Q636.0 226.9 636.4 227.2Q636.9 227.4 637.1 227.9Q637.4 228.4 637.4 229.2L637.4 229.2L637.4 233L636.4 233L636.4 229.3Q636.4 228.6 636.1 228.2Q635.7 227.8 635.1 227.8L635.1 227.8Q634.6 227.8 634.3 228.0Q633.9 228.2 633.7 228.5Q633.6 228.9 633.6 229.4Z M644.9 227.0L646.1 227.0L646.1 227.8L644.9 227.8L644.9 231.4Q644.9 231.8 645.1 232.0Q645.2 232.2 645.6 232.2L645.6 232.2Q645.7 232.2 645.8 232.2Q646.0 232.2 646.1 232.2L646.1 232.2L646.3 233.0Q646.2 233.0 646.0 233.0Q645.8 233.1 645.6 233.1L645.6 233.1Q644.8 233.1 644.4 232.7Q643.9 232.3 643.9 231.5L643.9 231.5L643.9 227.8L643.0 227.8L643.0 227.0L643.9 227.0L643.9 225.6L644.9 225.6L644.9 227.0ZM649.1 229.4L649.1 229.4L649.1 233L648.2 233L648.2 225.0L649.1 225.0L649.1 228.0Q649.4 227.5 649.8 227.3L649.8 227.3Q650.3 226.9 650.9 226.9L650.9 226.9Q651.6 226.9 652.0 227.2Q652.5 227.4 652.7 227.9Q653.0 228.4 653.0 229.2L653.0 229.2L653.0 233L652.0 233L652.0 229.3Q652.0 228.6 651.6 228.2Q651.3 227.8 650.7 227.8L650.7 227.8Q650.2 227.8 649.9 228.0Q649.5 228.2 649.3 228.5Q649.1 228.9 649.1 229.4ZM658.0 233.1L658.0 233.1Q657.1 233.1 656.5 232.7Q655.9 232.4 655.5 231.7Q655.2 231.0 655.2 230.0Q655.2 229.1 655.5 228.4Q655.9 227.7 656.5 227.3Q657.1 226.9 657.9 226.9L657.9 226.9Q658.4 226.9 658.8 227.1Q659.3 227.2 659.7 227.6Q660.1 227.9 660.3 228.5Q660.5 229.1 660.5 229.9L660.5 229.9L660.5 230.3L656.2 230.3Q656.2 230.9 656.4 231.3L656.4 231.3Q656.6 231.8 657.0 232.0Q657.5 232.3 658.0 232.3L658.0 232.3Q658.4 232.3 658.7 232.2Q658.9 232.1 659.2 231.9Q659.4 231.7 659.5 231.3L659.5 231.3L660.4 231.6Q660.3 232.1 659.9 232.4Q659.6 232.7 659.1 232.9Q658.6 233.1 658.0 233.1ZM656.2 229.5L656.2 229.5L659.5 229.5Q659.5 229.1 659.4 228.8L659.4 228.8Q659.2 228.3 658.8 228.0Q658.4 227.8 657.9 227.8Q657.3 227.8 657.0 228.0Q656.6 228.3 656.4 228.7L656.4 228.7Q656.2 229.1 656.2 229.5Z M667.1 233L666.0 233L668.9 225.0L670.1 225.0L673.0 233L672.0 233L671.2 230.8L667.9 230.8L667.1 233ZM668.2 229.9L670.9 229.9L670.3 228.3Q670.1 227.8 669.9 227.2L669.9 227.2Q669.7 226.6 669.5 225.8L669.5 225.8Q669.3 226.6 669.1 227.2L669.1 227.2Q668.9 227.8 668.8 228.3L668.8 228.3L668.2 229.9ZM675.9 235.2L675.0 235.2L675.0 227.0L675.9 227.0L675.9 228.0L676.0 228.0Q676.1 227.8 676.3 227.6Q676.5 227.3 676.8 227.1Q677.2 226.9 677.8 226.9L677.8 226.9Q678.5 226.9 679.1 227.3Q679.7 227.7 680.0 228.4Q680.3 229.1 680.3 230.0L680.3 230.0Q680.3 231.0 680.0 231.7Q679.7 232.4 679.1 232.7Q678.5 233.1 677.8 233.1L677.8 233.1Q677.2 233.1 676.8 232.9Q676.5 232.7 676.3 232.5Q676.1 232.2 676.0 232.1L676.0 232.1L675.9 232.1L675.9 235.2ZM677.6 232.3L677.6 232.3Q678.2 232.3 678.6 232.0Q678.9 231.7 679.1 231.1Q679.3 230.6 679.3 230.0L679.3 230.0Q679.3 229.4 679.1 228.9Q678.9 228.4 678.6 228.1Q678.2 227.8 677.6 227.8L677.6 227.8Q677.1 227.8 676.7 228.1Q676.3 228.3 676.1 228.8Q675.9 229.3 675.9 230.0L675.9 230.0Q675.9 230.7 676.1 231.2Q676.3 231.7 676.7 232.0Q677.1 232.3 677.6 232.3ZM683.5 235.2L682.5 235.2L682.5 227.0L683.4 227.0L683.4 228.0L683.6 228.0Q683.7 227.8 683.8 227.6Q684.0 227.3 684.4 227.1Q684.7 226.9 685.3 226.9L685.3 226.9Q686.0 226.9 686.6 227.3Q687.2 227.7 687.5 228.4Q687.8 229.1 687.8 230.0L687.8 230.0Q687.8 231.0 687.5 231.7Q687.2 232.4 686.6 232.7Q686.1 233.1 685.3 233.1L685.3 233.1Q684.7 233.1 684.4 232.9Q684.0 232.7 683.8 232.5Q683.7 232.2 683.6 232.1L683.6 232.1L683.5 232.1L683.5 235.2ZM685.2 232.3L685.2 232.3Q685.7 232.3 686.1 232.0Q686.5 231.7 686.7 231.1Q686.9 230.6 686.9 230.0L686.9 230.0Q686.9 229.4 686.7 228.9Q686.5 228.4 686.1 228.1Q685.7 227.8 685.2 227.8L685.2 227.8Q684.6 227.8 684.2 228.1Q683.8 228.3 683.7 228.8Q683.5 229.3 683.5 230.0L683.5 230.0Q683.5 230.7 683.7 231.2Q683.9 231.7 684.2 232.0Q684.6 232.3 685.2 232.3Z M696.6 233.1L696.6 233.1Q695.8 233.1 695.1 232.9Q694.5 232.6 694.1 232.1Q693.8 231.6 693.7 230.9L693.7 230.9L694.8 230.9Q694.8 231.4 695.1 231.6Q695.3 231.9 695.7 232.1Q696.2 232.2 696.6 232.2L696.6 232.2Q697.2 232.2 697.6 232.0Q698.0 231.9 698.3 231.5Q698.5 231.2 698.5 230.8L698.5 230.8Q698.5 230.4 698.3 230.2Q698.1 229.9 697.7 229.8Q697.4 229.6 696.9 229.5L696.9 229.5L696.0 229.2Q695.0 229.0 694.5 228.4Q693.9 227.9 693.9 227.1L693.9 227.1Q693.9 226.5 694.3 226.0Q694.7 225.4 695.3 225.2Q695.9 224.9 696.7 224.9L696.7 224.9Q697.5 224.9 698.1 225.2Q698.7 225.4 699.0 225.9Q699.4 226.4 699.4 227.0L699.4 227.0L698.4 227.0Q698.3 226.4 697.9 226.1Q697.4 225.8 696.7 225.8L696.7 225.8Q696.1 225.8 695.8 226.0Q695.4 226.1 695.1 226.4Q694.9 226.7 694.9 227.1L694.9 227.1Q694.9 227.5 695.2 227.8Q695.5 228.0 695.8 228.2Q696.2 228.3 696.5 228.4L696.5 228.4L697.3 228.6Q697.6 228.7 698.0 228.8Q698.4 229.0 698.7 229.2Q699.1 229.5 699.3 229.9Q699.5 230.3 699.5 230.8L699.5 230.8Q699.5 231.5 699.2 232.0Q698.8 232.5 698.2 232.8Q697.5 233.1 696.6 233.1ZM702.9 227.0L704.2 227.0L704.2 227.8L702.9 227.8L702.9 231.4Q702.9 231.8 703.1 232.0Q703.3 232.2 703.6 232.2L703.6 232.2Q703.7 232.2 703.9 232.2Q704.0 232.2 704.1 232.2L704.1 232.2L704.3 233.0Q704.2 233.0 704.0 233.0Q703.8 233.1 703.6 233.1L703.6 233.1Q702.8 233.1 702.4 232.7Q702.0 232.3 702.0 231.5L702.0 231.5L702.0 227.8L701.1 227.8L701.1 227.0L702.0 227.0L702.0 225.6L702.9 225.6L702.9 227.0ZM708.6 233.1L708.6 233.1Q707.8 233.1 707.2 232.7Q706.6 232.4 706.2 231.7Q705.9 231.0 705.9 230.0L705.9 230.0Q705.9 229.1 706.2 228.4Q706.6 227.7 707.2 227.3Q707.8 226.9 708.6 226.9L708.6 226.9Q709.5 226.9 710.1 227.3Q710.7 227.7 711.0 228.4Q711.4 229.1 711.4 230.0L711.4 230.0Q711.4 231.0 711.0 231.7Q710.7 232.4 710.1 232.7Q709.5 233.1 708.6 233.1ZM708.6 232.3L708.6 232.3Q709.2 232.3 709.6 232.0Q710.0 231.6 710.2 231.1Q710.4 230.6 710.4 230.0L710.4 230.0Q710.4 229.4 710.2 228.9Q710.0 228.4 709.6 228.1Q709.2 227.8 708.6 227.8L708.6 227.8Q708.0 227.8 707.7 228.1Q707.3 228.4 707.1 228.9Q706.9 229.4 706.9 230.0L706.9 230.0Q706.9 230.6 707.1 231.1Q707.3 231.6 707.7 232.0Q708.0 232.3 708.6 232.3ZM714.6 233L713.6 233L713.6 227.0L714.5 227.0L714.5 227.9L714.6 227.9Q714.8 227.5 715.2 227.2Q715.6 226.9 716.1 226.9L716.1 226.9Q716.3 226.9 716.4 226.9Q716.6 226.9 716.6 226.9L716.6 226.9L716.6 227.9Q716.6 227.9 716.4 227.9Q716.3 227.8 716.1 227.8L716.1 227.8Q715.6 227.8 715.3 228.0Q714.9 228.2 714.8 228.5Q714.6 228.8 714.6 229.2L714.6 229.2L714.6 233ZM721.1 233.1L721.1 233.1Q720.2 233.1 719.6 232.7Q718.9 232.4 718.6 231.7Q718.2 231.0 718.2 230.0Q718.2 229.1 718.6 228.4Q718.9 227.7 719.5 227.3Q720.1 226.9 720.9 226.9L720.9 226.9Q721.4 226.9 721.9 227.1Q722.4 227.2 722.7 227.6Q723.1 227.9 723.3 228.5Q723.6 229.1 723.6 229.9L723.6 229.9L723.6 230.3L719.2 230.3Q719.2 230.9 719.5 231.3L719.5 231.3Q719.7 231.8 720.1 232.0Q720.5 232.3 721.1 232.3L721.1 232.3Q721.4 232.3 721.7 232.2Q722.0 232.1 722.2 231.9Q722.4 231.7 722.5 231.3L722.5 231.3L723.5 231.6Q723.3 232.1 723.0 232.4Q722.7 232.7 722.2 232.9Q721.7 233.1 721.1 233.1ZM719.2 229.5L719.2 229.5L722.6 229.5Q722.5 229.1 722.4 228.8L722.4 228.8Q722.2 228.3 721.9 228.0Q721.5 227.8 720.9 227.8Q720.4 227.8 720.0 228.0Q719.6 228.3 719.4 228.7L719.4 228.7Q719.3 229.1 719.2 229.5Z "/></g></svg>